<svg width="1250" height="613" viewBox="0 0 1250 613" fill="none" xmlns="http://www.w3.org/2000/svg">
<g id="reunion-header-desktop-dark">
<path id="2023 ANNUAL" d="M370.228 129.9V106.2C370.228 106.2 364.728 112.7 349.528 112.7C344.528 112.7 344.628 112.1 344.628 112.1C344.628 96.3 369.428 99.6 369.428 77.7C369.428 67.2 360.428 58.9 346.628 58.9C334.428 58.9 328.828 60.8 328.828 60.8V80.6C328.828 80.6 336.628 72.7 345.928 72.7C350.128 72.7 352.828 75.3 352.828 79.5C352.828 91.4 326.828 94.4 326.828 118C326.828 123.9 328.828 129.9 328.828 129.9H370.228ZM407.199 131C424.499 131 436.199 115 436.199 97C436.199 71 421.999 59 407.199 59C392.399 59 378.199 71 378.199 97C378.199 115 387.799 131 407.199 131ZM407.199 113C399.799 113 395.999 104.1 395.999 93.9C395.999 82 399.499 71.7 406.799 71H407.599C414.799 71.7 418.399 82 418.399 93.9C418.399 104.9 414.599 113 407.199 113ZM487.615 129.9V106.2C487.615 106.2 482.115 112.7 466.915 112.7C461.915 112.7 462.015 112.1 462.015 112.1C462.015 96.3 486.815 99.6 486.815 77.7C486.815 67.2 477.815 58.9 464.015 58.9C451.815 58.9 446.215 60.8 446.215 60.8V80.6C446.215 80.6 454.015 72.7 463.315 72.7C467.515 72.7 470.215 75.3 470.215 79.5C470.215 91.4 444.215 94.4 444.215 118C444.215 123.9 446.215 129.9 446.215 129.9H487.615ZM520.186 130.9C537.886 130.9 544.386 119.9 544.386 108.8C544.386 97.7 534.386 91.5 528.486 90L542.486 77.6V59.9H498.886V79.5C498.886 79.5 506.186 72.1 518.386 72.1C523.686 72.1 526.686 73.3 526.686 73.3C526.686 73.3 520.486 79.9 507.886 89.5L516.486 98.8C516.486 98.8 518.086 98 520.186 98C524.686 98 528.586 100.1 528.586 104.7C528.586 109.9 524.086 111.8 519.686 111.8C515.386 111.8 511.386 109.9 508.486 105.8L496.786 117.2C496.786 117.2 502.586 130.9 520.186 130.9ZM573.008 130H594.108L594.808 118.6C596.908 118.2 599.008 118.1 601.108 118.1C603.208 118.1 605.308 118.2 607.408 118.6L608.108 130H629.208L624.408 117.9C617.008 99.5 613.208 79.8 613.208 60H589.008C589.008 79.8 585.208 99.5 577.808 117.9L573.008 130ZM601.108 107.9C599.408 107.9 597.608 107.8 595.908 107.6C597.208 99.1 599.108 90.6 601.108 82.3C603.108 90.6 605.008 99.1 606.308 107.6C604.608 107.8 602.808 107.9 601.108 107.9ZM633.676 130H655.676L654.376 123.9C652.076 112.8 650.876 101.5 650.876 90.2C650.876 87.8 650.976 85.4 651.076 83C658.476 97.9 664.076 113.7 667.676 130H689.676L688.376 116.2C687.676 108.7 687.276 101.1 687.276 93.6C687.276 82.4 688.076 71.1 689.676 60H669.676C671.576 70 672.476 80 672.476 90.1C672.476 95 672.276 100 671.776 104.9C667.176 96.1 663.276 87.1 659.976 77.7L653.676 60H633.676C635.276 71.1 636.076 82.4 636.076 93.6C636.076 101.1 635.676 108.7 634.976 116.2L633.676 130ZM700.816 130H722.816L721.516 123.9C719.216 112.8 718.016 101.5 718.016 90.2C718.016 87.8 718.116 85.4 718.216 83C725.616 97.9 731.216 113.7 734.816 130H756.816L755.516 116.2C754.816 108.7 754.416 101.1 754.416 93.6C754.416 82.4 755.216 71.1 756.816 60H736.816C738.716 70 739.616 80 739.616 90.1C739.616 95 739.416 100 738.916 104.9C734.316 96.1 730.416 87.1 727.116 77.7L720.816 60H700.816C702.416 71.1 703.216 82.4 703.216 93.6C703.216 101.1 702.816 108.7 702.116 116.2L700.816 130ZM791.98 130C809.28 130 816.38 116 816.38 107.1C816.38 100 815.08 96.7 815.08 85.9C815.08 71 816.98 60 816.98 60H796.88C796.88 60 801.48 76.8 801.48 101.9C801.48 110.2 794.78 112.1 791.98 112.1C789.18 112.1 782.48 110.2 782.48 101.9C782.48 76.8 787.08 60 787.08 60H766.98C766.98 60 768.88 71 768.88 85.9C768.88 96.7 767.58 100 767.58 107.1C767.58 116 774.68 130 791.98 130ZM818.035 130H839.135L839.835 118.6C841.935 118.2 844.035 118.1 846.135 118.1C848.235 118.1 850.335 118.2 852.435 118.6L853.135 130H874.235L869.435 117.9C862.035 99.5 858.235 79.8 858.235 60H834.035C834.035 79.8 830.235 99.5 822.835 117.9L818.035 130ZM846.135 107.9C844.435 107.9 842.635 107.8 840.935 107.6C842.235 99.1 844.135 90.6 846.135 82.3C848.135 90.6 850.035 99.1 851.335 107.6C849.635 107.8 847.835 107.9 846.135 107.9ZM878.215 130H922.215V106L919.715 107.6C915.115 110.4 909.915 111.9 904.715 111.9C902.015 111.9 899.315 111.5 896.715 110.7C895.815 103.9 895.415 97 895.415 90.1C895.415 80 896.315 70 898.215 60H878.215C879.815 71.1 880.615 82.4 880.615 93.6C880.615 101.1 880.215 108.7 879.515 116.2L878.215 130Z" fill="#ECA2FF"/>
<g id="BURCH FAMILY">
<path d="M12.5633 323H56.5633C102.363 323 116.363 303.6 116.363 279.4C116.363 257.6 99.9633 248.4 92.9633 245.6C102.963 240.2 108.563 230.8 108.563 217C108.563 198.2 91.9633 183 71.1633 183H12.5633C17.9633 220.2 18.7633 258 15.1633 295.4L12.5633 323ZM47.1633 237.6C47.1633 234.4 47.1633 231.2 47.3633 228.4C47.7633 219.8 48.3633 211.4 49.5633 202.8C61.1633 201.6 72.7633 206 72.7633 220.8C72.7633 244 47.1633 237.6 47.1633 237.6ZM60.5633 288.8C55.7633 288.8 52.3633 288.4 49.9633 288C48.7633 278.8 47.9633 269.4 47.3633 260.2C50.7633 259.6 55.1633 259.2 60.3633 259.2C72.7633 259.2 80.5633 265 80.5633 273.6C80.5633 284.8 72.3633 288.8 60.5633 288.8ZM182.387 323C216.987 323 231.187 295 231.187 277.2C231.187 263 228.587 256.4 228.587 234.8C228.587 205 232.387 183 232.387 183H192.187C192.187 183 201.387 216.6 201.387 266.8C201.387 283.4 187.987 287.2 182.387 287.2C176.787 287.2 163.387 283.4 163.387 266.8C163.387 216.6 172.587 183 172.587 183H132.387C132.387 183 136.187 205 136.187 234.8C136.187 256.4 133.587 263 133.587 277.2C133.587 295 147.787 323 182.387 323ZM252.41 323H296.41L293.81 310.8C290.21 293.8 288.01 276.4 287.21 259.2C294.21 259 312.21 260.4 312.41 282.8C312.41 296.4 311.01 309.8 308.41 323H352.41C349.61 309.6 348.41 296.2 348.41 282.6V281.2C348.41 262 337.81 255 325.21 252.6C339.81 245.4 348.41 230.6 348.41 217C348.41 198.2 331.61 183 311.01 183H252.41C257.61 220.2 258.61 258 255.01 295.4L252.41 323ZM287.01 238.8C287.01 234 287.01 229.6 287.21 225.6C287.61 218 288.21 210.4 289.21 202.8C300.81 201.6 312.61 206 312.61 220.8C312.61 244 287.01 238.8 287.01 238.8ZM420.379 325C447.379 325 468.179 304.8 475.579 278.4L440.779 266C437.979 279.2 430.979 289 420.379 289C405.979 289 398.379 270.8 398.379 250.8C398.379 227 405.379 206.4 419.579 205H421.179C429.779 206 435.579 213.6 438.979 224.8L470.579 215.8C459.979 192.2 440.179 181 420.379 181C391.379 181 362.379 205 362.379 257C362.379 293 382.379 325 420.379 325ZM483.668 323H527.668L525.068 310.8C521.668 294 519.468 277.2 518.468 260.2C522.868 259.6 527.268 259.2 531.668 259.2C537.468 259.2 543.068 259.8 548.868 261C547.868 277.8 545.668 294.4 542.268 310.8L539.668 323H583.668L581.068 295.4C579.668 280.4 578.868 265.2 578.868 250.2C578.868 227.8 580.468 205.2 583.668 183H543.668C547.068 200.8 548.868 218.8 549.268 236.8C543.468 238.2 537.468 238.8 531.668 238.8C527.068 238.8 522.668 238.4 518.068 237.6C518.468 219.4 520.268 201 523.668 183H483.668C486.868 205.2 488.468 227.8 488.468 250.2C488.468 265.2 487.668 280.4 486.268 295.4L483.668 323ZM649.691 323H693.691L691.091 310.8C687.691 294 685.491 277.2 684.491 260.2C688.891 259.4 693.291 259.2 697.691 259.2C705.891 259.2 713.891 260.4 721.691 263V235C713.891 237.6 705.891 238.8 697.691 238.8C693.091 238.8 688.691 238.4 684.091 237.6C684.291 227.6 684.891 217.6 686.091 207.6C690.891 205.8 696.091 204.8 701.291 204.8C711.291 204.8 721.291 208.4 729.291 215.6L737.691 223V183H649.691C652.891 205.2 654.491 227.8 654.491 250.2C654.491 265.2 653.691 280.4 652.291 295.4L649.691 323ZM733.637 323H775.837L777.237 300.2C781.437 299.4 785.637 299.2 789.837 299.2C794.037 299.2 798.237 299.4 802.437 300.2L803.837 323H846.037L836.437 298.8C821.637 262 814.037 222.6 814.037 183H765.637C765.637 222.6 758.037 262 743.237 298.8L733.637 323ZM789.837 278.8C786.437 278.8 782.837 278.6 779.437 278.2C782.037 261.2 785.837 244.2 789.837 227.6C793.837 244.2 797.637 261.2 800.237 278.2C796.837 278.6 793.237 278.8 789.837 278.8ZM854.973 323H898.973L896.373 310.8C891.773 288.6 889.373 266.2 889.373 243.8L914.973 291L940.573 243.8C940.573 266.2 938.173 288.6 933.573 310.8L930.973 323H974.973L972.373 295.4C970.973 280.4 970.173 265.2 970.173 250.2C970.173 227.8 971.773 205.2 974.973 183H934.973C934.973 204 930.173 224.8 920.573 243.6L914.973 255L909.373 243.6C899.773 224.8 894.973 204 894.973 183H854.973C858.173 205.2 859.773 227.8 859.773 250.2C859.773 265.2 858.973 280.4 857.573 295.4L854.973 323ZM996.824 323H1036.82L1034.22 295.4C1032.82 280.4 1032.02 265.2 1032.02 250.2C1032.02 227.8 1033.62 205.2 1036.82 183H996.824C1000.02 205.2 1001.62 227.8 1001.62 250.2C1001.62 265.2 1000.82 280.4 999.424 295.4L996.824 323ZM1054.79 323H1142.79V275L1137.79 278.2C1128.59 283.8 1118.19 286.8 1107.79 286.8C1102.39 286.8 1096.99 286 1091.79 284.4C1089.99 270.8 1089.19 257 1089.19 243.2C1089.19 223 1090.99 203 1094.79 183H1054.79C1057.99 205.2 1059.59 227.8 1059.59 250.2C1059.59 265.2 1058.79 280.4 1057.39 295.4L1054.79 323ZM1161.7 323H1201.7L1199.1 295.4C1197.9 283 1197.3 270.6 1197.1 258.2L1199.1 254.6C1211.7 232.4 1225.7 204.4 1241.7 183.2H1201.1C1196.1 199.8 1188.9 221.2 1181.7 234.8C1174.7 221.2 1167.1 200.4 1162.3 183.2H1121.7C1137.9 204.4 1151.9 232.4 1164.5 254.6L1166.5 258.2C1166.3 270.6 1165.7 283 1164.5 295.4L1161.7 323Z" fill="#ECA2FF"/>
</g>
<path id="REUNION" d="M432.605 448H454.605L453.305 441.9C451.505 433.4 450.405 424.7 450.005 416.1C453.505 416 462.505 416.7 462.605 427.9C462.605 434.7 461.905 441.4 460.605 448H482.605C481.205 441.3 480.605 434.6 480.605 427.8V427.1C480.605 417.5 475.305 414 469.005 412.8C476.305 409.2 480.605 401.8 480.605 395C480.605 385.6 472.205 378 461.905 378H432.605C435.205 396.6 435.705 415.5 433.905 434.2L432.605 448ZM449.905 405.9C449.905 403.5 449.905 401.3 450.005 399.3C450.205 395.5 450.505 391.7 451.005 387.9C456.805 387.3 462.705 389.5 462.705 396.9C462.705 408.5 449.905 405.9 449.905 405.9ZM490.566 448H534.566V424L532.066 425.6C527.466 428.4 522.266 429.9 517.066 429.9C514.366 429.9 511.666 429.5 509.066 428.7C508.566 424.7 508.166 420.7 507.966 416.6C510.166 416.2 512.366 416.1 514.566 416.1C518.666 416.1 522.666 416.7 526.566 418V404C522.666 405.3 518.666 405.9 514.566 405.9C512.266 405.9 510.066 405.7 507.766 405.3C507.866 400.3 508.166 395.3 508.766 390.3C511.166 389.4 513.766 388.9 516.366 388.9C521.366 388.9 526.366 390.7 530.366 394.3L534.566 398V378H490.566C492.166 389.1 492.966 400.4 492.966 411.6C492.966 419.1 492.566 426.7 491.866 434.2L490.566 448ZM569.523 448C586.823 448 593.923 434 593.923 425.1C593.923 418 592.623 414.7 592.623 403.9C592.623 389 594.523 378 594.523 378H574.423C574.423 378 579.023 394.8 579.023 419.9C579.023 428.2 572.323 430.1 569.523 430.1C566.723 430.1 560.023 428.2 560.023 419.9C560.023 394.8 564.623 378 564.623 378H544.523C544.523 378 546.423 389 546.423 403.9C546.423 414.7 545.123 418 545.123 425.1C545.123 434 552.223 448 569.523 448ZM603.559 448H625.559L624.259 441.9C621.959 430.8 620.759 419.5 620.759 408.2C620.759 405.8 620.859 403.4 620.959 401C628.359 415.9 633.959 431.7 637.559 448H659.559L658.259 434.2C657.559 426.7 657.159 419.1 657.159 411.6C657.159 400.4 657.959 389.1 659.559 378H639.559C641.459 388 642.359 398 642.359 408.1C642.359 413 642.159 418 641.659 422.9C637.059 414.1 633.159 405.1 629.859 395.7L623.559 378H603.559C605.159 389.1 605.959 400.4 605.959 411.6C605.959 419.1 605.559 426.7 604.859 434.2L603.559 448ZM670.188 448H690.188L688.888 434.2C688.188 426.7 687.788 419.1 687.788 411.6C687.788 400.4 688.588 389.1 690.188 378H670.188C671.787 389.1 672.588 400.4 672.588 411.6C672.588 419.1 672.188 426.7 671.488 434.2L670.188 448ZM726.168 449C743.468 449 755.168 433 755.168 415C755.168 389 740.868 377 726.168 377C711.368 377 697.168 389 697.168 415C697.168 433 706.768 449 726.168 449ZM726.168 431C718.768 431 714.968 422.1 714.968 411.9C714.968 400 718.468 389.7 725.768 389H726.568C733.768 389.7 737.368 400 737.368 411.9C737.368 422.9 733.568 431 726.168 431ZM761.23 448H783.23L781.93 441.9C779.63 430.8 778.43 419.5 778.43 408.2C778.43 405.8 778.53 403.4 778.63 401C786.03 415.9 791.63 431.7 795.23 448H817.23L815.93 434.2C815.23 426.7 814.83 419.1 814.83 411.6C814.83 400.4 815.63 389.1 817.23 378H797.23C799.13 388 800.03 398 800.03 408.1C800.03 413 799.83 418 799.33 422.9C794.73 414.1 790.83 405.1 787.53 395.7L781.23 378H761.23C762.83 389.1 763.63 400.4 763.63 411.6C763.63 419.1 763.23 426.7 762.53 434.2L761.23 448Z" fill="#ECA2FF"/>
<g id="QUOTE" clip-path="url(#clip0_96_7180)">
<path id="Vector" d="M48.2032 546.367C53.1561 543.365 57.8219 539.821 62.1201 535.797L62.6224 535.287C64.1956 538.028 65.9895 540.721 67.8838 543.214C69.7782 545.707 71.8949 548.16 74.1103 550.409C71.3711 551.98 68.7556 553.712 66.2621 555.606C69.292 558.759 71.8662 556.804 71.8662 556.804L75.2871 561.309C70.3002 565.096 64.8791 564.139 59.9908 560.875C58.875 560.075 57.7771 559.132 56.6811 558.188C55.542 557.026 54.2809 555.699 53.2422 554.333L47.5 546.772L48.2032 546.367ZM67.7511 531.521C72.7847 528.462 77.4505 524.918 81.6679 520.952L82.2509 520.385C83.8242 523.121 85.618 525.819 87.5124 528.311C89.4067 530.804 91.5217 533.254 93.7389 535.503C90.9996 537.074 88.3842 538.81 85.8907 540.703C88.9206 543.856 91.414 541.962 91.414 541.962L94.835 546.464C89.9287 550.19 84.4269 549.293 79.6193 545.972C78.5035 545.169 77.325 544.29 76.3096 543.286C75.0898 542.181 73.9094 540.797 72.8707 539.426L67.1268 531.869L67.7511 531.521Z" fill="#ECA2FF"/>
<path id="Vector_2" d="M108.197 547.547C97.7784 525.442 105.087 506.594 118.336 500.353C130.947 494.414 141.782 498.689 148.882 506.171L137.543 515.754C134.766 512.709 129.899 508.301 124.326 510.927C116.833 514.456 118.015 525.733 123.311 536.97C127.616 546.105 135.007 552.78 141.585 549.681C148.165 546.582 147.865 540.025 145.282 534.545C144.808 533.541 144.157 532.397 143.506 531.252C141.077 532.73 138.643 534.434 136.472 536.464L130.445 523.674C134.842 523.053 139.163 521.798 143.185 519.904C147.205 518.01 150.924 515.478 154.203 512.483L155.796 517.759C157.087 522.397 158.881 526.913 160.991 531.389C164.952 539.792 170.057 547.547 175.833 553.644L173.458 554.763C169.072 556.829 164.152 554.681 162.3 550.753C161.913 549.932 161.708 549.021 161.595 548.07C160.546 556.266 156.372 562.812 149.334 566.126C131.699 574.433 115.947 563.992 108.197 547.547Z" fill="#ECA2FF"/>
<path id="Vector_3" d="M173.952 539.484C172.745 531.973 171.22 524.441 169.327 517.107C166.502 506.153 162.869 495.303 158.503 484.852L178.067 479.809C178.732 490.067 180.374 500.073 182.921 509.951C184.663 516.698 186.794 523.344 189.39 529.768C192.134 529.893 194.877 529.606 197.518 528.925C202.605 527.612 207.314 524.836 211.106 520.937L213.15 518.742L219.204 542.21L176.162 553.307L173.952 539.484Z" fill="#ECA2FF"/>
<path id="Vector_4" d="M220.252 529.628C225.738 510.364 227.467 490.178 225.37 470.293L249.681 467.729C251.778 487.613 257.683 506.996 267.065 524.689L273.17 536.335L251.973 538.569L250.063 527.196C247.91 527.017 245.79 527.139 243.68 527.361C241.571 527.583 239.472 527.906 237.405 528.53L237.909 540.051L216.713 542.285L220.252 529.628ZM247.792 516.264C245.585 507.864 242.776 499.532 239.888 491.408C238.758 499.955 237.75 508.692 237.344 517.365C239.073 517.386 240.892 517.297 242.6 517.117C244.308 516.934 246.105 516.644 247.792 516.264Z" fill="#ECA2FF"/>
<path id="Vector_5" d="M272.703 522.802C275.055 503.969 275.191 484.87 272.994 466.111L272.995 466.007L297.24 466.696C311.467 467.704 325.07 480.013 324.395 503.847C323.88 522.024 313.725 537.909 294.127 537.353L270.995 536.701L272.703 522.802ZM290.599 519.162C295.209 520.607 300.115 518.724 302.555 514.65C304.889 510.776 306.151 505.453 306.3 500.203C306.55 491.415 304.709 484.999 301.991 480.978C299.665 477.477 295.465 475.842 291.399 476.634C289.18 490.723 288.878 504.966 290.399 519.058L290.599 519.162Z" fill="#ECA2FF"/>
<path id="Vector_6" d="M364.711 531.066C366.641 525.076 368.276 519.022 369.712 512.925L369.115 510.934C365.291 498.617 361.401 483.291 355.693 471.082L375.733 475.462C376.246 484.468 377.753 495.551 379.74 503.018C384.763 497.082 390.625 487.301 394.884 479.647L414.925 484.03C404.74 492.764 394.807 505.07 386.193 514.664L384.817 516.224C383.577 522.365 382.535 528.548 381.791 534.8L380.095 548.698L360.352 544.383L364.711 531.066Z" fill="#ECA2FF"/>
<path id="Vector_7" d="M402.7 519.538C410.833 494.564 428.23 487.477 442.45 492.107C456.575 496.702 466.562 512.702 458.428 537.676C452.797 554.964 436.552 566.674 419.928 561.266C401.288 555.201 397.069 536.83 402.7 519.538ZM442.296 529.133C446.018 517.702 445.78 506.68 439.081 503.757L438.314 503.506C431.079 501.895 424.495 510.697 420.773 522.128C417.582 531.923 418.448 541.661 425.559 543.974C432.67 546.291 438.853 539.699 442.296 529.133Z" fill="#ECA2FF"/>
<path id="Vector_8" d="M457.319 548.608C459.791 541.876 462.172 539.201 465.932 528.961C471.12 514.829 473.147 503.739 473.147 503.739L492.212 510.733C492.212 510.733 481.999 525.062 473.261 548.863C470.373 556.736 476.065 560.868 478.722 561.843C481.377 562.815 488.395 563.346 491.285 555.477C500.022 531.676 501.508 514.144 501.508 514.144L520.571 521.138C520.571 521.138 514.94 530.908 509.754 545.036C505.994 555.28 506.079 558.859 503.607 565.591C500.509 574.031 488.9 584.837 472.49 578.815C456.081 572.793 454.221 557.048 457.319 548.608Z" fill="#ECA2FF"/>
<path id="Vector_9" d="M529.209 564.444C534.879 540.671 552.363 530.51 566.611 533.907C580.173 537.138 585.967 547.242 586.839 557.521L571.995 557.927C571.729 553.816 570.678 547.335 564.685 545.908C556.627 543.985 550.506 553.533 547.623 565.616C545.28 575.44 546.882 585.271 553.957 586.957C561.034 588.643 564.896 583.335 566.303 577.442C566.559 576.359 566.766 575.06 566.972 573.758C564.15 573.396 561.183 573.209 558.221 573.439L561.502 559.684C565.325 561.944 569.485 563.662 573.808 564.695C578.131 565.724 582.62 566.068 587.052 565.774L585 570.892C583.113 575.322 581.694 579.967 580.546 584.78C578.39 593.818 577.534 603.065 578.239 611.433L575.683 610.823C570.967 609.7 568.464 604.952 569.473 600.726C569.682 599.841 570.09 599.005 570.595 598.191C564.656 603.94 557.306 606.444 549.74 604.639C530.773 600.12 524.992 582.129 529.209 564.444Z" fill="#ECA2FF"/>
<path id="Vector_10" d="M592.554 597.732C593.496 590.185 594.138 582.528 594.375 574.956C594.726 563.655 594.273 552.224 593.006 540.969L637.43 542.35L636.802 562.535L632.678 558.669C628.751 554.91 623.76 552.938 618.712 552.78C616.086 552.697 613.446 553.12 610.995 553.956C610.233 558.981 609.772 564.02 609.513 569.063C611.824 569.54 614.039 569.809 616.361 569.881C620.501 570.01 624.557 569.529 628.536 568.342L628.096 582.47C624.2 581.036 620.18 580.307 616.041 580.178C613.819 580.107 611.594 580.139 609.361 580.476C609.434 584.619 609.712 588.668 610.093 592.721C612.692 593.61 615.406 594.098 618.131 594.184C623.382 594.346 628.679 592.997 633.411 590.314L635.986 588.779L635.232 613L590.809 611.623L592.554 597.732Z" fill="#ECA2FF"/>
<path id="Vector_11" d="M662.637 595.784C662.149 588.191 661.349 580.548 660.161 573.066C658.963 565.484 657.345 557.866 655.443 550.398C649.549 552.557 644.042 555.886 639.338 560.412L636.491 542.457L688.379 534.24L691.224 552.195C685.351 549.34 679.083 547.88 672.808 547.647C673.31 555.337 674.128 563.084 675.33 570.663C676.514 578.145 678.114 585.662 680.002 593.037L683.478 606.594L663.523 609.758L662.637 595.784Z" fill="#ECA2FF"/>
<path id="Vector_12" d="M738.737 577.664C737.058 570.247 735.063 562.826 732.713 555.624C730.331 548.329 727.533 541.062 724.479 533.985C718.997 537.048 714.082 541.202 710.154 546.413L704.514 529.133L754.448 512.842L760.088 530.123C753.838 528.232 747.423 527.773 741.188 528.534C742.899 536.048 744.926 543.565 747.308 550.864C749.658 558.063 752.425 565.233 755.445 572.212L761.021 585.056L741.812 591.319L738.737 577.664Z" fill="#ECA2FF"/>
<path id="Vector_13" d="M765.322 548.239C756.651 523.455 766.187 507.279 780.301 502.347C794.319 497.444 811.956 504.116 820.628 528.9C826.633 546.058 820.814 565.211 804.318 570.982C785.819 577.449 771.328 565.398 765.322 548.239ZM802.621 531.88C798.653 520.535 791.786 511.917 784.685 513.653L783.921 513.918C777.194 517.021 777.295 528.007 781.263 539.351C784.664 549.075 791.258 556.291 798.312 553.823C805.369 551.356 806.291 542.368 802.621 531.88Z" fill="#ECA2FF"/>
<path id="Vector_14" d="M851.134 552.776L845.584 531.26C845.584 531.26 851.999 533.885 860.606 531.665C866.669 530.101 869.453 525.524 868.37 521.321C865.948 511.931 845.473 519.506 840.554 500.436C837.852 489.97 844.554 481.57 856.293 478.543C865.88 476.071 873.92 476.918 873.92 476.918L878.261 493.739C878.261 493.739 871.839 487.05 862.547 489.446C858.342 490.529 856.354 493.754 857.441 497.957C860.491 509.79 884.866 505.593 889.153 522.218C892.813 536.399 882.918 546.98 871.276 549.982C859.54 553.009 851.134 552.776 851.134 552.776Z" fill="#ECA2FF"/>
<path id="Vector_15" d="M894.431 528.677C894.148 521.073 893.552 513.409 892.569 505.898C891.098 494.683 888.816 483.471 885.756 472.564L929.835 466.796L932.458 486.824L927.765 483.668C923.284 480.587 918.038 479.443 913.03 480.096C910.425 480.44 907.889 481.279 905.6 482.495C905.657 487.581 906.012 492.627 906.568 497.649C908.922 497.749 911.154 497.66 913.457 497.358C917.565 496.82 921.493 495.694 925.228 493.883L927.065 507.903C922.99 507.11 918.903 507.035 914.795 507.573C912.592 507.86 910.4 508.251 908.251 508.94C908.987 513.018 909.912 516.974 910.938 520.912C913.647 521.375 916.406 521.421 919.111 521.066C924.321 520.385 929.333 518.201 933.573 514.793L935.866 512.864L939.016 536.898L894.937 542.669L894.431 528.677Z" fill="#ECA2FF"/>
<path id="Vector_16" d="M943.751 522.766C944.72 515.224 945.387 507.566 945.645 499.994C946.036 488.689 945.62 477.259 944.393 466L988.813 467.528L988.121 487.714L984.009 483.833C980.095 480.06 975.108 478.069 970.06 477.897C967.437 477.807 964.793 478.22 962.339 479.045C961.56 484.073 961.083 489.109 960.807 494.152C963.118 494.636 965.331 494.912 967.652 494.991C971.793 495.135 975.85 494.668 979.833 493.492L979.349 507.623C975.456 506.174 971.438 505.428 967.297 505.288C965.076 505.21 962.852 505.235 960.617 505.565C960.678 509.707 960.94 513.76 961.306 517.813C963.903 518.713 966.616 519.208 969.342 519.302C974.591 519.485 979.894 518.15 984.637 515.485L987.217 513.957L986.381 538.178L941.957 536.65L943.751 522.766Z" fill="#ECA2FF"/>
<path id="Vector_17" d="M1011.64 527.562C1014.23 520.41 1016.56 513.086 1018.47 505.755C1021.32 494.808 1023.41 483.56 1024.67 472.305L1044.23 477.391C1041.55 487.656 1041.25 498.431 1043.55 508.839L1044.84 515.123L1049.03 510.263C1056.11 502.297 1061.11 492.742 1063.78 482.481L1083.33 487.57C1078.94 498.011 1075.29 508.854 1072.43 519.8C1070.52 527.128 1068.98 534.66 1067.76 542.167L1065.52 555.986L1044.01 550.387L1046.83 544.756C1051.9 534.495 1055.93 523.853 1058.78 512.907L1040.26 532.716L1033.75 506.393C1030.9 517.34 1029.22 528.591 1028.64 540.026L1028.36 546.317L1006.86 540.721L1011.64 527.562Z" fill="#ECA2FF"/>
<path id="Vector_18" d="M1075.07 545.248C1078.55 538.487 1081.8 531.514 1084.62 524.488C1088.85 513.993 1092.36 503.104 1095.05 492.097L1136.29 508.692L1128.75 527.433L1126.21 522.383C1123.82 517.501 1119.81 513.929 1115.12 512.042C1112.68 511.063 1110.06 510.55 1107.47 510.489C1105.02 514.947 1102.85 519.52 1100.87 524.165C1102.88 525.41 1104.87 526.425 1107.02 527.293C1110.86 528.839 1114.84 529.785 1118.98 530.04L1113.7 543.157C1110.54 540.467 1107.02 538.397 1103.17 536.851C1101.11 536.019 1099.01 535.284 1096.8 534.828C1095.44 538.749 1094.3 542.647 1093.26 546.582C1095.4 548.314 1097.78 549.706 1100.31 550.725C1105.18 552.686 1110.62 553.242 1115.99 552.353L1118.94 551.797L1109.89 574.285L1068.64 557.69L1075.07 545.248Z" fill="#ECA2FF"/>
<path id="Vector_19" d="M1121.23 559.279C1126.24 562.378 1131.51 564.935 1137.04 566.943L1137.73 567.162C1134.27 572.445 1131.49 578.17 1129.49 584.16C1124.07 580.749 1118.43 578.016 1112.39 575.878C1115.85 570.595 1118.63 564.867 1120.63 558.881L1121.23 559.279ZM1125.17 553.221C1132.19 540.122 1138.08 526.36 1142.65 512.074L1160.83 520.883C1152.45 533.322 1145.29 546.467 1139.36 560.093L1125.17 553.221Z" fill="#ECA2FF"/>
<path id="Vector_20" d="M1181.01 531.572L1176.36 539.846C1175.52 541.345 1174.54 542.88 1173.48 544.139C1172.61 545.273 1171.57 546.309 1170.57 547.253C1166.26 551.205 1160.94 552.848 1155.56 549.828L1158.34 544.9C1158.34 544.9 1161.07 546.431 1163.64 542.895C1160.91 541.36 1158.08 540 1155.15 538.82C1157.04 536.288 1158.8 533.569 1160.33 530.84C1161.86 528.111 1163.27 525.195 1164.46 522.268L1165.11 522.752C1169.83 526.102 1174.94 528.971 1180.35 531.313L1181.01 531.572ZM1202.5 543.644L1197.85 551.922C1197.01 553.418 1195.94 554.903 1194.97 556.212C1194.01 557.299 1193.06 558.382 1192.06 559.329C1187.66 563.231 1182.43 564.921 1176.97 561.854L1179.74 556.922C1179.74 556.922 1182.56 558.508 1185.12 554.968C1182.4 553.432 1179.57 552.077 1176.64 550.893C1178.53 548.364 1180.28 545.646 1181.82 542.916C1183.36 540.187 1184.76 537.271 1185.95 534.344L1186.51 534.778C1191.32 538.175 1196.43 541.044 1201.75 543.34L1202.5 543.644Z" fill="#ECA2FF"/>
</g>
</g>
<defs>
<clipPath id="clip0_96_7180">
<rect width="1155" height="147" fill="white" transform="translate(47.5 466)"/>
</clipPath>
</defs>
</svg>
