<svg width="337" height="390" viewBox="0 0 337 390" fill="none" xmlns="http://www.w3.org/2000/svg">
<path d="M91.7189 39H97.7189L97.3289 34.86C97.1189 32.61 96.9989 30.33 96.9989 28.08C96.9989 25.8 97.1189 23.49 97.3289 21.21C99.1589 21.57 100.929 22.29 102.519 23.4V18H86.9189V23.4C88.5089 22.29 90.2789 21.57 92.1089 21.21C92.3189 23.49 92.4389 25.8 92.4389 28.08C92.4389 30.33 92.3189 32.61 92.1089 34.86L91.7189 39ZM104.629 39H111.229L110.839 37.17C110.329 34.65 109.999 32.13 109.849 29.58C110.509 29.49 111.169 29.43 111.829 29.43C112.699 29.43 113.539 29.52 114.409 29.7C114.259 32.22 113.929 34.71 113.419 37.17L113.029 39H119.629L119.239 34.86C119.029 32.61 118.909 30.33 118.909 28.08C118.909 24.72 119.149 21.33 119.629 18H113.629C114.139 20.67 114.409 23.37 114.469 26.07C113.599 26.28 112.699 26.37 111.829 26.37C111.139 26.37 110.479 26.31 109.789 26.19C109.849 23.46 110.119 20.7 110.629 18H104.629C105.109 21.33 105.349 24.72 105.349 28.08C105.349 30.33 105.229 32.61 105.019 34.86L104.629 39ZM122.633 39H135.833V31.8L135.083 32.28C133.703 33.12 132.143 33.57 130.583 33.57C129.773 33.57 128.963 33.45 128.183 33.21C128.033 32.01 127.913 30.81 127.853 29.58C128.513 29.46 129.173 29.43 129.833 29.43C131.063 29.43 132.263 29.61 133.433 30V25.8C132.263 26.19 131.063 26.37 129.833 26.37C129.143 26.37 128.483 26.31 127.793 26.19C127.823 24.69 127.913 23.19 128.093 21.69C128.813 21.42 129.593 21.27 130.373 21.27C131.873 21.27 133.373 21.81 134.573 22.89L135.833 24V18H122.633C123.113 21.33 123.353 24.72 123.353 28.08C123.353 30.33 123.233 32.61 123.023 34.86L122.633 39ZM144.82 39H151.15L151.36 35.58C151.99 35.46 152.62 35.43 153.25 35.43C153.88 35.43 154.51 35.46 155.14 35.58L155.35 39H161.68L160.24 35.37C158.02 29.85 156.88 23.94 156.88 18H149.62C149.62 23.94 148.48 29.85 146.26 35.37L144.82 39ZM153.25 32.37C152.74 32.37 152.2 32.34 151.69 32.28C152.08 29.73 152.65 27.18 153.25 24.69C153.85 27.18 154.42 29.73 154.81 32.28C154.3 32.34 153.76 32.37 153.25 32.37ZM163.021 39H169.621L169.231 37.17C168.541 33.84 168.181 30.45 168.181 27.06C168.181 26.34 168.211 25.62 168.241 24.9C170.461 29.37 172.141 34.11 173.221 39H179.821L179.431 34.86C179.221 32.61 179.101 30.33 179.101 28.08C179.101 24.72 179.341 21.33 179.821 18H173.821C174.391 21 174.661 24 174.661 27.03C174.661 28.5 174.601 30 174.451 31.47C173.071 28.83 171.901 26.13 170.911 23.31L169.021 18H163.021C163.501 21.33 163.741 24.72 163.741 28.08C163.741 30.33 163.621 32.61 163.411 34.86L163.021 39ZM183.163 39H189.763L189.373 37.17C188.683 33.84 188.323 30.45 188.323 27.06C188.323 26.34 188.353 25.62 188.383 24.9C190.603 29.37 192.283 34.11 193.363 39H199.963L199.573 34.86C199.363 32.61 199.243 30.33 199.243 28.08C199.243 24.72 199.483 21.33 199.963 18H193.963C194.533 21 194.803 24 194.803 27.03C194.803 28.5 194.743 30 194.593 31.47C193.213 28.83 192.043 26.13 191.053 23.31L189.163 18H183.163C183.643 21.33 183.883 24.72 183.883 28.08C183.883 30.33 183.763 32.61 183.553 34.86L183.163 39ZM210.512 39C215.702 39 217.832 34.8 217.832 32.13C217.832 30 217.442 29.01 217.442 25.77C217.442 21.3 218.012 18 218.012 18H211.982C211.982 18 213.362 23.04 213.362 30.57C213.362 33.06 211.352 33.63 210.512 33.63C209.672 33.63 207.662 33.06 207.662 30.57C207.662 23.04 209.042 18 209.042 18H203.012C203.012 18 203.582 21.3 203.582 25.77C203.582 29.01 203.192 30 203.192 32.13C203.192 34.8 205.322 39 210.512 39ZM218.328 39H224.658L224.868 35.58C225.498 35.46 226.128 35.43 226.758 35.43C227.388 35.43 228.018 35.46 228.648 35.58L228.858 39H235.188L233.748 35.37C231.528 29.85 230.388 23.94 230.388 18H223.128C223.128 23.94 221.988 29.85 219.768 35.37L218.328 39ZM226.758 32.37C226.248 32.37 225.708 32.34 225.198 32.28C225.588 29.73 226.158 27.18 226.758 24.69C227.358 27.18 227.928 29.73 228.318 32.28C227.808 32.34 227.268 32.37 226.758 32.37ZM236.382 39H249.582V31.8L248.832 32.28C247.452 33.12 245.892 33.57 244.332 33.57C243.522 33.57 242.712 33.45 241.932 33.21C241.662 31.17 241.542 29.1 241.542 27.03C241.542 24 241.812 21 242.382 18H236.382C236.862 21.33 237.102 24.72 237.102 28.08C237.102 30.33 236.982 32.61 236.772 34.86L236.382 39Z" fill="#0F0D98"/>
<path d="M25.1952 128H47.244C70.1949 128 77.2104 118.278 77.2104 106.152C77.2104 95.2274 68.9922 90.6172 65.4844 89.2141C70.4955 86.5081 73.3017 81.7976 73.3017 74.8823C73.3017 65.4614 64.9833 57.8445 54.5602 57.8445H25.1952C27.9011 76.4859 28.302 95.4278 26.498 114.169L25.1952 128ZM42.5336 85.2052C42.5336 83.6016 42.5336 81.9981 42.6338 80.595C42.8342 76.2854 43.1349 72.0761 43.7362 67.7665C49.5491 67.1652 55.362 69.3701 55.362 76.7865C55.362 88.4123 42.5336 85.2052 42.5336 85.2052ZM49.2484 110.862C46.8431 110.862 45.1393 110.662 43.9367 110.461C43.3353 105.851 42.9345 101.14 42.6338 96.5303C44.3376 96.2296 46.5425 96.0292 49.1482 96.0292C55.362 96.0292 59.2707 98.9356 59.2707 103.245C59.2707 108.858 55.1616 110.862 49.2484 110.862ZM110.295 128C127.634 128 134.75 113.969 134.75 105.049C134.75 97.9334 133.447 94.6261 133.447 83.8021C133.447 68.869 135.351 57.8445 135.351 57.8445H115.206C115.206 57.8445 119.817 74.6819 119.817 99.8376C119.817 108.156 113.102 110.06 110.295 110.06C107.489 110.06 100.774 108.156 100.774 99.8376C100.774 74.6819 105.385 57.8445 105.385 57.8445H85.2399C85.2399 57.8445 87.1441 68.869 87.1441 83.8021C87.1441 94.6261 85.8412 97.9334 85.8412 105.049C85.8412 113.969 92.957 128 110.295 128ZM145.385 128H167.434L166.131 121.886C164.327 113.368 163.224 104.648 162.824 96.0292C166.331 95.9289 175.351 96.6305 175.452 107.855C175.452 114.67 174.75 121.385 173.447 128H195.496C194.093 121.285 193.492 114.57 193.492 107.755V107.054C193.492 97.4323 188.18 93.9245 181.866 92.7218C189.182 89.1138 193.492 81.6974 193.492 74.8823C193.492 65.4614 185.073 57.8445 174.75 57.8445H145.385C147.991 76.4859 148.492 95.4278 146.688 114.169L145.385 128ZM162.723 85.8065C162.723 83.4012 162.723 81.1963 162.824 79.1919C163.024 75.3834 163.325 71.575 163.826 67.7665C169.639 67.1652 175.552 69.3701 175.552 76.7865C175.552 88.4123 162.723 85.8065 162.723 85.8065ZM229.556 129.002C243.086 129.002 253.509 118.88 257.217 105.65L239.778 99.4367C238.375 106.051 234.868 110.962 229.556 110.962C222.34 110.962 218.531 101.842 218.531 91.8198C218.531 79.8934 222.039 69.5705 229.155 68.869H229.957C234.266 69.3701 237.173 73.1785 238.876 78.791L254.712 74.281C249.4 62.4548 239.478 56.8423 229.556 56.8423C215.024 56.8423 200.491 68.869 200.491 94.9267C200.491 112.967 210.514 129.002 229.556 129.002ZM261.271 128H283.319L282.017 121.886C280.313 113.468 279.21 105.049 278.709 96.5303C280.914 96.2296 283.119 96.0292 285.324 96.0292C288.23 96.0292 291.037 96.3298 293.943 96.9312C293.442 105.35 292.339 113.668 290.636 121.886L289.333 128H311.382L310.079 114.169C309.377 106.653 308.976 99.0358 308.976 91.5192C308.976 80.2943 309.778 68.9692 311.382 57.8445H291.337C293.041 66.7643 293.943 75.7843 294.143 84.8043C291.237 85.5058 288.23 85.8065 285.324 85.8065C283.019 85.8065 280.814 85.6061 278.509 85.2052C278.709 76.085 279.611 66.8645 281.315 57.8445H261.271C262.874 68.9692 263.676 80.2943 263.676 91.5192C263.676 99.0358 263.275 106.653 262.573 114.169L261.271 128ZM20.9314 218H42.9803L41.6774 211.886C39.9736 203.468 38.8712 195.049 38.37 186.53C40.5749 186.129 42.7798 186.029 44.9847 186.029C49.0938 186.029 53.1027 186.63 57.0113 187.933V173.902C53.1027 175.205 49.0938 175.807 44.9847 175.807C42.6796 175.807 40.4747 175.606 38.1696 175.205C38.2698 170.194 38.5705 165.183 39.1718 160.172C41.5771 159.27 44.1829 158.769 46.7887 158.769C51.7998 158.769 56.8109 160.573 60.8198 164.181L65.0291 167.889V147.845H20.9314C22.535 158.969 23.3367 170.294 23.3367 181.519C23.3367 189.036 22.9358 196.653 22.2343 204.169L20.9314 218ZM62.9973 218H84.1441L84.8457 206.575C86.9503 206.174 89.055 206.074 91.1597 206.074C93.2643 206.074 95.369 206.174 97.4737 206.575L98.1752 218H119.322L114.511 205.873C107.095 187.432 103.287 167.689 103.287 147.845H79.0328C79.0328 167.689 75.2244 187.432 67.8079 205.873L62.9973 218ZM91.1597 195.851C89.4559 195.851 87.6519 195.751 85.9481 195.55C87.251 187.031 89.1552 178.513 91.1597 170.194C93.1641 178.513 95.0683 187.031 96.3712 195.55C94.6674 195.751 92.8634 195.851 91.1597 195.851ZM123.8 218H145.849L144.546 211.886C142.241 200.762 141.038 189.537 141.038 178.312L153.867 201.964L166.695 178.312C166.695 189.537 165.492 200.762 163.187 211.886L161.884 218H183.933L182.63 204.169C181.929 196.653 181.528 189.036 181.528 181.519C181.528 170.294 182.33 158.969 183.933 147.845H163.889C163.889 158.368 161.483 168.791 156.673 178.212L153.867 183.924L151.06 178.212C146.25 168.791 143.844 158.368 143.844 147.845H123.8C125.404 158.969 126.205 170.294 126.205 181.519C126.205 189.036 125.804 196.653 125.103 204.169L123.8 218ZM194.883 218H214.928L213.625 204.169C212.923 196.653 212.522 189.036 212.522 181.519C212.522 170.294 213.324 158.969 214.928 147.845H194.883C196.487 158.969 197.289 170.294 197.289 181.519C197.289 189.036 196.888 196.653 196.186 204.169L194.883 218ZM223.928 218H268.026V193.947L265.52 195.55C260.91 198.356 255.698 199.86 250.487 199.86C247.781 199.86 245.075 199.459 242.469 198.657C241.567 191.842 241.166 184.927 241.166 178.011C241.166 167.889 242.068 157.867 243.972 147.845H223.928C225.532 158.969 226.333 170.294 226.333 181.519C226.333 189.036 225.933 196.653 225.231 204.169L223.928 218ZM277.504 218H297.548L296.245 204.169C295.644 197.956 295.343 191.742 295.243 185.528L296.245 183.724C302.559 172.599 309.575 158.568 317.593 147.945H297.248C294.742 156.263 291.134 166.987 287.526 173.802C284.018 166.987 280.21 156.564 277.804 147.945H257.459C265.577 158.568 272.593 172.599 278.907 183.724L279.909 185.528C279.809 191.742 279.508 197.956 278.907 204.169L277.504 218Z" fill="#0F0D98"/>
<path d="M110.526 259H117.126L116.736 257.17C116.196 254.62 115.866 252.01 115.746 249.43C116.796 249.4 119.496 249.61 119.526 252.97C119.526 255.01 119.316 257.02 118.926 259H125.526C125.106 256.99 124.926 254.98 124.926 252.94V252.73C124.926 249.85 123.336 248.8 121.446 248.44C123.636 247.36 124.926 245.14 124.926 243.1C124.926 240.28 122.406 238 119.316 238H110.526C111.306 243.58 111.456 249.25 110.916 254.86L110.526 259ZM115.716 246.37C115.716 245.65 115.716 244.99 115.746 244.39C115.806 243.25 115.896 242.11 116.046 240.97C117.786 240.79 119.556 241.45 119.556 243.67C119.556 247.15 115.716 246.37 115.716 246.37ZM127.914 259H141.114V251.8L140.364 252.28C138.984 253.12 137.424 253.57 135.864 253.57C135.054 253.57 134.244 253.45 133.464 253.21C133.314 252.01 133.194 250.81 133.134 249.58C133.794 249.46 134.454 249.43 135.114 249.43C136.344 249.43 137.544 249.61 138.714 250V245.8C137.544 246.19 136.344 246.37 135.114 246.37C134.424 246.37 133.764 246.31 133.074 246.19C133.104 244.69 133.194 243.19 133.374 241.69C134.094 241.42 134.874 241.27 135.654 241.27C137.154 241.27 138.654 241.81 139.854 242.89L141.114 244V238H127.914C128.394 241.33 128.634 244.72 128.634 248.08C128.634 250.33 128.514 252.61 128.304 254.86L127.914 259ZM151.601 259C156.791 259 158.921 254.8 158.921 252.13C158.921 250 158.531 249.01 158.531 245.77C158.531 241.3 159.101 238 159.101 238H153.071C153.071 238 154.451 243.04 154.451 250.57C154.451 253.06 152.441 253.63 151.601 253.63C150.761 253.63 148.751 253.06 148.751 250.57C148.751 243.04 150.131 238 150.131 238H144.101C144.101 238 144.671 241.3 144.671 245.77C144.671 249.01 144.281 250 144.281 252.13C144.281 254.8 146.411 259 151.601 259ZM161.812 259H168.412L168.022 257.17C167.332 253.84 166.972 250.45 166.972 247.06C166.972 246.34 167.002 245.62 167.032 244.9C169.252 249.37 170.932 254.11 172.012 259H178.612L178.222 254.86C178.012 252.61 177.892 250.33 177.892 248.08C177.892 244.72 178.132 241.33 178.612 238H172.612C173.182 241 173.452 244 173.452 247.03C173.452 248.5 173.392 250 173.242 251.47C171.862 248.83 170.692 246.13 169.702 243.31L167.812 238H161.812C162.292 241.33 162.532 244.72 162.532 248.08C162.532 250.33 162.412 252.61 162.202 254.86L161.812 259ZM181.8 259H187.8L187.41 254.86C187.2 252.61 187.08 250.33 187.08 248.08C187.08 244.72 187.32 241.33 187.8 238H181.8C182.28 241.33 182.52 244.72 182.52 248.08C182.52 250.33 182.4 252.61 182.19 254.86L181.8 259ZM198.595 259.3C203.785 259.3 207.295 254.5 207.295 249.1C207.295 241.3 203.005 237.7 198.595 237.7C194.155 237.7 189.895 241.3 189.895 249.1C189.895 254.5 192.775 259.3 198.595 259.3ZM198.595 253.9C196.375 253.9 195.235 251.23 195.235 248.17C195.235 244.6 196.285 241.51 198.475 241.3H198.715C200.875 241.51 201.955 244.6 201.955 248.17C201.955 251.47 200.815 253.9 198.595 253.9ZM209.113 259H215.713L215.323 257.17C214.633 253.84 214.273 250.45 214.273 247.06C214.273 246.34 214.303 245.62 214.333 244.9C216.553 249.37 218.233 254.11 219.313 259H225.913L225.523 254.86C225.313 252.61 225.193 250.33 225.193 248.08C225.193 244.72 225.433 241.33 225.913 238H219.913C220.483 241 220.753 244 220.753 247.03C220.753 248.5 220.693 250 220.543 251.47C219.163 248.83 217.993 246.13 217.003 243.31L215.113 238H209.113C209.593 241.33 209.833 244.72 209.833 248.08C209.833 250.33 209.713 252.61 209.503 254.86L209.113 259Z" fill="#0F0D98"/>
<g clip-path="url(#clip0_68_5)">
<path d="M14.6753 292.397C15.9939 291.598 17.2362 290.654 18.3805 289.583L18.5143 289.447C18.9331 290.177 19.4107 290.894 19.9151 291.558C20.4195 292.221 20.983 292.875 21.5729 293.473C20.8436 293.892 20.1472 294.353 19.4833 294.857C20.29 295.696 20.9754 295.176 20.9754 295.176L21.8862 296.375C20.5584 297.384 19.1151 297.129 17.8136 296.26C17.5166 296.047 17.2243 295.796 16.9324 295.545C16.6292 295.235 16.2934 294.882 16.0169 294.518L14.488 292.505L14.6753 292.397ZM19.8798 288.445C21.2199 287.63 22.4622 286.687 23.585 285.63L23.7403 285.48C24.1591 286.208 24.6367 286.926 25.1411 287.59C25.6454 288.254 26.2085 288.906 26.7989 289.505C26.0695 289.923 25.3732 290.385 24.7093 290.889C25.516 291.729 26.1799 291.224 26.1799 291.224L27.0907 292.423C25.7844 293.415 24.3196 293.176 23.0396 292.292C22.7425 292.078 22.4288 291.844 22.1584 291.577C21.8337 291.283 21.5194 290.914 21.2428 290.549L19.7135 288.537L19.8798 288.445Z" fill="#0F0D98"/>
<path d="M30.6486 292.711C27.8746 286.826 29.8204 281.808 33.348 280.146C36.7056 278.565 39.5904 279.703 41.4807 281.695L38.4618 284.247C37.7224 283.436 36.4267 282.262 34.9427 282.961C32.9478 283.901 33.2625 286.903 34.6724 289.895C35.8187 292.327 37.7864 294.105 39.5378 293.279C41.2897 292.454 41.2099 290.709 40.5222 289.25C40.3961 288.982 40.2227 288.678 40.0493 288.373C39.4027 288.766 38.7545 289.22 38.1766 289.761L36.5719 286.355C37.7425 286.19 38.8931 285.856 39.9638 285.352C41.0342 284.847 42.0242 284.173 42.8973 283.376L43.3214 284.781C43.6653 286.015 44.1429 287.218 44.7046 288.409C45.7591 290.647 47.1184 292.711 48.6563 294.335L48.0239 294.633C46.8562 295.183 45.5461 294.611 45.0532 293.565C44.9501 293.346 44.8956 293.104 44.8655 292.851C44.5861 295.033 43.4747 296.775 41.6011 297.658C36.9057 299.869 32.7119 297.09 30.6486 292.711Z" fill="#0F0D98"/>
<path d="M48.1549 290.565C47.8335 288.565 47.4275 286.56 46.9236 284.607C46.1714 281.69 45.2042 278.802 44.0417 276.019L49.2505 274.676C49.4277 277.408 49.8647 280.072 50.543 282.702C51.0067 284.498 51.5741 286.267 52.2652 287.978C52.9959 288.011 53.7262 287.935 54.4292 287.753C55.7837 287.404 57.0375 286.665 58.0471 285.627L58.5911 285.042L60.203 291.29L48.7433 294.245L48.1549 290.565Z" fill="#0F0D98"/>
<path d="M60.4823 287.94C61.9429 282.812 62.4033 277.437 61.845 272.143L68.3175 271.46C68.8758 276.754 70.4481 281.915 72.946 286.626L74.5713 289.726L68.9279 290.321L68.4192 287.293C67.8461 287.245 67.2816 287.278 66.7199 287.337C66.1583 287.396 65.5994 287.482 65.0492 287.648L65.1834 290.716L59.54 291.31L60.4823 287.94ZM67.8146 284.382C67.2271 282.146 66.4792 279.928 65.7102 277.765C65.4093 280.04 65.1409 282.367 65.033 284.676C65.4934 284.681 65.9777 284.657 66.4324 284.61C66.8871 284.561 67.3656 284.484 67.8146 284.382Z" fill="#0F0D98"/>
<path d="M74.4471 286.123C75.0733 281.109 75.1096 276.024 74.5245 271.03L74.525 271.002L80.9798 271.185C84.7677 271.454 88.3895 274.731 88.2099 281.076C88.0728 285.916 85.3691 290.145 80.1512 289.997L73.9924 289.824L74.4471 286.123ZM79.2117 285.154C80.4392 285.539 81.7454 285.037 82.395 283.953C83.0163 282.921 83.3526 281.504 83.3922 280.106C83.4586 277.767 82.9686 276.058 82.245 274.988C81.6256 274.056 80.5075 273.62 79.4247 273.831C78.8339 277.582 78.7537 281.374 79.1587 285.126L79.2117 285.154Z" fill="#0F0D98"/>
<path d="M98.9437 288.323C99.4576 286.729 99.8927 285.117 100.275 283.493L100.116 282.963C99.0979 279.684 98.0625 275.604 96.5427 272.353L101.878 273.519C102.015 275.917 102.416 278.868 102.945 280.856C104.282 279.275 105.843 276.671 106.977 274.634L112.313 275.8C109.601 278.126 106.956 281.402 104.663 283.956L104.297 284.372C103.967 286.007 103.689 287.653 103.491 289.317L103.04 293.018L97.7831 291.869L98.9437 288.323Z" fill="#0F0D98"/>
<path d="M109.058 285.254C111.223 278.605 115.855 276.718 119.641 277.951C123.402 279.174 126.061 283.434 123.895 290.083C122.396 294.686 118.071 297.804 113.645 296.364C108.682 294.749 107.559 289.858 109.058 285.254ZM119.6 287.809C120.591 284.765 120.528 281.831 118.744 281.053L118.54 280.986C116.614 280.557 114.861 282.9 113.87 285.944C113.02 288.552 113.251 291.144 115.144 291.76C117.037 292.377 118.683 290.622 119.6 287.809Z" fill="#0F0D98"/>
<path d="M123.6 292.994C124.258 291.202 124.892 290.489 125.893 287.763C127.274 284 127.814 281.048 127.814 281.048L132.89 282.91C132.89 282.91 130.171 286.725 127.845 293.062C127.076 295.158 128.591 296.258 129.298 296.518C130.005 296.776 131.874 296.918 132.643 294.823C134.969 288.486 135.365 283.818 135.365 283.818L140.44 285.68C140.44 285.68 138.941 288.281 137.56 292.043C136.559 294.77 136.582 295.723 135.924 297.516C135.099 299.763 132.008 302.64 127.639 301.036C123.27 299.433 122.775 295.241 123.6 292.994Z" fill="#0F0D98"/>
<path d="M142.74 297.21C144.25 290.881 148.905 288.175 152.698 289.08C156.309 289.94 157.852 292.63 158.084 295.367L154.132 295.475C154.061 294.381 153.781 292.655 152.185 292.275C150.04 291.763 148.41 294.305 147.643 297.522C147.019 300.138 147.446 302.755 149.329 303.204C151.213 303.653 152.242 302.24 152.616 300.671C152.684 300.382 152.739 300.037 152.794 299.69C152.043 299.593 151.253 299.544 150.465 299.605L151.338 295.943C152.356 296.544 153.463 297.002 154.614 297.277C155.766 297.551 156.96 297.643 158.141 297.564L157.594 298.927C157.092 300.106 156.714 301.343 156.408 302.624C155.834 305.031 155.606 307.493 155.794 309.721L155.114 309.558C153.858 309.259 153.192 307.995 153.46 306.87C153.516 306.634 153.624 306.412 153.759 306.195C152.178 307.726 150.221 308.392 148.206 307.912C143.157 306.709 141.617 301.919 142.74 297.21Z" fill="#0F0D98"/>
<path d="M159.606 306.073C159.856 304.064 160.027 302.025 160.09 300.009C160.184 297 160.063 293.957 159.726 290.96L171.553 291.328L171.386 296.702L170.288 295.673C169.243 294.672 167.914 294.147 166.57 294.105C165.871 294.083 165.168 294.195 164.515 294.418C164.312 295.756 164.19 297.097 164.121 298.44C164.736 298.567 165.326 298.639 165.944 298.658C167.046 298.692 168.126 298.564 169.185 298.248L169.068 302.009C168.031 301.627 166.961 301.434 165.859 301.399C165.267 301.38 164.675 301.389 164.08 301.479C164.1 302.581 164.174 303.66 164.275 304.739C164.967 304.975 165.69 305.105 166.415 305.128C167.813 305.171 169.224 304.812 170.484 304.098L171.169 303.689L170.968 310.138L159.141 309.771L159.606 306.073Z" fill="#0F0D98"/>
<path d="M178.265 305.554C178.135 303.533 177.922 301.498 177.606 299.506C177.286 297.487 176.856 295.459 176.349 293.47C174.78 294.045 173.314 294.932 172.061 296.137L171.303 291.356L185.118 289.168L185.876 293.949C184.312 293.189 182.643 292.8 180.973 292.738C181.106 294.785 181.324 296.848 181.644 298.866C181.959 300.858 182.385 302.859 182.888 304.823L183.813 308.432L178.501 309.275L178.265 305.554Z" fill="#0F0D98"/>
<path d="M198.526 300.73C198.079 298.755 197.547 296.779 196.922 294.862C196.288 292.919 195.542 290.985 194.73 289.101C193.27 289.916 191.961 291.022 190.915 292.41L189.414 287.809L202.709 283.471L204.21 288.072C202.546 287.569 200.838 287.447 199.178 287.649C199.634 289.65 200.173 291.651 200.808 293.595C201.433 295.511 202.17 297.42 202.974 299.278L204.458 302.698L199.344 304.365L198.526 300.73Z" fill="#0F0D98"/>
<path d="M205.604 292.896C203.295 286.297 205.834 281.99 209.592 280.677C213.324 279.372 218.02 281.148 220.329 287.747C221.928 292.315 220.378 297.414 215.986 298.951C211.061 300.673 207.203 297.464 205.604 292.896ZM215.534 288.54C214.478 285.52 212.65 283.225 210.759 283.687L210.556 283.758C208.765 284.584 208.791 287.509 209.848 290.529C210.753 293.118 212.509 295.039 214.387 294.382C216.266 293.725 216.511 291.332 215.534 288.54Z" fill="#0F0D98"/>
<path d="M228.451 294.104L226.973 288.375C226.973 288.375 228.681 289.074 230.973 288.483C232.587 288.066 233.328 286.848 233.04 285.729C232.395 283.229 226.944 285.246 225.634 280.168C224.915 277.382 226.699 275.145 229.824 274.339C232.377 273.681 234.517 273.907 234.517 273.907L235.673 278.385C235.673 278.385 233.963 276.604 231.489 277.242C230.37 277.531 229.841 278.389 230.13 279.508C230.942 282.659 237.432 281.541 238.573 285.968C239.548 289.743 236.913 292.56 233.813 293.36C230.689 294.166 228.451 294.104 228.451 294.104Z" fill="#0F0D98"/>
<path d="M239.978 287.687C239.903 285.663 239.744 283.622 239.482 281.623C239.091 278.637 238.483 275.651 237.668 272.748L249.404 271.212L250.103 276.544L248.853 275.704C247.66 274.884 246.264 274.579 244.93 274.753C244.237 274.845 243.561 275.068 242.952 275.392C242.967 276.746 243.062 278.089 243.21 279.426C243.836 279.453 244.43 279.429 245.044 279.349C246.137 279.206 247.183 278.906 248.178 278.424L248.667 282.156C247.582 281.945 246.494 281.925 245.4 282.069C244.813 282.145 244.23 282.249 243.658 282.432C243.853 283.518 244.1 284.571 244.373 285.62C245.094 285.743 245.829 285.756 246.549 285.661C247.936 285.48 249.271 284.898 250.4 283.991L251.01 283.477L251.849 289.876L240.113 291.413L239.978 287.687Z" fill="#0F0D98"/>
<path d="M253.11 286.114C253.368 284.105 253.545 282.067 253.614 280.051C253.718 277.041 253.607 273.998 253.281 271L265.107 271.407L264.923 276.781L263.828 275.748C262.786 274.743 261.458 274.213 260.114 274.167C259.416 274.144 258.712 274.253 258.059 274.473C257.851 275.812 257.724 277.153 257.651 278.495C258.266 278.624 258.855 278.698 259.473 278.719C260.576 278.757 261.656 278.633 262.716 278.32L262.587 282.082C261.551 281.696 260.481 281.498 259.379 281.46C258.787 281.439 258.195 281.446 257.6 281.534C257.616 282.637 257.686 283.716 257.784 284.795C258.475 285.035 259.197 285.166 259.923 285.191C261.321 285.24 262.733 284.885 263.995 284.175L264.682 283.768L264.46 290.217L252.632 289.81L253.11 286.114Z" fill="#0F0D98"/>
<path d="M271.184 287.39C271.875 285.486 272.494 283.536 273.002 281.584C273.762 278.67 274.318 275.675 274.655 272.679L279.861 274.033C279.149 276.766 279.069 279.634 279.681 282.406L280.024 284.079L281.139 282.785C283.025 280.664 284.355 278.12 285.067 275.388L290.273 276.743C289.103 279.523 288.13 282.41 287.371 285.324C286.862 287.275 286.452 289.28 286.126 291.279L285.529 294.958L279.802 293.468L280.554 291.968C281.905 289.236 282.977 286.403 283.735 283.489L278.804 288.763L277.071 281.754C276.313 284.669 275.866 287.665 275.712 290.709L275.638 292.384L269.911 290.894L271.184 287.39Z" fill="#0F0D98"/>
<path d="M288.071 292.099C289 290.299 289.863 288.443 290.616 286.572C291.741 283.778 292.676 280.879 293.392 277.948L304.372 282.367L302.363 287.356L301.687 286.012C301.051 284.712 299.984 283.761 298.735 283.258C298.087 282.998 297.388 282.861 296.699 282.845C296.046 284.032 295.47 285.249 294.942 286.486C295.476 286.817 296.005 287.088 296.579 287.319C297.603 287.73 298.661 287.982 299.764 288.05L298.358 291.542C297.516 290.826 296.578 290.275 295.555 289.864C295.005 289.642 294.446 289.446 293.857 289.325C293.495 290.369 293.193 291.407 292.916 292.454C293.485 292.916 294.119 293.286 294.792 293.557C296.089 294.08 297.539 294.228 298.968 293.991L299.752 293.843L297.342 299.83L286.361 295.412L288.071 292.099Z" fill="#0F0D98"/>
<path d="M300.361 295.835C301.695 296.66 303.099 297.341 304.573 297.876L304.754 297.934C303.833 299.34 303.094 300.864 302.56 302.459C301.118 301.551 299.616 300.823 298.01 300.254C298.93 298.848 299.67 297.323 300.203 295.729L300.361 295.835ZM301.412 294.222C303.281 290.735 304.848 287.071 306.064 283.267L310.906 285.612C308.674 288.924 306.768 292.424 305.188 296.052L301.412 294.222Z" fill="#0F0D98"/>
<path d="M316.279 288.458L315.04 290.661C314.817 291.06 314.556 291.469 314.274 291.804C314.043 292.106 313.765 292.382 313.499 292.633C312.352 293.685 310.935 294.123 309.504 293.319L310.242 292.007C310.242 292.007 310.969 292.414 311.653 291.473C310.926 291.064 310.173 290.702 309.393 290.388C309.895 289.714 310.364 288.99 310.773 288.263C311.181 287.537 311.556 286.76 311.871 285.981L312.045 286.11C313.303 287.002 314.663 287.766 316.101 288.389L316.279 288.458ZM322 291.672L320.762 293.876C320.537 294.275 320.254 294.67 319.996 295.018C319.741 295.308 319.486 295.596 319.221 295.848C318.05 296.887 316.655 297.337 315.201 296.521L315.94 295.208C315.94 295.208 316.69 295.63 317.374 294.687C316.648 294.278 315.894 293.917 315.115 293.602C315.617 292.929 316.085 292.205 316.494 291.478C316.903 290.752 317.277 289.975 317.592 289.196L317.743 289.312C319.024 290.216 320.384 290.98 321.799 291.591L322 291.672Z" fill="#0F0D98"/>
</g>
<g clip-path="url(#clip1_68_5)">
<path d="M52.7623 316.817L55.4277 313.665L58.8551 315.421L62.0535 312.402L64.9702 314.488L68.651 311.649L71.0112 314.035L75.1163 311.42L76.8826 314.066L81.3474 311.718L82.492 314.583L87.246 312.537L87.7509 315.576L92.7191 313.866L92.5763 317.031L97.6804 315.683L96.8921 318.924L102.052 317.959L100.63 321.225L105.764 320.659L103.732 323.898L108.759 323.74L106.148 326.901L110.989 327.153L107.841 330.187L112.419 330.845L108.783 333.704L113.026 334.758L108.96 337.396L112.802 338.829L108.369 341.205L111.749 342.994L107.02 345.071L109.884 347.189L104.933 348.933L107.236 351.346L102.142 352.73L103.848 355.4L98.6904 356.403L99.7725 359.287L94.6327 359.892L95.0739 362.946L90.0332 363.145L89.8264 366.319L84.9641 366.108L84.1127 369.353L79.5056 368.735L78.0228 372L73.7436 370.985L71.653 374.219L67.7691 372.823L65.1036 375.974L61.6762 374.219L58.4778 377.237L55.5611 375.151L51.8803 377.99L49.5202 375.605L45.415 378.219L43.6487 375.573L39.1839 377.922L38.0393 375.057L33.2853 377.102L32.7804 374.063L27.8122 375.773L27.955 372.609L22.8509 373.957L23.6392 370.716L18.4796 371.68L19.9009 368.414L14.7674 368.98L16.7993 365.741L11.7726 365.899L14.3831 362.738L9.54266 362.486L12.6905 359.452L8.11263 358.794L11.7483 355.935L7.50508 354.882L11.5711 352.243L7.7296 350.811L12.1619 348.434L8.78264 346.645L13.5114 344.568L10.6476 342.451L15.5981 340.706L13.2951 338.294L18.3893 336.909L16.6833 334.24L21.841 333.237L20.7588 330.352L25.8986 329.747L25.4574 326.693L30.4982 326.495L30.7049 323.32L35.5672 323.532L36.4187 320.286L41.0258 320.904L42.5085 317.639L46.7877 318.654L48.8783 315.42L52.7623 316.817Z" fill="#0F0D98"/>
<path d="M66.6705 368.723C90.7733 362.265 107.445 346.327 103.908 333.126C100.37 319.924 77.9635 314.458 53.8607 320.916C29.7579 327.375 13.0863 343.312 16.6237 356.513C20.161 369.715 42.5677 375.181 66.6705 368.723Z" fill="white"/>
<path d="M26.865 351.329C26.7454 350.992 26.5446 350.759 26.2627 350.628C25.9842 350.496 25.6128 350.492 25.1487 350.617C24.853 350.696 24.6203 350.797 24.4505 350.92C24.2833 351.038 24.1711 351.17 24.1139 351.314C24.0568 351.458 24.0472 351.608 24.0852 351.764C24.1124 351.893 24.1657 352.002 24.2449 352.092C24.3266 352.177 24.437 352.245 24.576 352.296C24.7141 352.344 24.883 352.376 25.0827 352.392C25.2824 352.409 25.5147 352.409 25.7795 352.393L26.6957 352.347C27.3133 352.314 27.8573 352.343 28.3277 352.435C28.7981 352.526 29.2025 352.674 29.5409 352.878C29.8784 353.079 30.1547 353.333 30.3697 353.64C30.5881 353.946 30.7529 354.3 30.8641 354.701C31.0468 355.397 31.0307 356.031 30.8159 356.605C30.601 357.178 30.2075 357.676 29.6352 358.098C29.0664 358.52 28.335 358.85 27.4411 359.09C26.5231 359.336 25.6856 359.415 24.9287 359.326C24.1751 359.237 23.5337 358.961 23.0044 358.499C22.4777 358.032 22.0942 357.357 21.854 356.474L24.577 355.745C24.6808 356.063 24.8344 356.313 25.0377 356.495C25.2411 356.676 25.4886 356.788 25.7803 356.832C26.0755 356.874 26.4053 356.847 26.7697 356.749C27.0757 356.667 27.3217 356.561 27.5077 356.43C27.6938 356.299 27.8221 356.152 27.8928 355.989C27.9634 355.827 27.9774 355.659 27.9348 355.486C27.8881 355.325 27.797 355.199 27.6616 355.106C27.5287 355.009 27.3342 354.943 27.0781 354.909C26.821 354.871 26.485 354.861 26.07 354.88L24.9571 354.935C23.9676 354.983 23.1393 354.842 22.4724 354.512C21.808 354.178 21.367 353.598 21.1493 352.772C20.9662 352.102 20.9879 351.468 21.2144 350.869C21.4435 350.266 21.8417 349.738 22.4091 349.284C22.9799 348.828 23.683 348.489 24.5185 348.265C25.3712 348.037 26.1469 347.982 26.8457 348.1C27.5445 348.219 28.1319 348.493 28.6079 348.922C29.0865 349.346 29.4201 349.903 29.6087 350.594L26.865 351.329ZM40.8814 348.281L37.9727 349.06C37.8876 348.825 37.7741 348.621 37.6322 348.449C37.4937 348.276 37.3283 348.14 37.1358 348.04C36.9458 347.937 36.7324 347.876 36.4955 347.858C36.2577 347.837 36.0013 347.864 35.7262 347.937C35.2449 348.066 34.8688 348.292 34.5979 348.615C34.3305 348.938 34.1693 349.34 34.1144 349.823C34.063 350.305 34.1192 350.852 34.2832 351.464C34.4564 352.11 34.6875 352.628 34.9764 353.019C35.2678 353.405 35.608 353.664 35.997 353.796C36.3851 353.924 36.8113 353.926 37.2754 353.801C37.5402 353.73 37.7686 353.634 37.9609 353.513C38.1522 353.388 38.3081 353.241 38.4288 353.072C38.5494 352.904 38.6339 352.717 38.6823 352.512C38.7331 352.303 38.7454 352.081 38.719 351.845L41.6332 351.086C41.7186 351.542 41.7151 352.031 41.6229 352.554C41.5297 353.072 41.3363 353.581 41.0425 354.08C40.7512 354.574 40.3451 355.019 39.8241 355.412C39.3032 355.806 38.656 356.107 37.8824 356.314C36.9128 356.574 35.9872 356.599 35.1056 356.389C34.2274 356.179 33.4566 355.729 32.7931 355.041C32.1331 354.352 31.6465 353.423 31.3332 352.254C31.0182 351.078 30.9798 350.027 31.218 349.101C31.4554 348.171 31.9039 347.397 32.5635 346.778C33.2221 346.156 34.0259 345.718 34.9749 345.463C35.6419 345.285 36.28 345.211 36.8893 345.243C37.4985 345.275 38.0616 345.41 38.5784 345.647C39.0944 345.881 39.5495 346.218 39.9437 346.658C40.3379 347.098 40.6505 347.639 40.8814 348.281ZM43.9512 354.533L41.1211 343.971L43.9885 343.203L45.094 347.329L48.8898 346.312L47.7843 342.186L50.6517 341.417L53.4818 351.98L50.6144 352.748L49.5088 348.622L45.7131 349.639L46.8186 353.765L43.9512 354.533ZM54.8433 351.615L52.0132 341.053L59.6253 339.013L60.2444 341.323L55.4997 342.595L55.9862 344.41L60.3389 343.244L60.958 345.554L56.6052 346.721L57.0917 348.536L61.8157 347.27L62.4348 349.581L54.8433 351.615ZM67.9415 348.105L63.8775 349.194L61.0474 338.632L65.0701 337.554C66.1566 337.263 67.1519 337.223 68.056 337.434C68.9626 337.641 69.7367 338.082 70.3784 338.757C71.0225 339.429 71.492 340.314 71.7868 341.414C72.0816 342.515 72.1201 343.518 71.9022 344.424C71.6834 345.326 71.237 346.094 70.563 346.728C69.888 347.359 69.0142 347.818 67.9415 348.105ZM66.0927 345.991L67.1861 345.698C67.7087 345.558 68.1314 345.355 68.4541 345.088C68.7803 344.82 68.9844 344.454 69.0664 343.99C69.1518 343.525 69.0959 342.924 68.8988 342.188C68.7016 341.453 68.4481 340.905 68.1381 340.546C67.8316 340.186 67.4649 339.973 67.0381 339.907C66.6148 339.839 66.1281 339.88 65.578 340.027L64.5671 340.298L66.0927 345.991ZM77.9491 334.103L80.8165 333.335L82.6296 340.101C82.8451 340.906 82.8392 341.653 82.6116 342.345C82.3866 343.031 81.9748 343.626 81.3763 344.129C80.7769 344.629 80.025 345 79.1208 345.242C78.2097 345.486 77.3696 345.542 76.6007 345.409C75.8308 345.273 75.1767 344.963 74.6385 344.481C74.1028 343.994 73.7271 343.349 73.5115 342.544L71.6985 335.778L74.5659 335.01L76.3126 341.528C76.4002 341.855 76.5507 342.128 76.7642 342.347C76.9767 342.563 77.2296 342.709 77.5227 342.785C77.8193 342.86 78.1308 342.854 78.4575 342.767C78.7875 342.678 79.0604 342.528 79.2762 342.315C79.4919 342.103 79.6379 341.85 79.7141 341.557C79.7894 341.26 79.7833 340.949 79.6958 340.622L77.9491 334.103ZM85.0094 343.532L82.1793 332.97L85.0468 332.201L87.2578 340.453L91.528 339.309L92.1471 341.619L85.0094 343.532ZM93.3062 341.309L90.4761 330.747L98.0882 328.707L98.7073 331.017L93.9626 332.289L94.449 334.104L98.8018 332.938L99.4209 335.248L95.0681 336.414L95.5546 338.23L100.279 336.964L100.898 339.274L93.3062 341.309Z" fill="#0F0D98"/>
</g>
<g clip-path="url(#clip2_68_5)">
<path d="M168.244 328.735L171.634 326.381L174.491 328.964L178.361 326.875L180.639 329.646L184.929 327.856L186.591 330.771L191.233 329.308L192.255 332.321L197.175 331.208L197.539 334.272L202.661 333.527L202.362 336.593L207.603 336.227L206.646 339.246L211.925 339.266L210.325 342.192L215.558 342.596L213.34 345.382L218.445 346.164L215.644 348.767L220.541 349.915L217.201 352.294L221.811 353.79L217.985 355.906L222.237 357.726L217.985 359.546L221.811 361.662L217.201 363.158L220.541 365.537L215.644 366.685L218.445 369.288L213.34 370.07L215.558 372.856L210.325 373.26L211.925 376.186L206.646 376.205L207.603 379.225L202.362 378.859L202.661 381.925L197.539 381.18L197.175 384.244L192.255 383.131L191.233 386.144L186.591 384.681L184.929 387.596L180.639 385.806L178.361 388.576L174.491 386.488L171.634 389.071L168.244 386.717L164.854 389.071L161.998 386.488L158.127 388.576L155.85 385.806L151.56 387.596L149.897 384.681L145.255 386.144L144.234 383.131L139.313 384.244L138.949 381.18L133.828 381.925L134.127 378.859L128.885 379.225L129.842 376.205L124.563 376.186L126.163 373.26L120.93 372.856L123.148 370.07L118.043 369.288L120.844 366.685L115.948 365.537L119.288 363.158L114.677 361.662L118.503 359.546L114.251 357.726L118.503 355.906L114.677 353.79L119.288 352.294L115.948 349.915L120.844 348.767L118.043 346.164L123.148 345.382L120.93 342.596L126.163 342.192L124.563 339.266L129.842 339.246L128.885 336.227L134.127 336.593L133.828 333.527L138.949 334.272L139.313 331.208L144.234 332.321L145.255 329.308L149.897 330.771L151.56 327.856L155.85 329.646L158.127 326.875L161.998 328.964L164.854 326.381L168.244 328.735Z" fill="#0F0D98"/>
<path d="M168.244 382.473C193.197 382.473 213.426 371.393 213.426 357.726C213.426 344.059 193.197 332.979 168.244 332.979C143.291 332.979 123.063 344.059 123.063 357.726C123.063 371.393 143.291 382.473 168.244 382.473Z" fill="white"/>
<path d="M133.079 349.851H137.681L141.584 359.369H141.764L145.668 349.851H150.269V365.224H146.651V355.781H146.523L142.83 365.127H140.518L136.825 355.729H136.697V365.224H133.079V349.851ZM152.587 365.224V349.851H163.306V352.869H156.302V356.021H162.758V359.046H156.302V362.207H163.306V365.224H152.587ZM168.958 365.224H164.965L170.152 349.851H175.099L180.285 365.224H176.292L172.681 353.724H172.561L168.958 365.224ZM168.425 359.174H176.772V361.996H168.425V359.174ZM181.941 365.224V349.851H185.656V362.207H192.052V365.224H181.941ZM202.285 354.46C202.235 353.91 202.012 353.482 201.617 353.176C201.227 352.866 200.669 352.711 199.943 352.711C199.463 352.711 199.062 352.774 198.742 352.899C198.422 353.024 198.181 353.196 198.021 353.417C197.861 353.632 197.779 353.88 197.774 354.16C197.764 354.39 197.809 354.593 197.909 354.768C198.014 354.943 198.164 355.098 198.359 355.233C198.559 355.363 198.799 355.478 199.08 355.578C199.36 355.679 199.675 355.766 200.025 355.841L201.347 356.141C202.107 356.307 202.778 356.527 203.358 356.802C203.944 357.077 204.434 357.405 204.83 357.785C205.23 358.166 205.533 358.604 205.738 359.099C205.943 359.594 206.048 360.15 206.053 360.765C206.048 361.736 205.803 362.569 205.318 363.265C204.832 363.961 204.134 364.494 203.223 364.864C202.317 365.234 201.224 365.419 199.943 365.419C198.657 365.419 197.536 365.227 196.58 364.841C195.624 364.456 194.881 363.871 194.351 363.085C193.82 362.299 193.547 361.306 193.532 360.105H197.09C197.12 360.6 197.253 361.013 197.488 361.343C197.724 361.674 198.046 361.924 198.457 362.094C198.872 362.264 199.352 362.349 199.898 362.349C200.398 362.349 200.824 362.282 201.174 362.147C201.529 362.012 201.802 361.824 201.992 361.584C202.182 361.343 202.28 361.068 202.285 360.758C202.28 360.468 202.19 360.22 202.015 360.015C201.84 359.805 201.569 359.624 201.204 359.474C200.844 359.319 200.383 359.177 199.823 359.046L198.216 358.671C196.885 358.366 195.837 357.873 195.071 357.192C194.306 356.507 193.925 355.581 193.93 354.415C193.925 353.464 194.18 352.631 194.696 351.915C195.211 351.2 195.924 350.642 196.835 350.241C197.746 349.841 198.784 349.641 199.95 349.641C201.141 349.641 202.175 349.844 203.051 350.249C203.931 350.649 204.614 351.212 205.1 351.938C205.585 352.663 205.833 353.504 205.843 354.46H202.285Z" fill="#0F0D98"/>
</g>
<g clip-path="url(#clip3_68_5)">
<path d="M283.726 316.817L287.61 315.42L289.701 318.654L293.98 317.639L295.463 320.904L300.07 320.286L300.921 323.532L305.783 323.32L305.99 326.495L311.031 326.693L310.59 329.747L315.73 330.352L314.647 333.237L319.805 334.24L318.099 336.909L323.193 338.294L320.89 340.706L325.841 342.451L322.977 344.568L327.706 346.645L324.326 348.434L328.759 350.811L324.917 352.243L328.983 354.882L324.74 355.935L328.376 358.794L323.798 359.452L326.946 362.486L322.105 362.738L324.716 365.899L319.689 365.741L321.721 368.98L316.587 368.414L318.009 371.68L312.849 370.716L313.638 373.957L308.533 372.609L308.676 375.773L303.708 374.063L303.203 377.102L298.449 375.057L297.304 377.922L292.84 375.573L291.073 378.219L286.968 375.605L284.608 377.99L280.927 375.151L278.011 377.237L274.812 374.219L271.385 375.974L268.719 372.823L264.835 374.219L262.745 370.985L258.466 372L256.983 368.735L252.376 369.353L251.524 366.108L246.662 366.319L246.455 363.145L241.415 362.946L241.856 359.892L236.716 359.287L237.798 356.403L232.64 355.4L234.346 352.73L229.252 351.346L231.555 348.933L226.605 347.189L229.468 345.071L224.74 342.994L228.119 341.205L223.687 338.829L227.528 337.396L223.462 334.758L227.705 333.704L224.07 330.845L228.648 330.187L225.5 327.153L230.34 326.901L227.73 323.74L232.756 323.898L230.724 320.659L235.858 321.225L234.437 317.959L239.596 318.924L238.808 315.683L243.912 317.031L243.769 313.866L248.738 315.576L249.242 312.537L253.996 314.583L255.141 311.718L259.606 314.066L261.372 311.42L265.477 314.035L267.837 311.649L271.518 314.488L274.435 312.402L277.633 315.421L281.061 313.665L283.726 316.817Z" fill="#0F0D98"/>
<path d="M269.818 368.723C293.921 375.181 316.328 369.715 319.865 356.513C323.402 343.312 306.731 327.375 282.628 320.916C258.525 314.458 236.118 319.924 232.581 333.126C229.044 346.327 245.715 362.265 269.818 368.723Z" fill="white"/>
<path d="M242.156 340.994L244.987 330.432L247.854 331.201L245.643 339.452L249.913 340.596L249.294 342.907L242.156 340.994ZM261.689 340.568C261.374 341.744 260.88 342.674 260.206 343.36C259.533 344.042 258.752 344.487 257.864 344.695C256.976 344.899 256.054 344.873 255.099 344.617C254.136 344.359 253.322 343.918 252.656 343.294C251.995 342.667 251.544 341.89 251.302 340.963C251.065 340.033 251.103 338.984 251.416 337.815C251.731 336.639 252.223 335.71 252.892 335.027C253.566 334.342 254.345 333.896 255.229 333.691C256.118 333.483 257.043 333.508 258.006 333.766C258.962 334.022 259.773 334.462 260.438 335.087C261.105 335.707 261.558 336.483 261.799 337.413C262.041 338.341 262.004 339.392 261.689 340.568ZM258.739 339.777C258.909 339.145 258.967 338.589 258.915 338.111C258.867 337.63 258.709 337.234 258.443 336.923C258.18 336.61 257.812 336.389 257.337 336.262C256.863 336.135 256.432 336.141 256.044 336.281C255.661 336.417 255.327 336.682 255.042 337.073C254.761 337.462 254.535 337.973 254.366 338.606C254.196 339.238 254.135 339.795 254.183 340.276C254.236 340.754 254.393 341.15 254.656 341.464C254.922 341.775 255.293 341.994 255.767 342.121C256.242 342.248 256.671 342.243 257.054 342.106C257.441 341.967 257.775 341.703 258.057 341.314C258.342 340.922 258.57 340.41 258.739 339.777ZM265.665 347.293L261.601 346.204L264.431 335.642L268.453 336.72C269.54 337.011 270.422 337.474 271.099 338.109C271.781 338.741 272.231 339.51 272.449 340.416C272.671 341.32 272.635 342.322 272.34 343.422C272.045 344.522 271.577 345.41 270.935 346.086C270.295 346.758 269.524 347.2 268.623 347.412C267.724 347.62 266.737 347.581 265.665 347.293ZM265.12 344.538L266.214 344.831C266.736 344.971 267.204 345.007 267.617 344.937C268.034 344.868 268.393 344.653 268.696 344.292C269.003 343.932 269.255 343.384 269.452 342.648C269.649 341.912 269.703 341.311 269.614 340.845C269.529 340.38 269.318 340.012 268.982 339.742C268.648 339.472 268.207 339.263 267.657 339.116L266.646 338.845L265.12 344.538ZM281.007 343.82C281.011 343.626 280.983 343.447 280.924 343.284C280.865 343.117 280.777 342.967 280.658 342.832C280.544 342.694 280.399 342.576 280.223 342.477C280.051 342.376 279.853 342.295 279.63 342.235C279.148 342.106 278.707 342.111 278.304 342.251C277.906 342.391 277.559 342.653 277.264 343.039C276.973 343.425 276.745 343.924 276.581 344.536C276.415 345.155 276.358 345.707 276.408 346.192C276.459 346.677 276.619 347.082 276.89 347.405C277.161 347.728 277.544 347.956 278.039 348.088C278.476 348.205 278.856 348.239 279.178 348.189C279.505 348.14 279.771 348.018 279.979 347.823C280.186 347.628 280.331 347.372 280.416 347.056L280.897 347.24L278.484 346.594L279.031 344.551L283.714 345.806L283.321 347.271C283.064 348.233 282.638 349.002 282.046 349.577C281.458 350.149 280.757 350.521 279.944 350.694C279.136 350.864 278.271 350.826 277.35 350.579C276.322 350.304 275.478 349.843 274.818 349.199C274.158 348.554 273.717 347.769 273.497 346.844C273.281 345.92 273.321 344.901 273.62 343.787C273.854 342.914 274.194 342.175 274.639 341.572C275.088 340.97 275.611 340.501 276.21 340.164C276.81 339.823 277.453 339.618 278.139 339.547C278.826 339.474 279.525 339.532 280.237 339.723C280.862 339.89 281.419 340.135 281.908 340.458C282.401 340.778 282.81 341.156 283.135 341.594C283.464 342.028 283.697 342.501 283.832 343.013C283.968 343.525 283.992 344.053 283.905 344.597L281.007 343.82ZM289.168 342.271L286.337 352.833L283.47 352.064L286.3 341.502L289.168 342.271ZM299.665 345.083L296.835 355.645L294.442 355.004L292.113 348.432L292.051 348.416L290.564 353.965L287.696 353.197L290.527 342.635L292.961 343.287L295.234 349.821L295.316 349.844L296.798 344.315L299.665 345.083ZM306.947 350.771C306.951 350.577 306.923 350.398 306.864 350.235C306.805 350.068 306.717 349.917 306.598 349.782C306.484 349.645 306.339 349.527 306.162 349.428C305.99 349.326 305.793 349.246 305.569 349.186C305.088 349.057 304.646 349.062 304.244 349.201C303.845 349.341 303.499 349.604 303.204 349.989C302.912 350.375 302.685 350.875 302.521 351.487C302.355 352.105 302.297 352.657 302.348 353.143C302.398 353.628 302.559 354.032 302.83 354.355C303.101 354.678 303.484 354.906 303.979 355.039C304.416 355.156 304.795 355.19 305.118 355.14C305.445 355.091 305.711 354.969 305.918 354.774C306.125 354.579 306.271 354.323 306.356 354.007L306.837 354.191L304.424 353.544L304.971 351.502L309.654 352.757L309.261 354.221C309.003 355.184 308.578 355.953 307.986 356.527C307.397 357.099 306.697 357.472 305.884 357.644C305.076 357.815 304.211 357.777 303.289 357.53C302.261 357.254 301.417 356.794 300.757 356.149C300.097 355.504 299.657 354.719 299.437 353.794C299.22 352.87 299.261 351.851 299.56 350.737C299.794 349.864 300.133 349.126 300.579 348.523C301.027 347.921 301.551 347.451 302.15 347.114C302.75 346.774 303.393 346.569 304.079 346.498C304.765 346.424 305.465 346.482 306.176 346.673C306.802 346.841 307.359 347.086 307.848 347.408C308.34 347.728 308.749 348.107 309.074 348.544C309.404 348.979 309.636 349.452 309.772 349.964C309.907 350.475 309.932 351.003 309.845 351.548L306.947 350.771Z" fill="#0F0D98"/>
</g>
<defs>
<clipPath id="clip0_68_5">
<rect width="307.512" height="39.1378" fill="white" transform="translate(14.4883 271)"/>
</clipPath>
<clipPath id="clip1_68_5">
<rect width="107.986" height="62.6896" fill="white" transform="translate(0 328.517) rotate(-15)"/>
</clipPath>
<clipPath id="clip2_68_5">
<rect width="107.986" height="62.6896" fill="white" transform="translate(114.251 326.381)"/>
</clipPath>
<clipPath id="clip3_68_5">
<rect width="107.986" height="62.6896" fill="white" transform="translate(232.182 300.569) rotate(15)"/>
</clipPath>
</defs>
</svg>
