<svg width="1250" height="613" viewBox="0 0 1250 613" fill="none" xmlns="http://www.w3.org/2000/svg">
<g id="reunion-header-desktop">
<path id="THE ANNUAL" d="M369.916 130H389.916L388.616 116.2C387.916 108.7 387.516 101.1 387.516 93.6C387.516 86 387.916 78.3 388.616 70.7C394.716 71.9 400.616 74.3 405.916 78V60H353.916V78C359.216 74.3 365.116 71.9 371.216 70.7C371.916 78.3 372.316 86 372.316 93.6C372.316 101.1 371.916 108.7 371.216 116.2L369.916 130ZM412.951 130H434.951L433.651 123.9C431.951 115.5 430.851 107.1 430.351 98.6C432.551 98.3 434.751 98.1 436.951 98.1C439.851 98.1 442.651 98.4 445.551 99C445.051 107.4 443.951 115.7 442.251 123.9L440.951 130H462.951L461.651 116.2C460.951 108.7 460.551 101.1 460.551 93.6C460.551 82.4 461.351 71.1 462.951 60H442.951C444.651 68.9 445.551 77.9 445.751 86.9C442.851 87.6 439.851 87.9 436.951 87.9C434.651 87.9 432.451 87.7 430.151 87.3C430.351 78.2 431.251 69 432.951 60H412.951C414.551 71.1 415.351 82.4 415.351 93.6C415.351 101.1 414.951 108.7 414.251 116.2L412.951 130ZM472.963 130H516.963V106L514.463 107.6C509.863 110.4 504.663 111.9 499.463 111.9C496.763 111.9 494.063 111.5 491.463 110.7C490.963 106.7 490.563 102.7 490.363 98.6C492.563 98.2 494.763 98.1 496.963 98.1C501.063 98.1 505.063 98.7 508.963 100V86C505.063 87.3 501.063 87.9 496.963 87.9C494.663 87.9 492.463 87.7 490.163 87.3C490.263 82.3 490.563 77.3 491.163 72.3C493.563 71.4 496.163 70.9 498.763 70.9C503.763 70.9 508.763 72.7 512.763 76.3L516.963 80V60H472.963C474.563 71.1 475.363 82.4 475.363 93.6C475.363 101.1 474.963 108.7 474.263 116.2L472.963 130ZM546.92 130H568.02L568.72 118.6C570.82 118.2 572.92 118.1 575.02 118.1C577.12 118.1 579.22 118.2 581.32 118.6L582.02 130H603.12L598.32 117.9C590.92 99.5 587.12 79.8 587.12 60H562.92C562.92 79.8 559.12 99.5 551.72 117.9L546.92 130ZM575.02 107.9C573.32 107.9 571.52 107.8 569.82 107.6C571.12 99.1 573.02 90.6 575.02 82.3C577.02 90.6 578.92 99.1 580.22 107.6C578.52 107.8 576.72 107.9 575.02 107.9ZM607.588 130H629.588L628.288 123.9C625.988 112.8 624.788 101.5 624.788 90.2C624.788 87.8 624.888 85.4 624.988 83C632.388 97.9 637.988 113.7 641.588 130H663.588L662.288 116.2C661.588 108.7 661.188 101.1 661.188 93.6C661.188 82.4 661.988 71.1 663.588 60H643.588C645.488 70 646.388 80 646.388 90.1C646.388 95 646.188 100 645.688 104.9C641.088 96.1 637.188 87.1 633.888 77.7L627.588 60H607.588C609.188 71.1 609.988 82.4 609.988 93.6C609.988 101.1 609.588 108.7 608.888 116.2L607.588 130ZM674.729 130H696.729L695.429 123.9C693.129 112.8 691.929 101.5 691.929 90.2C691.929 87.8 692.029 85.4 692.129 83C699.529 97.9 705.129 113.7 708.729 130H730.729L729.429 116.2C728.729 108.7 728.329 101.1 728.329 93.6C728.329 82.4 729.129 71.1 730.729 60H710.729C712.629 70 713.529 80 713.529 90.1C713.529 95 713.329 100 712.829 104.9C708.229 96.1 704.329 87.1 701.029 77.7L694.729 60H674.729C676.329 71.1 677.129 82.4 677.129 93.6C677.129 101.1 676.729 108.7 676.029 116.2L674.729 130ZM765.893 130C783.193 130 790.293 116 790.293 107.1C790.293 100 788.993 96.7 788.993 85.9C788.993 71 790.893 60 790.893 60H770.793C770.793 60 775.393 76.8 775.393 101.9C775.393 110.2 768.693 112.1 765.893 112.1C763.093 112.1 756.393 110.2 756.393 101.9C756.393 76.8 760.993 60 760.993 60H740.893C740.893 60 742.793 71 742.793 85.9C742.793 96.7 741.493 100 741.493 107.1C741.493 116 748.593 130 765.893 130ZM791.947 130H813.047L813.747 118.6C815.847 118.2 817.947 118.1 820.047 118.1C822.147 118.1 824.247 118.2 826.347 118.6L827.047 130H848.147L843.347 117.9C835.947 99.5 832.147 79.8 832.147 60H807.947C807.947 79.8 804.147 99.5 796.747 117.9L791.947 130ZM820.047 107.9C818.347 107.9 816.547 107.8 814.847 107.6C816.147 99.1 818.047 90.6 820.047 82.3C822.047 90.6 823.947 99.1 825.247 107.6C823.547 107.8 821.747 107.9 820.047 107.9ZM852.127 130H896.127V106L893.627 107.6C889.027 110.4 883.827 111.9 878.627 111.9C875.927 111.9 873.227 111.5 870.627 110.7C869.727 103.9 869.327 97 869.327 90.1C869.327 80 870.227 70 872.127 60H852.127C853.727 71.1 854.527 82.4 854.527 93.6C854.527 101.1 854.127 108.7 853.427 116.2L852.127 130Z" fill="#0F0D98"/>
<g id="BURCH FAMILY">
<path d="M12.5633 323H56.5633C102.363 323 116.363 303.6 116.363 279.4C116.363 257.6 99.9633 248.4 92.9633 245.6C102.963 240.2 108.563 230.8 108.563 217C108.563 198.2 91.9633 183 71.1633 183H12.5633C17.9633 220.2 18.7633 258 15.1633 295.4L12.5633 323ZM47.1633 237.6C47.1633 234.4 47.1633 231.2 47.3633 228.4C47.7633 219.8 48.3633 211.4 49.5633 202.8C61.1633 201.6 72.7633 206 72.7633 220.8C72.7633 244 47.1633 237.6 47.1633 237.6ZM60.5633 288.8C55.7633 288.8 52.3633 288.4 49.9633 288C48.7633 278.8 47.9633 269.4 47.3633 260.2C50.7633 259.6 55.1633 259.2 60.3633 259.2C72.7633 259.2 80.5633 265 80.5633 273.6C80.5633 284.8 72.3633 288.8 60.5633 288.8ZM182.387 323C216.987 323 231.187 295 231.187 277.2C231.187 263 228.587 256.4 228.587 234.8C228.587 205 232.387 183 232.387 183H192.187C192.187 183 201.387 216.6 201.387 266.8C201.387 283.4 187.987 287.2 182.387 287.2C176.787 287.2 163.387 283.4 163.387 266.8C163.387 216.6 172.587 183 172.587 183H132.387C132.387 183 136.187 205 136.187 234.8C136.187 256.4 133.587 263 133.587 277.2C133.587 295 147.787 323 182.387 323ZM252.41 323H296.41L293.81 310.8C290.21 293.8 288.01 276.4 287.21 259.2C294.21 259 312.21 260.4 312.41 282.8C312.41 296.4 311.01 309.8 308.41 323H352.41C349.61 309.6 348.41 296.2 348.41 282.6V281.2C348.41 262 337.81 255 325.21 252.6C339.81 245.4 348.41 230.6 348.41 217C348.41 198.2 331.61 183 311.01 183H252.41C257.61 220.2 258.61 258 255.01 295.4L252.41 323ZM287.01 238.8C287.01 234 287.01 229.6 287.21 225.6C287.61 218 288.21 210.4 289.21 202.8C300.81 201.6 312.61 206 312.61 220.8C312.61 244 287.01 238.8 287.01 238.8ZM420.379 325C447.379 325 468.179 304.8 475.579 278.4L440.779 266C437.979 279.2 430.979 289 420.379 289C405.979 289 398.379 270.8 398.379 250.8C398.379 227 405.379 206.4 419.579 205H421.179C429.779 206 435.579 213.6 438.979 224.8L470.579 215.8C459.979 192.2 440.179 181 420.379 181C391.379 181 362.379 205 362.379 257C362.379 293 382.379 325 420.379 325ZM483.668 323H527.668L525.068 310.8C521.668 294 519.468 277.2 518.468 260.2C522.868 259.6 527.268 259.2 531.668 259.2C537.468 259.2 543.068 259.8 548.868 261C547.868 277.8 545.668 294.4 542.268 310.8L539.668 323H583.668L581.068 295.4C579.668 280.4 578.868 265.2 578.868 250.2C578.868 227.8 580.468 205.2 583.668 183H543.668C547.068 200.8 548.868 218.8 549.268 236.8C543.468 238.2 537.468 238.8 531.668 238.8C527.068 238.8 522.668 238.4 518.068 237.6C518.468 219.4 520.268 201 523.668 183H483.668C486.868 205.2 488.468 227.8 488.468 250.2C488.468 265.2 487.668 280.4 486.268 295.4L483.668 323ZM649.691 323H693.691L691.091 310.8C687.691 294 685.491 277.2 684.491 260.2C688.891 259.4 693.291 259.2 697.691 259.2C705.891 259.2 713.891 260.4 721.691 263V235C713.891 237.6 705.891 238.8 697.691 238.8C693.091 238.8 688.691 238.4 684.091 237.6C684.291 227.6 684.891 217.6 686.091 207.6C690.891 205.8 696.091 204.8 701.291 204.8C711.291 204.8 721.291 208.4 729.291 215.6L737.691 223V183H649.691C652.891 205.2 654.491 227.8 654.491 250.2C654.491 265.2 653.691 280.4 652.291 295.4L649.691 323ZM733.637 323H775.837L777.237 300.2C781.437 299.4 785.637 299.2 789.837 299.2C794.037 299.2 798.237 299.4 802.437 300.2L803.837 323H846.037L836.437 298.8C821.637 262 814.037 222.6 814.037 183H765.637C765.637 222.6 758.037 262 743.237 298.8L733.637 323ZM789.837 278.8C786.437 278.8 782.837 278.6 779.437 278.2C782.037 261.2 785.837 244.2 789.837 227.6C793.837 244.2 797.637 261.2 800.237 278.2C796.837 278.6 793.237 278.8 789.837 278.8ZM854.973 323H898.973L896.373 310.8C891.773 288.6 889.373 266.2 889.373 243.8L914.973 291L940.573 243.8C940.573 266.2 938.173 288.6 933.573 310.8L930.973 323H974.973L972.373 295.4C970.973 280.4 970.173 265.2 970.173 250.2C970.173 227.8 971.773 205.2 974.973 183H934.973C934.973 204 930.173 224.8 920.573 243.6L914.973 255L909.373 243.6C899.773 224.8 894.973 204 894.973 183H854.973C858.173 205.2 859.773 227.8 859.773 250.2C859.773 265.2 858.973 280.4 857.573 295.4L854.973 323ZM996.824 323H1036.82L1034.22 295.4C1032.82 280.4 1032.02 265.2 1032.02 250.2C1032.02 227.8 1033.62 205.2 1036.82 183H996.824C1000.02 205.2 1001.62 227.8 1001.62 250.2C1001.62 265.2 1000.82 280.4 999.424 295.4L996.824 323ZM1054.79 323H1142.79V275L1137.79 278.2C1128.59 283.8 1118.19 286.8 1107.79 286.8C1102.39 286.8 1096.99 286 1091.79 284.4C1089.99 270.8 1089.19 257 1089.19 243.2C1089.19 223 1090.99 203 1094.79 183H1054.79C1057.99 205.2 1059.59 227.8 1059.59 250.2C1059.59 265.2 1058.79 280.4 1057.39 295.4L1054.79 323ZM1161.7 323H1201.7L1199.1 295.4C1197.9 283 1197.3 270.6 1197.1 258.2L1199.1 254.6C1211.7 232.4 1225.7 204.4 1241.7 183.2H1201.1C1196.1 199.8 1188.9 221.2 1181.7 234.8C1174.7 221.2 1167.1 200.4 1162.3 183.2H1121.7C1137.9 204.4 1151.9 232.4 1164.5 254.6L1166.5 258.2C1166.3 270.6 1165.7 283 1164.5 295.4L1161.7 323Z" fill="#0F0D98"/>
</g>
<path id="REUNION" d="M432.605 448H454.605L453.305 441.9C451.505 433.4 450.405 424.7 450.005 416.1C453.505 416 462.505 416.7 462.605 427.9C462.605 434.7 461.905 441.4 460.605 448H482.605C481.205 441.3 480.605 434.6 480.605 427.8V427.1C480.605 417.5 475.305 414 469.005 412.8C476.305 409.2 480.605 401.8 480.605 395C480.605 385.6 472.205 378 461.905 378H432.605C435.205 396.6 435.705 415.5 433.905 434.2L432.605 448ZM449.905 405.9C449.905 403.5 449.905 401.3 450.005 399.3C450.205 395.5 450.505 391.7 451.005 387.9C456.805 387.3 462.705 389.5 462.705 396.9C462.705 408.5 449.905 405.9 449.905 405.9ZM490.566 448H534.566V424L532.066 425.6C527.466 428.4 522.266 429.9 517.066 429.9C514.366 429.9 511.666 429.5 509.066 428.7C508.566 424.7 508.166 420.7 507.966 416.6C510.166 416.2 512.366 416.1 514.566 416.1C518.666 416.1 522.666 416.7 526.566 418V404C522.666 405.3 518.666 405.9 514.566 405.9C512.266 405.9 510.066 405.7 507.766 405.3C507.866 400.3 508.166 395.3 508.766 390.3C511.166 389.4 513.766 388.9 516.366 388.9C521.366 388.9 526.366 390.7 530.366 394.3L534.566 398V378H490.566C492.166 389.1 492.966 400.4 492.966 411.6C492.966 419.1 492.566 426.7 491.866 434.2L490.566 448ZM569.523 448C586.823 448 593.923 434 593.923 425.1C593.923 418 592.623 414.7 592.623 403.9C592.623 389 594.523 378 594.523 378H574.423C574.423 378 579.023 394.8 579.023 419.9C579.023 428.2 572.323 430.1 569.523 430.1C566.723 430.1 560.023 428.2 560.023 419.9C560.023 394.8 564.623 378 564.623 378H544.523C544.523 378 546.423 389 546.423 403.9C546.423 414.7 545.123 418 545.123 425.1C545.123 434 552.223 448 569.523 448ZM603.559 448H625.559L624.259 441.9C621.959 430.8 620.759 419.5 620.759 408.2C620.759 405.8 620.859 403.4 620.959 401C628.359 415.9 633.959 431.7 637.559 448H659.559L658.259 434.2C657.559 426.7 657.159 419.1 657.159 411.6C657.159 400.4 657.959 389.1 659.559 378H639.559C641.459 388 642.359 398 642.359 408.1C642.359 413 642.159 418 641.659 422.9C637.059 414.1 633.159 405.1 629.859 395.7L623.559 378H603.559C605.159 389.1 605.959 400.4 605.959 411.6C605.959 419.1 605.559 426.7 604.859 434.2L603.559 448ZM670.188 448H690.188L688.888 434.2C688.188 426.7 687.788 419.1 687.788 411.6C687.788 400.4 688.588 389.1 690.188 378H670.188C671.787 389.1 672.588 400.4 672.588 411.6C672.588 419.1 672.188 426.7 671.488 434.2L670.188 448ZM726.168 449C743.468 449 755.168 433 755.168 415C755.168 389 740.868 377 726.168 377C711.368 377 697.168 389 697.168 415C697.168 433 706.768 449 726.168 449ZM726.168 431C718.768 431 714.968 422.1 714.968 411.9C714.968 400 718.468 389.7 725.768 389H726.568C733.768 389.7 737.368 400 737.368 411.9C737.368 422.9 733.568 431 726.168 431ZM761.23 448H783.23L781.93 441.9C779.63 430.8 778.43 419.5 778.43 408.2C778.43 405.8 778.53 403.4 778.63 401C786.03 415.9 791.63 431.7 795.23 448H817.23L815.93 434.2C815.23 426.7 814.83 419.1 814.83 411.6C814.83 400.4 815.63 389.1 817.23 378H797.23C799.13 388 800.03 398 800.03 408.1C800.03 413 799.83 418 799.33 422.9C794.73 414.1 790.83 405.1 787.53 395.7L781.23 378H761.23C762.83 389.1 763.63 400.4 763.63 411.6C763.63 419.1 763.23 426.7 762.53 434.2L761.23 448Z" fill="#0F0D98"/>
<g id="QUOTE" clip-path="url(#clip0_52_7401)">
<path id="Vector" d="M48.203 546.367C53.1558 543.365 57.8217 539.821 62.1199 535.797L62.6221 535.287C64.1954 538.028 65.9892 540.721 67.8836 543.214C69.7779 545.707 71.8947 548.16 74.1101 550.409C71.3708 551.98 68.7554 553.712 66.2619 555.606C69.2918 558.759 71.866 556.804 71.866 556.804L75.2869 561.309C70.2999 565.096 64.8788 564.139 59.9905 560.875C58.8747 560.075 57.7769 559.132 56.6808 558.188C55.5417 557.026 54.2806 555.699 53.242 554.333L47.4998 546.772L48.203 546.367ZM67.7508 531.521C72.7844 528.462 77.4503 524.918 81.6677 520.952L82.2507 520.385C83.8239 523.121 85.6178 525.819 87.5121 528.311C89.4065 530.804 91.5215 533.254 93.7387 535.503C90.9994 537.074 88.3839 538.81 85.8905 540.703C88.9203 543.856 91.4138 541.962 91.4138 541.962L94.8347 546.464C89.9285 550.19 84.4266 549.293 79.6191 545.972C78.5033 545.169 77.3247 544.29 76.3094 543.286C75.0896 542.181 73.9092 540.797 72.8705 539.426L67.1265 531.869L67.7508 531.521Z" fill="#0F0D98"/>
<path id="Vector_2" d="M108.197 547.547C97.7784 525.442 105.087 506.594 118.336 500.353C130.947 494.414 141.782 498.689 148.882 506.171L137.543 515.754C134.766 512.709 129.899 508.301 124.326 510.927C116.833 514.456 118.015 525.733 123.311 536.97C127.616 546.105 135.007 552.78 141.585 549.681C148.165 546.582 147.865 540.025 145.282 534.545C144.808 533.541 144.157 532.397 143.506 531.252C141.077 532.73 138.643 534.434 136.472 536.464L130.445 523.674C134.842 523.053 139.163 521.798 143.185 519.904C147.205 518.01 150.924 515.478 154.203 512.483L155.796 517.759C157.087 522.397 158.881 526.913 160.991 531.389C164.952 539.792 170.057 547.547 175.833 553.644L173.458 554.763C169.072 556.829 164.152 554.681 162.3 550.753C161.913 549.932 161.708 549.021 161.595 548.07C160.546 556.266 156.372 562.812 149.334 566.126C131.699 574.433 115.947 563.992 108.197 547.547Z" fill="#0F0D98"/>
<path id="Vector_3" d="M173.952 539.484C172.745 531.973 171.22 524.441 169.327 517.107C166.502 506.153 162.869 495.303 158.503 484.852L178.067 479.809C178.732 490.067 180.374 500.073 182.921 509.951C184.663 516.698 186.794 523.344 189.39 529.768C192.134 529.893 194.877 529.606 197.518 528.925C202.605 527.612 207.314 524.836 211.106 520.937L213.15 518.742L219.204 542.21L176.162 553.307L173.952 539.484Z" fill="#0F0D98"/>
<path id="Vector_4" d="M220.252 529.628C225.737 510.364 227.467 490.178 225.37 470.293L249.68 467.729C251.777 487.613 257.683 506.996 267.065 524.689L273.169 536.335L251.973 538.569L250.062 527.196C247.91 527.017 245.789 527.139 243.68 527.361C241.57 527.583 239.471 527.906 237.405 528.53L237.909 540.051L216.712 542.285L220.252 529.628ZM247.791 516.264C245.585 507.864 242.776 499.532 239.887 491.408C238.757 499.955 237.749 508.692 237.344 517.365C239.073 517.386 240.892 517.297 242.6 517.117C244.307 516.934 246.105 516.644 247.791 516.264Z" fill="#0F0D98"/>
<path id="Vector_5" d="M272.703 522.802C275.055 503.969 275.191 484.87 272.994 466.111L272.995 466.007L297.24 466.696C311.467 467.704 325.07 480.013 324.395 503.847C323.88 522.024 313.725 537.909 294.127 537.353L270.995 536.701L272.703 522.802ZM290.599 519.162C295.209 520.607 300.115 518.724 302.555 514.65C304.889 510.776 306.151 505.453 306.3 500.203C306.55 491.415 304.709 484.999 301.991 480.978C299.665 477.477 295.465 475.842 291.399 476.634C289.18 490.723 288.878 504.966 290.399 519.058L290.599 519.162Z" fill="#0F0D98"/>
<path id="Vector_6" d="M364.711 531.066C366.641 525.076 368.275 519.022 369.712 512.925L369.115 510.934C365.29 498.617 361.401 483.291 355.693 471.082L375.732 475.462C376.245 484.468 377.752 495.551 379.74 503.018C384.763 497.082 390.625 487.301 394.884 479.647L414.925 484.03C404.739 492.764 394.807 505.07 386.192 514.664L384.816 516.224C383.577 522.365 382.535 528.548 381.79 534.8L380.095 548.698L360.352 544.383L364.711 531.066Z" fill="#0F0D98"/>
<path id="Vector_7" d="M402.7 519.538C410.833 494.564 428.23 487.477 442.45 492.107C456.575 496.702 466.561 512.702 458.428 537.676C452.797 554.964 436.552 566.674 419.928 561.266C401.288 555.201 397.069 536.83 402.7 519.538ZM442.296 529.133C446.018 517.702 445.779 506.68 439.081 503.757L438.313 503.506C431.079 501.895 424.495 510.697 420.773 522.128C417.581 531.923 418.448 541.661 425.559 543.974C432.67 546.291 438.853 539.699 442.296 529.133Z" fill="#0F0D98"/>
<path id="Vector_8" d="M457.319 548.608C459.791 541.876 462.172 539.201 465.932 528.961C471.12 514.829 473.147 503.739 473.147 503.739L492.212 510.733C492.212 510.733 481.999 525.062 473.261 548.863C470.373 556.736 476.065 560.868 478.722 561.843C481.377 562.815 488.395 563.346 491.285 555.477C500.022 531.676 501.508 514.144 501.508 514.144L520.571 521.138C520.571 521.138 514.94 530.908 509.754 545.036C505.994 555.28 506.079 558.859 503.607 565.591C500.509 574.031 488.9 584.837 472.49 578.815C456.081 572.793 454.221 557.048 457.319 548.608Z" fill="#0F0D98"/>
<path id="Vector_9" d="M529.209 564.444C534.879 540.671 552.362 530.51 566.611 533.907C580.172 537.138 585.967 547.242 586.839 557.521L571.994 557.927C571.729 553.816 570.677 547.335 564.684 545.908C556.626 543.985 550.505 553.533 547.623 565.616C545.28 575.44 546.882 585.271 553.957 586.957C561.034 588.643 564.896 583.335 566.302 577.442C566.559 576.359 566.765 575.06 566.971 573.758C564.15 573.396 561.183 573.209 558.221 573.439L561.502 559.684C565.325 561.944 569.485 563.662 573.808 564.695C578.131 565.724 582.619 566.068 587.052 565.774L585 570.892C583.113 575.322 581.694 579.967 580.546 584.78C578.389 593.818 577.534 603.065 578.239 611.433L575.682 610.823C570.966 609.7 568.464 604.952 569.472 600.726C569.682 599.841 570.089 599.005 570.595 598.191C564.655 603.94 557.306 606.444 549.739 604.639C530.773 600.12 524.991 582.129 529.209 564.444Z" fill="#0F0D98"/>
<path id="Vector_10" d="M592.554 597.732C593.496 590.185 594.138 582.528 594.375 574.956C594.726 563.655 594.273 552.224 593.006 540.969L637.43 542.35L636.802 562.535L632.678 558.669C628.751 554.91 623.76 552.938 618.712 552.78C616.086 552.697 613.446 553.12 610.995 553.956C610.233 558.981 609.772 564.02 609.513 569.063C611.824 569.54 614.039 569.809 616.361 569.881C620.501 570.01 624.557 569.529 628.536 568.342L628.096 582.47C624.2 581.036 620.18 580.307 616.041 580.178C613.819 580.107 611.594 580.139 609.361 580.476C609.434 584.619 609.712 588.668 610.093 592.721C612.692 593.61 615.406 594.098 618.131 594.184C623.382 594.346 628.679 592.997 633.411 590.314L635.986 588.779L635.232 613L590.809 611.623L592.554 597.732Z" fill="#0F0D98"/>
<path id="Vector_11" d="M662.637 595.784C662.149 588.191 661.349 580.548 660.162 573.066C658.963 565.484 657.345 557.866 655.444 550.398C649.549 552.557 644.042 555.886 639.338 560.412L636.491 542.457L688.379 534.24L691.224 552.195C685.351 549.34 679.083 547.88 672.808 547.647C673.311 555.337 674.129 563.084 675.331 570.663C676.515 578.145 678.115 585.662 680.002 593.037L683.478 606.594L663.523 609.758L662.637 595.784Z" fill="#0F0D98"/>
<path id="Vector_12" d="M738.737 577.664C737.058 570.247 735.063 562.826 732.713 555.624C730.331 548.329 727.532 541.062 724.479 533.985C718.997 537.048 714.082 541.202 710.153 546.413L704.513 529.133L754.447 512.842L760.087 530.123C753.838 528.232 747.423 527.773 741.187 528.534C742.898 536.048 744.926 543.565 747.308 550.864C749.658 558.063 752.424 565.233 755.445 572.212L761.02 585.056L741.811 591.319L738.737 577.664Z" fill="#0F0D98"/>
<path id="Vector_13" d="M765.322 548.239C756.651 523.455 766.187 507.279 780.301 502.347C794.318 497.444 811.956 504.116 820.627 528.9C826.633 546.058 820.814 565.211 804.317 570.982C785.819 577.449 771.328 565.398 765.322 548.239ZM802.62 531.88C798.652 520.535 791.785 511.917 784.685 513.653L783.921 513.918C777.194 517.021 777.294 528.007 781.263 539.351C784.664 549.075 791.258 556.291 798.311 553.823C805.369 551.356 806.291 542.368 802.62 531.88Z" fill="#0F0D98"/>
<path id="Vector_14" d="M851.134 552.776L845.584 531.26C845.584 531.26 851.999 533.885 860.606 531.665C866.669 530.101 869.453 525.524 868.37 521.321C865.948 511.931 845.473 519.506 840.554 500.436C837.852 489.97 844.554 481.57 856.293 478.543C865.88 476.071 873.92 476.918 873.92 476.918L878.261 493.739C878.261 493.739 871.839 487.05 862.547 489.446C858.342 490.529 856.354 493.754 857.441 497.957C860.491 509.79 884.866 505.593 889.153 522.218C892.813 536.399 882.918 546.98 871.276 549.982C859.54 553.009 851.134 552.776 851.134 552.776Z" fill="#0F0D98"/>
<path id="Vector_15" d="M894.431 528.677C894.147 521.073 893.552 513.409 892.569 505.898C891.098 494.683 888.816 483.471 885.755 472.564L929.834 466.796L932.457 486.824L927.764 483.668C923.283 480.587 918.038 479.443 913.029 480.096C910.425 480.44 907.888 481.279 905.599 482.495C905.657 487.581 906.012 492.627 906.568 497.649C908.921 497.749 911.153 497.66 913.456 497.358C917.564 496.82 921.493 495.694 925.228 493.883L927.065 507.903C922.989 507.11 918.903 507.035 914.795 507.573C912.592 507.86 910.4 508.251 908.251 508.94C908.986 513.018 909.912 516.974 910.938 520.912C913.647 521.375 916.406 521.421 919.111 521.066C924.32 520.385 929.332 518.201 933.573 514.793L935.866 512.864L939.016 536.898L894.936 542.669L894.431 528.677Z" fill="#0F0D98"/>
<path id="Vector_16" d="M943.751 522.766C944.72 515.224 945.387 507.566 945.646 499.994C946.037 488.689 945.621 477.259 944.394 466L988.814 467.528L988.121 487.714L984.01 483.833C980.095 480.06 975.108 478.069 970.06 477.897C967.438 477.807 964.794 478.22 962.34 479.045C961.561 484.073 961.084 489.109 960.808 494.152C963.118 494.636 965.332 494.912 967.653 494.991C971.793 495.135 975.851 494.668 979.833 493.492L979.349 507.623C975.456 506.174 971.438 505.428 967.298 505.288C965.077 505.21 962.853 505.235 960.617 505.565C960.678 509.707 960.94 513.76 961.306 517.813C963.904 518.713 966.616 519.208 969.343 519.302C974.592 519.485 979.894 518.15 984.637 515.485L987.217 513.957L986.381 538.178L941.958 536.65L943.751 522.766Z" fill="#0F0D98"/>
<path id="Vector_17" d="M1011.64 527.562C1014.23 520.41 1016.56 513.086 1018.47 505.755C1021.32 494.808 1023.41 483.56 1024.67 472.305L1044.23 477.391C1041.55 487.656 1041.25 498.431 1043.55 508.839L1044.84 515.123L1049.03 510.263C1056.11 502.297 1061.11 492.742 1063.78 482.481L1083.33 487.57C1078.94 498.011 1075.29 508.854 1072.43 519.8C1070.52 527.128 1068.98 534.66 1067.76 542.167L1065.52 555.986L1044.01 550.387L1046.83 544.756C1051.9 534.495 1055.93 523.853 1058.78 512.907L1040.26 532.716L1033.75 506.393C1030.9 517.34 1029.22 528.591 1028.64 540.026L1028.36 546.317L1006.86 540.721L1011.64 527.562Z" fill="#0F0D98"/>
<path id="Vector_18" d="M1075.07 545.248C1078.55 538.487 1081.8 531.514 1084.62 524.488C1088.85 513.993 1092.36 503.104 1095.05 492.097L1136.29 508.692L1128.75 527.433L1126.21 522.383C1123.82 517.501 1119.81 513.929 1115.12 512.042C1112.68 511.063 1110.06 510.55 1107.47 510.489C1105.02 514.947 1102.85 519.52 1100.87 524.165C1102.88 525.41 1104.87 526.425 1107.02 527.293C1110.87 528.839 1114.84 529.785 1118.98 530.04L1113.7 543.157C1110.54 540.467 1107.02 538.397 1103.17 536.851C1101.11 536.019 1099.01 535.284 1096.8 534.828C1095.44 538.749 1094.3 542.647 1093.26 546.582C1095.4 548.314 1097.78 549.706 1100.31 550.725C1105.18 552.686 1110.62 553.242 1115.99 552.353L1118.94 551.797L1109.89 574.285L1068.64 557.69L1075.07 545.248Z" fill="#0F0D98"/>
<path id="Vector_19" d="M1121.23 559.279C1126.24 562.378 1131.51 564.935 1137.04 566.943L1137.73 567.162C1134.27 572.445 1131.49 578.17 1129.49 584.16C1124.07 580.749 1118.43 578.016 1112.39 575.878C1115.85 570.595 1118.63 564.867 1120.63 558.881L1121.23 559.279ZM1125.17 553.221C1132.19 540.122 1138.08 526.36 1142.65 512.074L1160.83 520.883C1152.45 533.322 1145.29 546.467 1139.36 560.093L1125.17 553.221Z" fill="#0F0D98"/>
<path id="Vector_20" d="M1181.01 531.572L1176.36 539.846C1175.52 541.345 1174.54 542.88 1173.48 544.139C1172.61 545.273 1171.57 546.309 1170.57 547.253C1166.26 551.205 1160.94 552.848 1155.56 549.828L1158.34 544.9C1158.34 544.9 1161.07 546.431 1163.64 542.895C1160.91 541.36 1158.08 540 1155.15 538.82C1157.04 536.288 1158.8 533.569 1160.33 530.84C1161.86 528.111 1163.27 525.195 1164.46 522.268L1165.11 522.752C1169.83 526.102 1174.94 528.971 1180.35 531.313L1181.01 531.572ZM1202.5 543.644L1197.85 551.922C1197.01 553.418 1195.94 554.903 1194.97 556.212C1194.01 557.299 1193.06 558.382 1192.06 559.329C1187.66 563.231 1182.43 564.921 1176.97 561.854L1179.74 556.922C1179.74 556.922 1182.56 558.508 1185.12 554.968C1182.4 553.432 1179.57 552.077 1176.64 550.893C1178.53 548.364 1180.28 545.646 1181.82 542.916C1183.36 540.187 1184.76 537.271 1185.95 534.344L1186.51 534.778C1191.32 538.175 1196.43 541.044 1201.75 543.34L1202.5 543.644Z" fill="#0F0D98"/>
</g>
</g>
<defs>
<clipPath id="clip0_52_7401">
<rect width="1155" height="147" fill="white" transform="translate(47.5 466)"/>
</clipPath>
</defs>
</svg>
