<svg width="1250" height="875" viewBox="0 0 1250 875" fill="none" xmlns="http://www.w3.org/2000/svg">
<g id="reunion-header-desktop">
<g id="SECTION LINKS">
<a href="#schedule">
<g id="SECTION LINK" clip-path="url(#clip0_52_7401)">
<path id="Vector" d="M257.223 644.745L265.712 634.71L276.627 640.3L286.813 630.686L296.102 637.331L307.824 628.29L315.341 635.885L328.415 627.56L334.04 635.986L348.259 628.507L351.904 637.631L367.044 631.117L368.652 640.795L384.475 635.348L384.02 645.427L400.275 641.134L397.764 651.455L414.196 648.384L409.67 658.784L426.019 656.982L419.548 667.298L435.556 666.794L427.242 676.863L442.658 677.665L432.633 687.327L447.212 689.423L435.634 698.527L449.147 701.883L436.198 710.285L448.432 714.848L434.316 722.415L445.078 728.114L430.019 734.728L439.139 741.472L423.373 747.027L430.707 754.71L414.484 759.12L419.917 767.621L403.491 770.816L406.938 780.001L390.569 781.93L391.974 791.654L375.921 792.287L375.262 802.397L359.777 801.723L357.065 812.059L342.393 810.091L337.671 820.49L324.043 817.257L317.385 827.555L305.016 823.109L296.527 833.144L285.612 827.554L275.426 837.169L266.137 830.523L254.415 839.565L246.898 831.969L233.825 840.295L228.199 831.868L213.98 839.347L210.335 830.223L195.195 836.737L193.587 827.06L177.765 832.506L178.219 822.427L161.964 826.72L164.475 816.399L148.043 819.47L152.569 809.07L136.22 810.872L142.692 800.556L126.683 801.06L134.997 790.991L119.581 790.189L129.606 780.527L115.027 778.431L126.606 769.327L113.092 765.972L126.041 757.569L113.807 753.006L127.923 745.439L117.161 739.74L132.22 733.127L123.1 726.383L138.866 720.827L131.532 713.144L147.755 708.734L142.322 700.233L158.748 697.038L155.302 687.853L171.67 685.924L170.265 676.2L186.319 675.568L186.977 665.458L202.462 666.131L205.174 655.795L219.846 657.764L224.568 647.364L238.196 650.598L244.854 640.299L257.223 644.745Z" fill="#0F0D98"/>
<path id="Vector_2" d="M301.517 810.053C378.278 789.485 431.372 738.729 420.107 696.686C408.841 654.643 337.482 637.234 260.722 657.802C183.961 678.369 130.867 729.126 142.132 771.169C153.398 813.212 224.757 830.621 301.517 810.053Z" fill="white"/>
<path id="SCHEDULE" d="M173.988 756.324C173.607 755.253 172.968 754.508 172.07 754.092C171.183 753.672 170 753.661 168.522 754.057C167.58 754.309 166.839 754.631 166.298 755.022C165.766 755.4 165.409 755.818 165.227 756.278C165.045 756.737 165.014 757.215 165.135 757.71C165.222 758.121 165.391 758.469 165.644 758.754C165.904 759.024 166.255 759.241 166.698 759.404C167.138 759.556 167.676 759.658 168.312 759.711C168.948 759.763 169.688 759.765 170.531 759.715L173.449 759.567C175.416 759.462 177.148 759.555 178.646 759.846C180.144 760.137 181.432 760.608 182.51 761.258C183.585 761.897 184.465 762.706 185.149 763.684C185.845 764.66 186.37 765.787 186.724 767.065C187.306 769.279 187.254 771.3 186.57 773.126C185.886 774.953 184.633 776.538 182.81 777.883C180.999 779.226 178.67 780.278 175.823 781.041C172.899 781.824 170.232 782.075 167.821 781.794C165.421 781.51 163.379 780.631 161.693 779.158C160.015 777.672 158.794 775.523 158.029 772.711L166.701 770.388C167.032 771.402 167.521 772.198 168.169 772.776C168.816 773.354 169.605 773.711 170.534 773.85C171.473 773.985 172.524 773.897 173.684 773.586C174.659 773.325 175.442 772.986 176.035 772.569C176.627 772.152 177.036 771.685 177.261 771.167C177.486 770.649 177.531 770.115 177.395 769.564C177.246 769.053 176.956 768.649 176.525 768.354C176.102 768.045 175.482 767.835 174.667 767.725C173.848 767.604 172.778 767.574 171.456 767.635L167.912 767.81C164.76 767.962 162.123 767.513 159.999 766.463C157.883 765.398 156.478 763.551 155.785 760.92C155.202 758.788 155.271 756.768 155.992 754.861C156.722 752.941 157.99 751.257 159.797 749.811C161.615 748.361 163.854 747.28 166.515 746.567C169.231 745.84 171.701 745.665 173.926 746.042C176.152 746.42 178.023 747.292 179.539 748.658C181.063 750.01 182.125 751.785 182.726 753.983L173.988 756.324ZM218.626 746.616L209.363 749.099C209.092 748.35 208.73 747.701 208.278 747.154C207.837 746.603 207.31 746.169 206.697 745.852C206.092 745.521 205.413 745.328 204.658 745.272C203.901 745.205 203.084 745.289 202.208 745.523C200.675 745.934 199.478 746.654 198.615 747.683C197.763 748.709 197.25 749.991 197.075 751.528C196.911 753.063 197.091 754.805 197.613 756.754C198.164 758.812 198.9 760.463 199.82 761.707C200.748 762.937 201.832 763.762 203.071 764.181C204.307 764.589 205.664 764.595 207.142 764.199C207.985 763.973 208.713 763.667 209.325 763.28C209.934 762.882 210.431 762.414 210.815 761.877C211.199 761.34 211.468 760.745 211.623 760.094C211.785 759.429 211.823 758.72 211.739 757.968L221.02 755.551C221.292 757.004 221.281 758.562 220.988 760.225C220.691 761.877 220.075 763.498 219.139 765.086C218.211 766.661 216.918 768.075 215.259 769.33C213.6 770.584 211.539 771.541 209.075 772.201C205.987 773.029 203.04 773.108 200.232 772.441C197.435 771.77 194.98 770.339 192.867 768.147C190.765 765.953 189.216 762.994 188.218 759.271C187.215 755.526 187.092 752.179 187.851 749.23C188.607 746.269 190.035 743.803 192.136 741.832C194.234 739.85 196.793 738.454 199.816 737.644C201.94 737.075 203.972 736.842 205.912 736.944C207.853 737.046 209.646 737.475 211.292 738.231C212.935 738.976 214.384 740.049 215.64 741.449C216.895 742.85 217.891 744.572 218.626 746.616ZM228.402 766.53L219.389 732.892L228.521 730.446L232.042 743.585L244.13 740.346L240.61 727.206L249.742 724.76L258.755 758.397L249.623 760.844L246.102 747.704L234.014 750.943L237.534 764.083L228.402 766.53ZM263.091 757.235L254.078 723.598L278.32 717.102L280.292 724.46L265.181 728.509L266.73 734.29L280.593 730.576L282.564 737.934L268.702 741.648L270.251 747.43L285.296 743.399L287.268 750.757L263.091 757.235ZM304.805 746.058L291.862 749.526L282.849 715.888L295.66 712.456C299.12 711.529 302.29 711.401 305.169 712.073C308.057 712.731 310.522 714.136 312.566 716.288C314.617 718.425 316.112 721.246 317.051 724.75C317.99 728.254 318.112 731.449 317.419 734.334C316.722 737.208 315.3 739.654 313.153 741.673C311.004 743.681 308.221 745.142 304.805 746.058ZM298.917 739.326L302.399 738.393C304.063 737.947 305.409 737.299 306.437 736.449C307.476 735.595 308.126 734.43 308.387 732.951C308.659 731.47 308.481 729.558 307.853 727.215C307.226 724.871 306.418 723.128 305.431 721.984C304.455 720.837 303.287 720.159 301.928 719.948C300.58 719.734 299.03 719.862 297.278 720.331L294.058 721.194L298.917 739.326ZM336.676 701.466L345.808 699.019L351.582 720.567C352.269 723.13 352.25 725.511 351.525 727.712C350.808 729.899 349.497 731.794 347.591 733.396C345.682 734.987 343.287 736.169 340.408 736.94C337.506 737.718 334.831 737.895 332.382 737.471C329.93 737.037 327.847 736.052 326.133 734.516C324.427 732.966 323.23 730.91 322.544 728.348L316.77 706.799L325.902 704.353L331.464 725.113C331.743 726.153 332.222 727.022 332.902 727.72C333.579 728.407 334.385 728.872 335.318 729.115C336.263 729.355 337.255 729.335 338.295 729.057C339.346 728.775 340.215 728.296 340.902 727.619C341.59 726.942 342.054 726.136 342.297 725.203C342.537 724.259 342.518 723.266 342.239 722.226L336.676 701.466ZM359.161 731.493L350.148 697.856L359.28 695.409L366.322 721.688L379.921 718.044L381.893 725.402L359.161 731.493ZM385.584 724.413L376.571 690.776L400.813 684.28L402.785 691.638L387.675 695.687L389.224 701.468L403.086 697.754L405.058 705.112L391.195 708.826L392.744 714.608L407.789 710.577L409.761 717.935L385.584 724.413Z" fill="#0F0D98"/>
</g>
</a>
<g id="SECTION LINK_2" clip-path="url(#clip1_52_7401)">
<path id="Vector_3" d="M625 682.702L635.797 675.206L644.893 683.43L657.22 676.78L664.473 685.603L678.136 679.904L683.43 689.186L698.213 684.528L701.466 694.123L717.136 690.579L718.296 700.335L734.606 697.962L733.654 707.726L750.347 706.561L747.299 716.178L764.112 716.239L759.015 725.558L775.682 726.844L768.618 735.719L784.876 738.21L775.956 746.499L791.549 750.156L780.913 757.73L795.596 762.494L783.411 769.233L796.951 775.03L783.411 780.827L795.596 787.566L780.913 792.331L791.549 799.904L775.956 803.561L784.876 811.85L768.618 814.341L775.682 823.216L759.015 824.502L764.112 833.821L747.299 833.882L750.347 843.5L733.654 842.334L734.606 852.098L718.296 849.725L717.136 859.481L701.466 855.937L698.213 865.532L683.43 860.874L678.136 870.156L664.473 864.457L657.22 873.28L644.893 866.63L635.797 874.854L625 867.358L614.203 874.854L605.106 866.63L592.779 873.28L585.527 864.457L571.864 870.156L566.57 860.874L551.786 865.532L548.534 855.937L532.864 859.481L531.704 849.725L515.394 852.098L516.345 842.334L499.653 843.5L502.701 833.882L485.888 833.821L490.984 824.502L474.318 823.216L481.382 814.341L465.123 811.85L474.044 803.561L458.451 799.904L469.087 792.331L454.404 787.566L466.589 780.827L453.048 775.03L466.589 769.233L454.404 762.494L469.087 757.73L458.451 750.156L474.044 746.499L465.123 738.21L481.382 735.719L474.318 726.844L490.984 725.558L485.888 716.239L502.701 716.178L499.653 706.561L516.345 707.726L515.394 697.962L531.704 700.335L532.864 690.579L548.534 694.123L551.786 684.528L566.57 689.186L571.864 679.904L585.527 685.603L592.779 676.78L605.106 683.43L614.203 675.206L625 682.702Z" fill="#0F0D98"/>
<path id="Vector_4" d="M625 853.841C704.468 853.841 768.89 818.556 768.89 775.03C768.89 731.504 704.468 696.219 625 696.219C545.532 696.219 481.11 731.504 481.11 775.03C481.11 818.556 545.532 853.841 625 853.841Z" fill="white"/>
<path id="Meals" d="M513.084 751.257H527.738L540.169 781.569H540.743L553.174 751.257H567.828V800.216H556.306V770.142H555.899L544.138 799.905H536.775L525.013 769.975H524.607V800.216H513.084V751.257ZM575.209 800.216V751.257H609.347V760.867H587.043V770.907H607.602V780.541H587.043V790.606H609.347V800.216H575.209ZM627.348 800.216H614.63L631.149 751.257H646.903L663.422 800.216H650.704L639.205 763.592H638.823L627.348 800.216ZM625.651 780.948H652.234V789.936H625.651V780.948ZM668.693 800.216V751.257H680.526V790.606H700.894V800.216H668.693ZM733.484 765.935C733.325 764.182 732.615 762.819 731.356 761.847C730.113 760.859 728.336 760.365 726.025 760.365C724.495 760.365 723.22 760.564 722.2 760.962C721.18 761.361 720.415 761.911 719.905 762.612C719.395 763.297 719.132 764.086 719.116 764.979C719.085 765.712 719.228 766.357 719.547 766.915C719.881 767.473 720.36 767.967 720.981 768.397C721.619 768.811 722.384 769.178 723.276 769.497C724.169 769.815 725.173 770.094 726.288 770.333L730.496 771.29C732.918 771.816 735.054 772.517 736.902 773.393C738.767 774.27 740.329 775.314 741.588 776.525C742.863 777.736 743.827 779.131 744.481 780.709C745.134 782.286 745.469 784.055 745.485 786.016C745.469 789.107 744.688 791.761 743.142 793.976C741.596 796.192 739.373 797.889 736.472 799.068C733.587 800.248 730.105 800.837 726.025 800.837C721.929 800.837 718.359 800.224 715.315 798.997C712.271 797.769 709.905 795.905 708.215 793.403C706.526 790.9 705.657 787.737 705.61 783.912H716.941C717.037 785.49 717.459 786.805 718.208 787.856C718.957 788.908 719.985 789.705 721.292 790.247C722.615 790.789 724.145 791.06 725.882 791.06C727.476 791.06 728.83 790.845 729.946 790.414C731.077 789.984 731.946 789.386 732.552 788.621C733.157 787.856 733.468 786.98 733.484 785.992C733.468 785.067 733.181 784.279 732.623 783.625C732.065 782.956 731.205 782.382 730.041 781.904C728.894 781.41 727.428 780.956 725.643 780.541L720.527 779.346C716.288 778.374 712.949 776.804 710.51 774.636C708.072 772.453 706.861 769.505 706.877 765.791C706.861 762.763 707.674 760.11 709.315 757.831C710.957 755.552 713.228 753.775 716.128 752.5C719.029 751.225 722.336 750.587 726.049 750.587C729.842 750.587 733.133 751.233 735.922 752.524C738.727 753.799 740.903 755.591 742.449 757.902C743.994 760.213 744.783 762.891 744.815 765.935H733.484Z" fill="#0F0D98"/>
</g>
<g id="SECTION LINK_3" clip-path="url(#clip2_52_7401)">
<path id="Vector_5" d="M992.776 644.745L1005.15 640.299L1011.8 650.598L1025.43 647.364L1030.15 657.764L1044.83 655.795L1047.54 666.131L1063.02 665.458L1063.68 675.568L1079.73 676.2L1078.33 685.924L1094.7 687.853L1091.25 697.038L1107.68 700.233L1102.24 708.734L1118.47 713.144L1111.13 720.827L1126.9 726.383L1117.78 733.127L1132.84 739.74L1122.08 745.439L1136.19 753.007L1123.96 757.569L1136.91 765.972L1123.39 769.327L1134.97 778.431L1120.39 780.527L1130.42 790.189L1115 790.991L1123.32 801.06L1107.31 800.556L1113.78 810.872L1097.43 809.07L1101.96 819.47L1085.53 816.399L1088.04 826.72L1071.78 822.427L1072.24 832.506L1056.41 827.06L1054.8 836.737L1039.66 830.223L1036.02 839.347L1021.8 831.868L1016.18 840.295L1003.1 831.969L995.585 839.565L983.863 830.523L974.574 837.169L964.388 827.554L953.473 833.144L944.984 823.109L932.615 827.555L925.957 817.257L912.329 820.49L907.607 810.091L892.934 812.059L890.223 801.723L874.738 802.397L874.079 792.287L858.026 791.654L859.431 781.93L843.062 780.001L846.509 770.816L830.083 767.621L835.516 759.12L819.292 754.71L826.627 747.027L810.861 741.472L819.981 734.728L804.922 728.114L815.684 722.415L801.568 714.848L813.802 710.285L800.853 701.883L814.366 698.527L802.788 689.423L817.367 687.328L807.342 677.665L822.758 676.863L814.444 666.794L830.452 667.298L823.981 656.982L840.33 658.784L835.804 648.384L852.235 651.455L849.725 641.134L865.98 645.427L865.525 635.348L881.348 640.795L882.956 631.117L898.096 637.631L901.741 628.507L915.96 635.986L921.585 627.56L934.659 635.885L942.175 628.29L953.898 637.331L963.187 630.686L973.372 640.3L984.288 634.71L992.776 644.745Z" fill="#0F0D98"/>
<path id="Vector_6" d="M948.483 810.053C1025.24 830.621 1096.6 813.212 1107.87 771.169C1119.13 729.126 1066.04 678.369 989.278 657.802C912.518 637.234 841.159 654.643 829.893 696.686C818.628 738.729 871.722 789.485 948.483 810.053Z" fill="white"/>
<path id="LODGING" d="M859.574 722.99L868.587 689.353L877.719 691.8L870.678 718.079L884.277 721.723L882.306 729.081L859.574 722.99ZM921.78 721.632C920.776 725.377 919.202 728.341 917.056 730.523C914.913 732.695 912.427 734.112 909.597 734.774C906.771 735.425 903.835 735.343 900.791 734.527C897.726 733.706 895.133 732.301 893.013 730.313C890.907 728.317 889.47 725.843 888.7 722.89C887.944 719.93 888.065 716.588 889.062 712.865C890.066 709.121 891.633 706.161 893.765 703.986C895.911 701.803 898.392 700.384 901.208 699.731C904.037 699.069 906.985 699.149 910.051 699.97C913.095 700.786 915.677 702.188 917.796 704.176C919.919 706.153 921.364 708.623 922.13 711.586C922.9 714.539 922.783 717.887 921.78 721.632ZM912.385 719.115C912.925 717.1 913.111 715.331 912.945 713.807C912.792 712.276 912.29 711.015 911.441 710.025C910.605 709.026 909.432 708.324 907.921 707.92C906.41 707.515 905.037 707.534 903.804 707.978C902.584 708.414 901.519 709.255 900.61 710.502C899.715 711.741 898.997 713.368 898.457 715.383C897.917 717.397 897.724 719.17 897.877 720.702C898.044 722.225 898.545 723.486 899.381 724.485C900.23 725.475 901.41 726.173 902.921 726.578C904.432 726.983 905.798 726.967 907.018 726.531C908.252 726.087 909.316 725.246 910.212 724.007C911.121 722.76 911.845 721.129 912.385 719.115ZM934.441 743.051L921.499 739.583L930.512 705.945L943.323 709.378C946.783 710.305 949.592 711.78 951.749 713.801C953.92 715.815 955.353 718.264 956.047 721.149C956.755 724.026 956.639 727.217 955.7 730.721C954.762 734.225 953.27 737.053 951.227 739.204C949.186 741.345 946.732 742.753 943.863 743.428C940.998 744.092 937.857 743.966 934.441 743.051ZM932.708 734.277L936.19 735.21C937.854 735.656 939.344 735.768 940.659 735.545C941.986 735.326 943.131 734.641 944.097 733.491C945.073 732.345 945.875 730.6 946.503 728.256C947.131 725.913 947.303 723.999 947.02 722.515C946.748 721.034 946.076 719.862 945.004 719C943.944 718.141 942.537 717.477 940.786 717.007L937.566 716.145L932.708 734.277ZM983.302 731.99C983.315 731.372 983.227 730.803 983.037 730.283C982.851 729.752 982.569 729.271 982.191 728.841C981.828 728.403 981.365 728.027 980.804 727.713C980.257 727.39 979.627 727.133 978.915 726.942C977.382 726.532 975.976 726.548 974.695 726.991C973.425 727.437 972.321 728.274 971.382 729.501C970.454 730.731 969.729 732.32 969.207 734.269C968.678 736.24 968.495 737.998 968.656 739.544C968.817 741.089 969.329 742.376 970.191 743.405C971.054 744.435 972.274 745.16 973.85 745.583C975.241 745.956 976.45 746.063 977.479 745.904C978.518 745.748 979.367 745.36 980.027 744.738C980.686 744.117 981.151 743.302 981.421 742.295L982.953 742.882L975.267 740.822L977.009 734.318L991.923 738.314L990.673 742.979C989.851 746.045 988.497 748.492 986.61 750.322C984.737 752.144 982.507 753.33 979.918 753.881C977.344 754.423 974.589 754.301 971.655 753.515C968.381 752.638 965.693 751.172 963.591 749.118C961.489 747.065 960.087 744.565 959.386 741.619C958.696 738.676 958.826 735.431 959.777 731.883C960.522 729.102 961.603 726.752 963.022 724.831C964.451 722.914 966.119 721.419 968.026 720.345C969.936 719.261 971.983 718.607 974.168 718.382C976.355 718.147 978.582 718.333 980.848 718.94C982.841 719.474 984.615 720.255 986.171 721.282C987.74 722.301 989.043 723.507 990.078 724.899C991.127 726.283 991.868 727.79 992.299 729.42C992.731 731.049 992.809 732.731 992.532 734.464L983.302 731.99ZM1009.29 727.054L1000.28 760.692L991.146 758.245L1000.16 724.607L1009.29 727.054ZM1042.72 736.012L1033.71 769.65L1026.09 767.608L1018.67 746.678L1018.47 746.625L1013.74 764.298L1004.61 761.851L1013.62 728.214L1021.37 730.291L1028.61 751.102L1028.87 751.172L1033.59 733.566L1042.72 736.012ZM1065.91 754.126C1065.93 753.507 1065.84 752.938 1065.65 752.418C1065.46 751.887 1065.18 751.407 1064.8 750.977C1064.44 750.539 1063.98 750.163 1063.41 749.848C1062.87 749.525 1062.24 749.269 1061.53 749.078C1059.99 748.667 1058.59 748.683 1057.31 749.127C1056.04 749.573 1054.93 750.409 1053.99 751.636C1053.06 752.866 1052.34 754.456 1051.82 756.405C1051.29 758.376 1051.11 760.134 1051.27 761.679C1051.43 763.225 1051.94 764.512 1052.8 765.541C1053.66 766.57 1054.88 767.296 1056.46 767.718C1057.85 768.091 1059.06 768.198 1060.09 768.039C1061.13 767.884 1061.98 767.495 1062.64 766.874C1063.3 766.252 1063.76 765.438 1064.03 764.431L1065.56 765.017L1057.88 762.958L1059.62 756.454L1074.53 760.45L1073.28 765.114C1072.46 768.18 1071.11 770.628 1069.22 772.458C1067.35 774.28 1065.12 775.466 1062.53 776.016C1059.95 776.558 1057.2 776.437 1054.27 775.65C1050.99 774.773 1048.3 773.308 1046.2 771.254C1044.1 769.2 1042.7 766.7 1042 763.755C1041.31 760.812 1041.44 757.567 1042.39 754.019C1043.13 751.238 1044.21 748.887 1045.63 746.967C1047.06 745.05 1048.73 743.554 1050.64 742.481C1052.55 741.397 1054.59 740.742 1056.78 740.518C1058.97 740.282 1061.19 740.468 1063.46 741.076C1065.45 741.61 1067.23 742.39 1068.78 743.417C1070.35 744.436 1071.65 745.642 1072.69 747.034C1073.74 748.419 1074.48 749.925 1074.91 751.555C1075.34 753.185 1075.42 754.866 1075.14 756.599L1065.91 754.126Z" fill="#0F0D98"/>
</g>
</g>
<path id="THE ANNUAL" d="M369.916 130H389.916L388.616 116.2C387.916 108.7 387.516 101.1 387.516 93.6C387.516 86 387.916 78.3 388.616 70.7C394.716 71.9 400.616 74.3 405.916 78V60H353.916V78C359.216 74.3 365.116 71.9 371.216 70.7C371.916 78.3 372.316 86 372.316 93.6C372.316 101.1 371.916 108.7 371.216 116.2L369.916 130ZM412.951 130H434.951L433.651 123.9C431.951 115.5 430.851 107.1 430.351 98.6C432.551 98.3 434.751 98.1 436.951 98.1C439.851 98.1 442.651 98.4 445.551 99C445.051 107.4 443.951 115.7 442.251 123.9L440.951 130H462.951L461.651 116.2C460.951 108.7 460.551 101.1 460.551 93.6C460.551 82.4 461.351 71.1 462.951 60H442.951C444.651 68.9 445.551 77.9 445.751 86.9C442.851 87.6 439.851 87.9 436.951 87.9C434.651 87.9 432.451 87.7 430.151 87.3C430.351 78.2 431.251 69 432.951 60H412.951C414.551 71.1 415.351 82.4 415.351 93.6C415.351 101.1 414.951 108.7 414.251 116.2L412.951 130ZM472.963 130H516.963V106L514.463 107.6C509.863 110.4 504.663 111.9 499.463 111.9C496.763 111.9 494.063 111.5 491.463 110.7C490.963 106.7 490.563 102.7 490.363 98.6C492.563 98.2 494.763 98.1 496.963 98.1C501.063 98.1 505.063 98.7 508.963 100V86C505.063 87.3 501.063 87.9 496.963 87.9C494.663 87.9 492.463 87.7 490.163 87.3C490.263 82.3 490.563 77.3 491.163 72.3C493.563 71.4 496.163 70.9 498.763 70.9C503.763 70.9 508.763 72.7 512.763 76.3L516.963 80V60H472.963C474.563 71.1 475.363 82.4 475.363 93.6C475.363 101.1 474.963 108.7 474.263 116.2L472.963 130ZM546.92 130H568.02L568.72 118.6C570.82 118.2 572.92 118.1 575.02 118.1C577.12 118.1 579.22 118.2 581.32 118.6L582.02 130H603.12L598.32 117.9C590.92 99.5 587.12 79.8 587.12 60H562.92C562.92 79.8 559.12 99.5 551.72 117.9L546.92 130ZM575.02 107.9C573.32 107.9 571.52 107.8 569.82 107.6C571.12 99.1 573.02 90.6 575.02 82.3C577.02 90.6 578.92 99.1 580.22 107.6C578.52 107.8 576.72 107.9 575.02 107.9ZM607.588 130H629.588L628.288 123.9C625.988 112.8 624.788 101.5 624.788 90.2C624.788 87.8 624.888 85.4 624.988 83C632.388 97.9 637.988 113.7 641.588 130H663.588L662.288 116.2C661.588 108.7 661.188 101.1 661.188 93.6C661.188 82.4 661.988 71.1 663.588 60H643.588C645.488 70 646.388 80 646.388 90.1C646.388 95 646.188 100 645.688 104.9C641.088 96.1 637.188 87.1 633.888 77.7L627.588 60H607.588C609.188 71.1 609.988 82.4 609.988 93.6C609.988 101.1 609.588 108.7 608.888 116.2L607.588 130ZM674.729 130H696.729L695.429 123.9C693.129 112.8 691.929 101.5 691.929 90.2C691.929 87.8 692.029 85.4 692.129 83C699.529 97.9 705.129 113.7 708.729 130H730.729L729.429 116.2C728.729 108.7 728.329 101.1 728.329 93.6C728.329 82.4 729.129 71.1 730.729 60H710.729C712.629 70 713.529 80 713.529 90.1C713.529 95 713.329 100 712.829 104.9C708.229 96.1 704.329 87.1 701.029 77.7L694.729 60H674.729C676.329 71.1 677.129 82.4 677.129 93.6C677.129 101.1 676.729 108.7 676.029 116.2L674.729 130ZM765.893 130C783.193 130 790.293 116 790.293 107.1C790.293 100 788.993 96.7 788.993 85.9C788.993 71 790.893 60 790.893 60H770.793C770.793 60 775.393 76.8 775.393 101.9C775.393 110.2 768.693 112.1 765.893 112.1C763.093 112.1 756.393 110.2 756.393 101.9C756.393 76.8 760.993 60 760.993 60H740.893C740.893 60 742.793 71 742.793 85.9C742.793 96.7 741.493 100 741.493 107.1C741.493 116 748.593 130 765.893 130ZM791.947 130H813.047L813.747 118.6C815.847 118.2 817.947 118.1 820.047 118.1C822.147 118.1 824.247 118.2 826.347 118.6L827.047 130H848.147L843.347 117.9C835.947 99.5 832.147 79.8 832.147 60H807.947C807.947 79.8 804.147 99.5 796.747 117.9L791.947 130ZM820.047 107.9C818.347 107.9 816.547 107.8 814.847 107.6C816.147 99.1 818.047 90.6 820.047 82.3C822.047 90.6 823.947 99.1 825.247 107.6C823.547 107.8 821.747 107.9 820.047 107.9ZM852.127 130H896.127V106L893.627 107.6C889.027 110.4 883.827 111.9 878.627 111.9C875.927 111.9 873.227 111.5 870.627 110.7C869.727 103.9 869.327 97 869.327 90.1C869.327 80 870.227 70 872.127 60H852.127C853.727 71.1 854.527 82.4 854.527 93.6C854.527 101.1 854.127 108.7 853.427 116.2L852.127 130Z" fill="#0F0D98"/>
<g id="BURCH FAMILY">
<path d="M12.5633 323H56.5633C102.363 323 116.363 303.6 116.363 279.4C116.363 257.6 99.9633 248.4 92.9633 245.6C102.963 240.2 108.563 230.8 108.563 217C108.563 198.2 91.9633 183 71.1633 183H12.5633C17.9633 220.2 18.7633 258 15.1633 295.4L12.5633 323ZM47.1633 237.6C47.1633 234.4 47.1633 231.2 47.3633 228.4C47.7633 219.8 48.3633 211.4 49.5633 202.8C61.1633 201.6 72.7633 206 72.7633 220.8C72.7633 244 47.1633 237.6 47.1633 237.6ZM60.5633 288.8C55.7633 288.8 52.3633 288.4 49.9633 288C48.7633 278.8 47.9633 269.4 47.3633 260.2C50.7633 259.6 55.1633 259.2 60.3633 259.2C72.7633 259.2 80.5633 265 80.5633 273.6C80.5633 284.8 72.3633 288.8 60.5633 288.8ZM182.387 323C216.987 323 231.187 295 231.187 277.2C231.187 263 228.587 256.4 228.587 234.8C228.587 205 232.387 183 232.387 183H192.187C192.187 183 201.387 216.6 201.387 266.8C201.387 283.4 187.987 287.2 182.387 287.2C176.787 287.2 163.387 283.4 163.387 266.8C163.387 216.6 172.587 183 172.587 183H132.387C132.387 183 136.187 205 136.187 234.8C136.187 256.4 133.587 263 133.587 277.2C133.587 295 147.787 323 182.387 323ZM252.41 323H296.41L293.81 310.8C290.21 293.8 288.01 276.4 287.21 259.2C294.21 259 312.21 260.4 312.41 282.8C312.41 296.4 311.01 309.8 308.41 323H352.41C349.61 309.6 348.41 296.2 348.41 282.6V281.2C348.41 262 337.81 255 325.21 252.6C339.81 245.4 348.41 230.6 348.41 217C348.41 198.2 331.61 183 311.01 183H252.41C257.61 220.2 258.61 258 255.01 295.4L252.41 323ZM287.01 238.8C287.01 234 287.01 229.6 287.21 225.6C287.61 218 288.21 210.4 289.21 202.8C300.81 201.6 312.61 206 312.61 220.8C312.61 244 287.01 238.8 287.01 238.8ZM420.379 325C447.379 325 468.179 304.8 475.579 278.4L440.779 266C437.979 279.2 430.979 289 420.379 289C405.979 289 398.379 270.8 398.379 250.8C398.379 227 405.379 206.4 419.579 205H421.179C429.779 206 435.579 213.6 438.979 224.8L470.579 215.8C459.979 192.2 440.179 181 420.379 181C391.379 181 362.379 205 362.379 257C362.379 293 382.379 325 420.379 325ZM483.668 323H527.668L525.068 310.8C521.668 294 519.468 277.2 518.468 260.2C522.868 259.6 527.268 259.2 531.668 259.2C537.468 259.2 543.068 259.8 548.868 261C547.868 277.8 545.668 294.4 542.268 310.8L539.668 323H583.668L581.068 295.4C579.668 280.4 578.868 265.2 578.868 250.2C578.868 227.8 580.468 205.2 583.668 183H543.668C547.068 200.8 548.868 218.8 549.268 236.8C543.468 238.2 537.468 238.8 531.668 238.8C527.068 238.8 522.668 238.4 518.068 237.6C518.468 219.4 520.268 201 523.668 183H483.668C486.868 205.2 488.468 227.8 488.468 250.2C488.468 265.2 487.668 280.4 486.268 295.4L483.668 323ZM649.691 323H693.691L691.091 310.8C687.691 294 685.491 277.2 684.491 260.2C688.891 259.4 693.291 259.2 697.691 259.2C705.891 259.2 713.891 260.4 721.691 263V235C713.891 237.6 705.891 238.8 697.691 238.8C693.091 238.8 688.691 238.4 684.091 237.6C684.291 227.6 684.891 217.6 686.091 207.6C690.891 205.8 696.091 204.8 701.291 204.8C711.291 204.8 721.291 208.4 729.291 215.6L737.691 223V183H649.691C652.891 205.2 654.491 227.8 654.491 250.2C654.491 265.2 653.691 280.4 652.291 295.4L649.691 323ZM733.637 323H775.837L777.237 300.2C781.437 299.4 785.637 299.2 789.837 299.2C794.037 299.2 798.237 299.4 802.437 300.2L803.837 323H846.037L836.437 298.8C821.637 262 814.037 222.6 814.037 183H765.637C765.637 222.6 758.037 262 743.237 298.8L733.637 323ZM789.837 278.8C786.437 278.8 782.837 278.6 779.437 278.2C782.037 261.2 785.837 244.2 789.837 227.6C793.837 244.2 797.637 261.2 800.237 278.2C796.837 278.6 793.237 278.8 789.837 278.8ZM854.973 323H898.973L896.373 310.8C891.773 288.6 889.373 266.2 889.373 243.8L914.973 291L940.573 243.8C940.573 266.2 938.173 288.6 933.573 310.8L930.973 323H974.973L972.373 295.4C970.973 280.4 970.173 265.2 970.173 250.2C970.173 227.8 971.773 205.2 974.973 183H934.973C934.973 204 930.173 224.8 920.573 243.6L914.973 255L909.373 243.6C899.773 224.8 894.973 204 894.973 183H854.973C858.173 205.2 859.773 227.8 859.773 250.2C859.773 265.2 858.973 280.4 857.573 295.4L854.973 323ZM996.824 323H1036.82L1034.22 295.4C1032.82 280.4 1032.02 265.2 1032.02 250.2C1032.02 227.8 1033.62 205.2 1036.82 183H996.824C1000.02 205.2 1001.62 227.8 1001.62 250.2C1001.62 265.2 1000.82 280.4 999.424 295.4L996.824 323ZM1054.79 323H1142.79V275L1137.79 278.2C1128.59 283.8 1118.19 286.8 1107.79 286.8C1102.39 286.8 1096.99 286 1091.79 284.4C1089.99 270.8 1089.19 257 1089.19 243.2C1089.19 223 1090.99 203 1094.79 183H1054.79C1057.99 205.2 1059.59 227.8 1059.59 250.2C1059.59 265.2 1058.79 280.4 1057.39 295.4L1054.79 323ZM1161.7 323H1201.7L1199.1 295.4C1197.9 283 1197.3 270.6 1197.1 258.2L1199.1 254.6C1211.7 232.4 1225.7 204.4 1241.7 183.2H1201.1C1196.1 199.8 1188.9 221.2 1181.7 234.8C1174.7 221.2 1167.1 200.4 1162.3 183.2H1121.7C1137.9 204.4 1151.9 232.4 1164.5 254.6L1166.5 258.2C1166.3 270.6 1165.7 283 1164.5 295.4L1161.7 323Z" fill="#0F0D98"/>
</g>
<path id="REUNION" d="M432.605 448H454.605L453.305 441.9C451.505 433.4 450.405 424.7 450.005 416.1C453.505 416 462.505 416.7 462.605 427.9C462.605 434.7 461.905 441.4 460.605 448H482.605C481.205 441.3 480.605 434.6 480.605 427.8V427.1C480.605 417.5 475.305 414 469.005 412.8C476.305 409.2 480.605 401.8 480.605 395C480.605 385.6 472.205 378 461.905 378H432.605C435.205 396.6 435.705 415.5 433.905 434.2L432.605 448ZM449.905 405.9C449.905 403.5 449.905 401.3 450.005 399.3C450.205 395.5 450.505 391.7 451.005 387.9C456.805 387.3 462.705 389.5 462.705 396.9C462.705 408.5 449.905 405.9 449.905 405.9ZM490.566 448H534.566V424L532.066 425.6C527.466 428.4 522.266 429.9 517.066 429.9C514.366 429.9 511.666 429.5 509.066 428.7C508.566 424.7 508.166 420.7 507.966 416.6C510.166 416.2 512.366 416.1 514.566 416.1C518.666 416.1 522.666 416.7 526.566 418V404C522.666 405.3 518.666 405.9 514.566 405.9C512.266 405.9 510.066 405.7 507.766 405.3C507.866 400.3 508.166 395.3 508.766 390.3C511.166 389.4 513.766 388.9 516.366 388.9C521.366 388.9 526.366 390.7 530.366 394.3L534.566 398V378H490.566C492.166 389.1 492.966 400.4 492.966 411.6C492.966 419.1 492.566 426.7 491.866 434.2L490.566 448ZM569.523 448C586.823 448 593.923 434 593.923 425.1C593.923 418 592.623 414.7 592.623 403.9C592.623 389 594.523 378 594.523 378H574.423C574.423 378 579.023 394.8 579.023 419.9C579.023 428.2 572.323 430.1 569.523 430.1C566.723 430.1 560.023 428.2 560.023 419.9C560.023 394.8 564.623 378 564.623 378H544.523C544.523 378 546.423 389 546.423 403.9C546.423 414.7 545.123 418 545.123 425.1C545.123 434 552.223 448 569.523 448ZM603.559 448H625.559L624.259 441.9C621.959 430.8 620.759 419.5 620.759 408.2C620.759 405.8 620.859 403.4 620.959 401C628.359 415.9 633.959 431.7 637.559 448H659.559L658.259 434.2C657.559 426.7 657.159 419.1 657.159 411.6C657.159 400.4 657.959 389.1 659.559 378H639.559C641.459 388 642.359 398 642.359 408.1C642.359 413 642.159 418 641.659 422.9C637.059 414.1 633.159 405.1 629.859 395.7L623.559 378H603.559C605.159 389.1 605.959 400.4 605.959 411.6C605.959 419.1 605.559 426.7 604.859 434.2L603.559 448ZM670.188 448H690.188L688.888 434.2C688.188 426.7 687.788 419.1 687.788 411.6C687.788 400.4 688.588 389.1 690.188 378H670.188C671.787 389.1 672.588 400.4 672.588 411.6C672.588 419.1 672.188 426.7 671.488 434.2L670.188 448ZM726.168 449C743.468 449 755.168 433 755.168 415C755.168 389 740.868 377 726.168 377C711.368 377 697.168 389 697.168 415C697.168 433 706.768 449 726.168 449ZM726.168 431C718.768 431 714.968 422.1 714.968 411.9C714.968 400 718.468 389.7 725.768 389H726.568C733.768 389.7 737.368 400 737.368 411.9C737.368 422.9 733.568 431 726.168 431ZM761.23 448H783.23L781.93 441.9C779.63 430.8 778.43 419.5 778.43 408.2C778.43 405.8 778.53 403.4 778.63 401C786.03 415.9 791.63 431.7 795.23 448H817.23L815.93 434.2C815.23 426.7 814.83 419.1 814.83 411.6C814.83 400.4 815.63 389.1 817.23 378H797.23C799.13 388 800.03 398 800.03 408.1C800.03 413 799.83 418 799.33 422.9C794.73 414.1 790.83 405.1 787.53 395.7L781.23 378H761.23C762.83 389.1 763.63 400.4 763.63 411.6C763.63 419.1 763.23 426.7 762.53 434.2L761.23 448Z" fill="#0F0D98"/>
<g id="QUOTE" clip-path="url(#clip3_52_7401)">
<path id="Vector_7" d="M48.203 546.367C53.1558 543.365 57.8217 539.821 62.1199 535.797L62.6221 535.287C64.1954 538.028 65.9892 540.721 67.8836 543.214C69.7779 545.707 71.8947 548.16 74.1101 550.409C71.3708 551.98 68.7554 553.712 66.2619 555.606C69.2918 558.759 71.866 556.804 71.866 556.804L75.2869 561.309C70.2999 565.096 64.8788 564.139 59.9905 560.875C58.8747 560.075 57.7769 559.132 56.6808 558.188C55.5417 557.026 54.2806 555.699 53.242 554.333L47.4998 546.772L48.203 546.367ZM67.7508 531.521C72.7844 528.462 77.4503 524.918 81.6677 520.952L82.2507 520.385C83.8239 523.121 85.6178 525.819 87.5121 528.311C89.4065 530.804 91.5214 533.254 93.7387 535.503C90.9994 537.074 88.3839 538.81 85.8905 540.703C88.9203 543.856 91.4138 541.962 91.4138 541.962L94.8347 546.464C89.9285 550.19 84.4266 549.293 79.6191 545.972C78.5033 545.169 77.3247 544.29 76.3094 543.286C75.0896 542.181 73.9092 540.797 72.8705 539.426L67.1265 531.869L67.7508 531.521Z" fill="#0F0D98"/>
<path id="Vector_8" d="M108.197 547.547C97.7784 525.442 105.087 506.594 118.336 500.353C130.947 494.414 141.782 498.689 148.882 506.171L137.543 515.754C134.766 512.709 129.899 508.301 124.326 510.927C116.833 514.456 118.015 525.733 123.311 536.97C127.616 546.105 135.007 552.78 141.585 549.681C148.165 546.582 147.865 540.025 145.282 534.545C144.808 533.541 144.157 532.397 143.506 531.252C141.077 532.73 138.643 534.434 136.472 536.464L130.445 523.674C134.842 523.053 139.163 521.798 143.185 519.904C147.205 518.01 150.924 515.478 154.203 512.483L155.796 517.759C157.087 522.397 158.881 526.913 160.991 531.389C164.952 539.792 170.057 547.547 175.833 553.644L173.458 554.763C169.072 556.829 164.152 554.681 162.3 550.753C161.913 549.932 161.708 549.021 161.595 548.07C160.546 556.266 156.372 562.812 149.334 566.126C131.699 574.433 115.947 563.992 108.197 547.547Z" fill="#0F0D98"/>
<path id="Vector_9" d="M173.952 539.484C172.745 531.973 171.22 524.441 169.327 517.107C166.502 506.153 162.869 495.303 158.503 484.852L178.067 479.809C178.732 490.067 180.374 500.073 182.921 509.951C184.663 516.698 186.794 523.344 189.39 529.768C192.134 529.893 194.877 529.606 197.518 528.925C202.605 527.612 207.314 524.836 211.106 520.937L213.15 518.742L219.204 542.21L176.162 553.307L173.952 539.484Z" fill="#0F0D98"/>
<path id="Vector_10" d="M220.252 529.628C225.737 510.364 227.467 490.178 225.37 470.293L249.68 467.729C251.777 487.613 257.683 506.996 267.065 524.689L273.169 536.335L251.973 538.569L250.062 527.196C247.91 527.017 245.789 527.139 243.68 527.361C241.57 527.583 239.471 527.906 237.405 528.53L237.909 540.051L216.712 542.285L220.252 529.628ZM247.791 516.264C245.585 507.864 242.776 499.532 239.887 491.408C238.757 499.955 237.749 508.692 237.344 517.365C239.073 517.386 240.892 517.297 242.6 517.117C244.307 516.934 246.105 516.644 247.791 516.264Z" fill="#0F0D98"/>
<path id="Vector_11" d="M272.703 522.802C275.055 503.969 275.191 484.87 272.994 466.111L272.995 466.007L297.24 466.696C311.467 467.704 325.07 480.013 324.395 503.847C323.88 522.024 313.725 537.909 294.127 537.353L270.995 536.701L272.703 522.802ZM290.599 519.162C295.209 520.607 300.115 518.724 302.555 514.65C304.889 510.776 306.151 505.453 306.3 500.203C306.55 491.415 304.709 484.999 301.991 480.978C299.665 477.477 295.465 475.842 291.399 476.634C289.18 490.723 288.878 504.966 290.399 519.058L290.599 519.162Z" fill="#0F0D98"/>
<path id="Vector_12" d="M364.711 531.066C366.641 525.076 368.275 519.022 369.712 512.925L369.115 510.934C365.29 498.617 361.401 483.291 355.693 471.082L375.732 475.462C376.245 484.468 377.752 495.551 379.74 503.018C384.763 497.082 390.625 487.301 394.884 479.647L414.925 484.03C404.739 492.764 394.807 505.07 386.192 514.664L384.816 516.224C383.577 522.365 382.535 528.548 381.79 534.8L380.095 548.698L360.352 544.383L364.711 531.066Z" fill="#0F0D98"/>
<path id="Vector_13" d="M402.7 519.538C410.833 494.564 428.23 487.477 442.45 492.107C456.575 496.702 466.561 512.702 458.428 537.676C452.797 554.964 436.552 566.674 419.928 561.266C401.288 555.201 397.069 536.83 402.7 519.538ZM442.296 529.133C446.018 517.702 445.779 506.68 439.081 503.757L438.313 503.506C431.079 501.895 424.495 510.697 420.773 522.128C417.581 531.923 418.448 541.661 425.559 543.974C432.67 546.291 438.853 539.699 442.296 529.133Z" fill="#0F0D98"/>
<path id="Vector_14" d="M457.319 548.608C459.791 541.876 462.172 539.201 465.932 528.961C471.12 514.829 473.147 503.739 473.147 503.739L492.212 510.733C492.212 510.733 481.999 525.062 473.261 548.863C470.373 556.736 476.065 560.868 478.722 561.843C481.377 562.815 488.395 563.346 491.284 555.477C500.022 531.676 501.508 514.144 501.508 514.144L520.571 521.138C520.571 521.138 514.94 530.908 509.754 545.036C505.994 555.28 506.079 558.859 503.607 565.591C500.509 574.031 488.9 584.837 472.49 578.815C456.081 572.793 454.221 557.048 457.319 548.608Z" fill="#0F0D98"/>
<path id="Vector_15" d="M529.209 564.444C534.879 540.671 552.362 530.51 566.611 533.907C580.172 537.138 585.967 547.242 586.839 557.521L571.994 557.927C571.729 553.816 570.677 547.335 564.684 545.908C556.626 543.985 550.505 553.533 547.623 565.616C545.28 575.44 546.882 585.271 553.957 586.957C561.034 588.643 564.896 583.335 566.302 577.442C566.559 576.359 566.765 575.06 566.971 573.758C564.15 573.396 561.183 573.209 558.221 573.439L561.502 559.684C565.325 561.944 569.485 563.662 573.808 564.695C578.131 565.724 582.619 566.068 587.052 565.774L585 570.892C583.113 575.322 581.694 579.967 580.546 584.78C578.389 593.818 577.534 603.065 578.239 611.433L575.682 610.823C570.966 609.7 568.464 604.952 569.472 600.726C569.682 599.841 570.089 599.005 570.595 598.191C564.655 603.94 557.306 606.444 549.739 604.639C530.773 600.12 524.991 582.129 529.209 564.444Z" fill="#0F0D98"/>
<path id="Vector_16" d="M592.554 597.732C593.496 590.185 594.138 582.528 594.375 574.956C594.726 563.655 594.273 552.224 593.006 540.969L637.43 542.35L636.802 562.535L632.678 558.669C628.751 554.91 623.76 552.938 618.712 552.78C616.086 552.697 613.446 553.12 610.995 553.956C610.233 558.981 609.772 564.02 609.513 569.063C611.824 569.54 614.039 569.809 616.361 569.881C620.501 570.01 624.557 569.529 628.536 568.342L628.096 582.47C624.2 581.036 620.18 580.307 616.041 580.178C613.819 580.107 611.594 580.139 609.361 580.476C609.434 584.619 609.712 588.668 610.093 592.721C612.692 593.61 615.406 594.098 618.131 594.184C623.382 594.346 628.679 592.997 633.411 590.314L635.986 588.779L635.232 613L590.809 611.623L592.554 597.732Z" fill="#0F0D98"/>
<path id="Vector_17" d="M662.637 595.784C662.149 588.191 661.349 580.548 660.162 573.066C658.963 565.484 657.345 557.866 655.444 550.398C649.549 552.557 644.042 555.886 639.338 560.412L636.491 542.457L688.379 534.24L691.224 552.195C685.351 549.34 679.083 547.88 672.808 547.647C673.311 555.337 674.129 563.084 675.331 570.663C676.515 578.145 678.115 585.662 680.002 593.037L683.478 606.594L663.523 609.758L662.637 595.784Z" fill="#0F0D98"/>
<path id="Vector_18" d="M738.737 577.664C737.058 570.247 735.063 562.826 732.713 555.624C730.331 548.329 727.532 541.062 724.479 533.985C718.997 537.048 714.082 541.202 710.153 546.413L704.513 529.133L754.447 512.842L760.087 530.123C753.838 528.232 747.423 527.773 741.187 528.534C742.898 536.048 744.926 543.565 747.308 550.864C749.658 558.063 752.424 565.233 755.445 572.212L761.02 585.056L741.811 591.319L738.737 577.664Z" fill="#0F0D98"/>
<path id="Vector_19" d="M765.322 548.239C756.651 523.455 766.187 507.279 780.301 502.347C794.318 497.444 811.956 504.116 820.627 528.9C826.633 546.058 820.814 565.211 804.317 570.982C785.819 577.449 771.328 565.398 765.322 548.239ZM802.62 531.88C798.652 520.535 791.785 511.917 784.685 513.653L783.921 513.918C777.194 517.021 777.294 528.007 781.263 539.351C784.664 549.075 791.258 556.291 798.311 553.823C805.369 551.356 806.291 542.368 802.62 531.88Z" fill="#0F0D98"/>
<path id="Vector_20" d="M851.134 552.776L845.584 531.26C845.584 531.26 851.999 533.885 860.606 531.665C866.669 530.101 869.453 525.524 868.37 521.321C865.948 511.931 845.473 519.506 840.554 500.436C837.852 489.97 844.554 481.57 856.293 478.543C865.88 476.071 873.92 476.918 873.92 476.918L878.261 493.739C878.261 493.739 871.839 487.05 862.547 489.446C858.342 490.529 856.354 493.754 857.441 497.957C860.491 509.79 884.866 505.593 889.153 522.218C892.813 536.399 882.918 546.98 871.276 549.982C859.54 553.009 851.134 552.776 851.134 552.776Z" fill="#0F0D98"/>
<path id="Vector_21" d="M894.431 528.677C894.147 521.073 893.552 513.409 892.569 505.898C891.098 494.683 888.816 483.471 885.755 472.564L929.834 466.796L932.457 486.824L927.764 483.668C923.283 480.587 918.038 479.443 913.029 480.096C910.425 480.44 907.888 481.279 905.599 482.495C905.657 487.581 906.012 492.627 906.568 497.649C908.921 497.749 911.153 497.66 913.456 497.358C917.564 496.82 921.493 495.694 925.228 493.883L927.065 507.903C922.989 507.11 918.903 507.035 914.795 507.573C912.592 507.86 910.4 508.251 908.251 508.94C908.986 513.018 909.912 516.974 910.938 520.912C913.647 521.375 916.406 521.421 919.111 521.066C924.32 520.385 929.332 518.201 933.573 514.793L935.866 512.864L939.016 536.898L894.936 542.669L894.431 528.677Z" fill="#0F0D98"/>
<path id="Vector_22" d="M943.751 522.766C944.72 515.224 945.387 507.566 945.646 499.994C946.037 488.689 945.621 477.259 944.394 466L988.814 467.528L988.121 487.714L984.01 483.833C980.095 480.06 975.108 478.069 970.06 477.897C967.438 477.807 964.794 478.22 962.34 479.045C961.561 484.073 961.084 489.109 960.808 494.152C963.118 494.636 965.332 494.912 967.653 494.991C971.793 495.135 975.851 494.668 979.833 493.492L979.349 507.623C975.456 506.174 971.438 505.428 967.298 505.288C965.077 505.21 962.853 505.235 960.617 505.565C960.678 509.707 960.94 513.76 961.306 517.813C963.904 518.713 966.616 519.208 969.343 519.302C974.592 519.485 979.894 518.15 984.637 515.485L987.217 513.957L986.381 538.178L941.958 536.65L943.751 522.766Z" fill="#0F0D98"/>
<path id="Vector_23" d="M1011.64 527.562C1014.23 520.41 1016.56 513.086 1018.47 505.755C1021.32 494.808 1023.41 483.56 1024.67 472.305L1044.23 477.391C1041.55 487.656 1041.25 498.431 1043.55 508.839L1044.84 515.123L1049.03 510.263C1056.11 502.297 1061.11 492.742 1063.78 482.481L1083.33 487.57C1078.94 498.011 1075.29 508.854 1072.43 519.8C1070.52 527.128 1068.98 534.66 1067.76 542.167L1065.52 555.986L1044.01 550.387L1046.83 544.756C1051.9 534.495 1055.93 523.853 1058.78 512.907L1040.26 532.716L1033.75 506.393C1030.9 517.34 1029.22 528.591 1028.64 540.026L1028.36 546.317L1006.86 540.721L1011.64 527.562Z" fill="#0F0D98"/>
<path id="Vector_24" d="M1075.07 545.248C1078.55 538.487 1081.8 531.514 1084.62 524.488C1088.85 513.993 1092.36 503.104 1095.05 492.097L1136.29 508.692L1128.75 527.433L1126.21 522.383C1123.82 517.501 1119.81 513.929 1115.12 512.042C1112.68 511.063 1110.06 510.55 1107.47 510.489C1105.02 514.947 1102.85 519.52 1100.87 524.165C1102.88 525.41 1104.87 526.425 1107.02 527.293C1110.87 528.839 1114.84 529.785 1118.98 530.04L1113.7 543.157C1110.54 540.467 1107.02 538.397 1103.17 536.851C1101.11 536.019 1099.01 535.284 1096.8 534.828C1095.44 538.749 1094.3 542.647 1093.26 546.582C1095.4 548.314 1097.78 549.706 1100.31 550.725C1105.18 552.686 1110.62 553.242 1115.99 552.353L1118.94 551.797L1109.89 574.285L1068.64 557.69L1075.07 545.248Z" fill="#0F0D98"/>
<path id="Vector_25" d="M1121.23 559.279C1126.24 562.378 1131.51 564.935 1137.04 566.943L1137.73 567.162C1134.27 572.445 1131.49 578.17 1129.49 584.16C1124.07 580.749 1118.43 578.016 1112.39 575.878C1115.85 570.595 1118.63 564.867 1120.63 558.881L1121.23 559.279ZM1125.17 553.221C1132.19 540.122 1138.08 526.36 1142.65 512.074L1160.83 520.883C1152.45 533.322 1145.29 546.467 1139.36 560.093L1125.17 553.221Z" fill="#0F0D98"/>
<path id="Vector_26" d="M1181.01 531.572L1176.36 539.846C1175.52 541.345 1174.54 542.88 1173.48 544.139C1172.61 545.273 1171.57 546.309 1170.57 547.253C1166.26 551.205 1160.94 552.848 1155.56 549.828L1158.34 544.9C1158.34 544.9 1161.07 546.431 1163.64 542.895C1160.91 541.36 1158.08 540 1155.15 538.82C1157.04 536.288 1158.8 533.569 1160.33 530.84C1161.86 528.111 1163.27 525.195 1164.46 522.268L1165.11 522.752C1169.83 526.102 1174.94 528.971 1180.35 531.313L1181.01 531.572ZM1202.5 543.644L1197.85 551.922C1197.01 553.418 1195.94 554.903 1194.97 556.212C1194.01 557.299 1193.06 558.382 1192.06 559.329C1187.66 563.231 1182.43 564.921 1176.97 561.854L1179.74 556.922C1179.74 556.922 1182.56 558.508 1185.12 554.968C1182.4 553.432 1179.57 552.077 1176.64 550.893C1178.53 548.364 1180.28 545.646 1181.82 542.916C1183.36 540.187 1184.76 537.271 1185.95 534.344L1186.51 534.778C1191.32 538.175 1196.43 541.044 1201.75 543.34L1202.5 543.644Z" fill="#0F0D98"/>
</g>
</g>
<defs>
<clipPath id="clip0_52_7401">
<rect width="343.903" height="199.648" fill="white" transform="translate(89.1907 682.009) rotate(-15)"/>
</clipPath>
<clipPath id="clip1_52_7401">
<rect width="343.903" height="199.648" fill="white" transform="translate(453.048 675.206)"/>
</clipPath>
<clipPath id="clip2_52_7401">
<rect width="343.903" height="199.648" fill="white" transform="translate(828.624 593) rotate(15)"/>
</clipPath>
<clipPath id="clip3_52_7401">
<rect width="1155" height="147" fill="white" transform="translate(47.5 466)"/>
</clipPath>
</defs>
</svg>
