<svg width="308" height="311" viewBox="0 0 308 311" fill="none" xmlns="http://www.w3.org/2000/svg">
<path d="M77.7189 39H83.7189L83.3289 34.86C83.1189 32.61 82.9989 30.33 82.9989 28.08C82.9989 25.8 83.1189 23.49 83.3289 21.21C85.1589 21.57 86.9289 22.29 88.5189 23.4V18H72.9189V23.4C74.5089 22.29 76.2789 21.57 78.1089 21.21C78.3189 23.49 78.4389 25.8 78.4389 28.08C78.4389 30.33 78.3189 32.61 78.1089 34.86L77.7189 39ZM90.6295 39H97.2295L96.8395 37.17C96.3295 34.65 95.9995 32.13 95.8495 29.58C96.5095 29.49 97.1695 29.43 97.8295 29.43C98.6995 29.43 99.5395 29.52 100.409 29.7C100.259 32.22 99.9295 34.71 99.4195 37.17L99.0295 39H105.629L105.239 34.86C105.029 32.61 104.909 30.33 104.909 28.08C104.909 24.72 105.149 21.33 105.629 18H99.6295C100.139 20.67 100.409 23.37 100.469 26.07C99.5995 26.28 98.6995 26.37 97.8295 26.37C97.1395 26.37 96.4795 26.31 95.7895 26.19C95.8495 23.46 96.1195 20.7 96.6295 18H90.6295C91.1095 21.33 91.3495 24.72 91.3495 28.08C91.3495 30.33 91.2295 32.61 91.0195 34.86L90.6295 39ZM108.633 39H121.833V31.8L121.083 32.28C119.703 33.12 118.143 33.57 116.583 33.57C115.773 33.57 114.963 33.45 114.183 33.21C114.033 32.01 113.913 30.81 113.853 29.58C114.513 29.46 115.173 29.43 115.833 29.43C117.063 29.43 118.263 29.61 119.433 30V25.8C118.263 26.19 117.063 26.37 115.833 26.37C115.143 26.37 114.483 26.31 113.793 26.19C113.823 24.69 113.913 23.19 114.093 21.69C114.813 21.42 115.593 21.27 116.373 21.27C117.873 21.27 119.373 21.81 120.573 22.89L121.833 24V18H108.633C109.113 21.33 109.353 24.72 109.353 28.08C109.353 30.33 109.233 32.61 109.023 34.86L108.633 39ZM130.82 39H137.15L137.36 35.58C137.99 35.46 138.62 35.43 139.25 35.43C139.88 35.43 140.51 35.46 141.14 35.58L141.35 39H147.68L146.24 35.37C144.02 29.85 142.88 23.94 142.88 18H135.62C135.62 23.94 134.48 29.85 132.26 35.37L130.82 39ZM139.25 32.37C138.74 32.37 138.2 32.34 137.69 32.28C138.08 29.73 138.65 27.18 139.25 24.69C139.85 27.18 140.42 29.73 140.81 32.28C140.3 32.34 139.76 32.37 139.25 32.37ZM149.021 39H155.621L155.231 37.17C154.541 33.84 154.181 30.45 154.181 27.06C154.181 26.34 154.211 25.62 154.241 24.9C156.461 29.37 158.141 34.11 159.221 39H165.821L165.431 34.86C165.221 32.61 165.101 30.33 165.101 28.08C165.101 24.72 165.341 21.33 165.821 18H159.821C160.391 21 160.661 24 160.661 27.03C160.661 28.5 160.601 30 160.451 31.47C159.071 28.83 157.901 26.13 156.911 23.31L155.021 18H149.021C149.501 21.33 149.741 24.72 149.741 28.08C149.741 30.33 149.621 32.61 149.411 34.86L149.021 39ZM169.163 39H175.763L175.373 37.17C174.683 33.84 174.323 30.45 174.323 27.06C174.323 26.34 174.353 25.62 174.383 24.9C176.603 29.37 178.283 34.11 179.363 39H185.963L185.573 34.86C185.363 32.61 185.243 30.33 185.243 28.08C185.243 24.72 185.483 21.33 185.963 18H179.963C180.533 21 180.803 24 180.803 27.03C180.803 28.5 180.743 30 180.593 31.47C179.213 28.83 178.043 26.13 177.053 23.31L175.163 18H169.163C169.643 21.33 169.883 24.72 169.883 28.08C169.883 30.33 169.763 32.61 169.553 34.86L169.163 39ZM196.512 39C201.702 39 203.832 34.8 203.832 32.13C203.832 30 203.442 29.01 203.442 25.77C203.442 21.3 204.012 18 204.012 18H197.982C197.982 18 199.362 23.04 199.362 30.57C199.362 33.06 197.352 33.63 196.512 33.63C195.672 33.63 193.662 33.06 193.662 30.57C193.662 23.04 195.042 18 195.042 18H189.012C189.012 18 189.582 21.3 189.582 25.77C189.582 29.01 189.192 30 189.192 32.13C189.192 34.8 191.322 39 196.512 39ZM204.328 39H210.658L210.868 35.58C211.498 35.46 212.128 35.43 212.758 35.43C213.388 35.43 214.018 35.46 214.648 35.58L214.858 39H221.188L219.748 35.37C217.528 29.85 216.388 23.94 216.388 18H209.128C209.128 23.94 207.988 29.85 205.768 35.37L204.328 39ZM212.758 32.37C212.248 32.37 211.708 32.34 211.198 32.28C211.588 29.73 212.158 27.18 212.758 24.69C213.358 27.18 213.928 29.73 214.318 32.28C213.808 32.34 213.268 32.37 212.758 32.37ZM222.382 39H235.582V31.8L234.832 32.28C233.452 33.12 231.892 33.57 230.332 33.57C229.522 33.57 228.712 33.45 227.932 33.21C227.662 31.17 227.542 29.1 227.542 27.03C227.542 24 227.812 21 228.382 18H222.382C222.862 21.33 223.102 24.72 223.102 28.08C223.102 30.33 222.982 32.61 222.772 34.86L222.382 39Z" fill="#0F0D98"/>
<path d="M11.1952 128H33.244C56.1949 128 63.2104 118.278 63.2104 106.152C63.2104 95.2274 54.9922 90.6172 51.4844 89.2141C56.4955 86.5081 59.3017 81.7976 59.3017 74.8823C59.3017 65.4614 50.9833 57.8445 40.5602 57.8445H11.1952C13.9011 76.4859 14.302 95.4278 12.498 114.169L11.1952 128ZM28.5336 85.2052C28.5336 83.6016 28.5336 81.9981 28.6338 80.595C28.8342 76.2854 29.1349 72.0761 29.7362 67.7665C35.5491 67.1652 41.362 69.3701 41.362 76.7865C41.362 88.4123 28.5336 85.2052 28.5336 85.2052ZM35.2484 110.862C32.8431 110.862 31.1393 110.662 29.9367 110.461C29.3353 105.851 28.9345 101.14 28.6338 96.5303C30.3376 96.2296 32.5425 96.0292 35.1482 96.0292C41.362 96.0292 45.2707 98.9356 45.2707 103.245C45.2707 108.858 41.1616 110.862 35.2484 110.862ZM96.2954 128C113.634 128 120.75 113.969 120.75 105.049C120.75 97.9334 119.447 94.6261 119.447 83.8021C119.447 68.869 121.351 57.8445 121.351 57.8445H101.206C101.206 57.8445 105.817 74.6819 105.817 99.8376C105.817 108.156 99.1017 110.06 96.2954 110.06C93.4892 110.06 86.7743 108.156 86.7743 99.8376C86.7743 74.6819 91.3846 57.8445 91.3846 57.8445H71.2399C71.2399 57.8445 73.1441 68.869 73.1441 83.8021C73.1441 94.6261 71.8412 97.9334 71.8412 105.049C71.8412 113.969 78.957 128 96.2954 128ZM131.385 128H153.434L152.131 121.886C150.327 113.368 149.224 104.648 148.824 96.0292C152.331 95.9289 161.351 96.6305 161.452 107.855C161.452 114.67 160.75 121.385 159.447 128H181.496C180.093 121.285 179.492 114.57 179.492 107.755V107.054C179.492 97.4323 174.18 93.9245 167.866 92.7218C175.182 89.1138 179.492 81.6974 179.492 74.8823C179.492 65.4614 171.073 57.8445 160.75 57.8445H131.385C133.991 76.4859 134.492 95.4278 132.688 114.169L131.385 128ZM148.723 85.8065C148.723 83.4012 148.723 81.1963 148.824 79.1919C149.024 75.3834 149.325 71.575 149.826 67.7665C155.639 67.1652 161.552 69.3701 161.552 76.7865C161.552 88.4123 148.723 85.8065 148.723 85.8065ZM215.556 129.002C229.086 129.002 239.509 118.88 243.217 105.65L225.778 99.4367C224.375 106.051 220.868 110.962 215.556 110.962C208.34 110.962 204.531 101.842 204.531 91.8198C204.531 79.8934 208.039 69.5705 215.155 68.869H215.957C220.266 69.3701 223.173 73.1785 224.876 78.791L240.712 74.281C235.4 62.4548 225.478 56.8423 215.556 56.8423C201.024 56.8423 186.491 68.869 186.491 94.9267C186.491 112.967 196.514 129.002 215.556 129.002ZM247.271 128H269.319L268.017 121.886C266.313 113.468 265.21 105.049 264.709 96.5303C266.914 96.2296 269.119 96.0292 271.324 96.0292C274.23 96.0292 277.037 96.3298 279.943 96.9312C279.442 105.35 278.339 113.668 276.636 121.886L275.333 128H297.382L296.079 114.169C295.377 106.653 294.976 99.0358 294.976 91.5192C294.976 80.2943 295.778 68.9692 297.382 57.8445H277.337C279.041 66.7643 279.943 75.7843 280.143 84.8043C277.237 85.5058 274.23 85.8065 271.324 85.8065C269.019 85.8065 266.814 85.6061 264.509 85.2052C264.709 76.085 265.611 66.8645 267.315 57.8445H247.271C248.874 68.9692 249.676 80.2943 249.676 91.5192C249.676 99.0358 249.275 106.653 248.573 114.169L247.271 128ZM6.9314 218H28.9803L27.6774 211.886C25.9736 203.468 24.8712 195.049 24.37 186.53C26.5749 186.129 28.7798 186.029 30.9847 186.029C35.0938 186.029 39.1027 186.63 43.0113 187.933V173.902C39.1027 175.205 35.0938 175.807 30.9847 175.807C28.6796 175.807 26.4747 175.606 24.1696 175.205C24.2698 170.194 24.5705 165.183 25.1718 160.172C27.5771 159.27 30.1829 158.769 32.7887 158.769C37.7998 158.769 42.8109 160.573 46.8198 164.181L51.0291 167.889V147.845H6.9314C8.53495 158.969 9.33673 170.294 9.33673 181.519C9.33673 189.036 8.93584 196.653 8.23429 204.169L6.9314 218ZM48.9973 218H70.1441L70.8457 206.575C72.9503 206.174 75.055 206.074 77.1597 206.074C79.2643 206.074 81.369 206.174 83.4737 206.575L84.1752 218H105.322L100.511 205.873C93.095 187.432 89.2865 167.689 89.2865 147.845H65.0328C65.0328 167.689 61.2244 187.432 53.8079 205.873L48.9973 218ZM77.1597 195.851C75.4559 195.851 73.6519 195.751 71.9481 195.55C73.251 187.031 75.1552 178.513 77.1597 170.194C79.1641 178.513 81.0683 187.031 82.3712 195.55C80.6674 195.751 78.8634 195.851 77.1597 195.851ZM109.8 218H131.849L130.546 211.886C128.241 200.762 127.038 189.537 127.038 178.312L139.867 201.964L152.695 178.312C152.695 189.537 151.492 200.762 149.187 211.886L147.884 218H169.933L168.63 204.169C167.929 196.653 167.528 189.036 167.528 181.519C167.528 170.294 168.33 158.969 169.933 147.845H149.889C149.889 158.368 147.483 168.791 142.673 178.212L139.867 183.924L137.06 178.212C132.25 168.791 129.844 158.368 129.844 147.845H109.8C111.404 158.969 112.205 170.294 112.205 181.519C112.205 189.036 111.804 196.653 111.103 204.169L109.8 218ZM180.883 218H200.928L199.625 204.169C198.923 196.653 198.522 189.036 198.522 181.519C198.522 170.294 199.324 158.969 200.928 147.845H180.883C182.487 158.969 183.289 170.294 183.289 181.519C183.289 189.036 182.888 196.653 182.186 204.169L180.883 218ZM209.928 218H254.026V193.947L251.52 195.55C246.91 198.356 241.698 199.86 236.487 199.86C233.781 199.86 231.075 199.459 228.469 198.657C227.567 191.842 227.166 184.927 227.166 178.011C227.166 167.889 228.068 157.867 229.972 147.845H209.928C211.532 158.969 212.333 170.294 212.333 181.519C212.333 189.036 211.933 196.653 211.231 204.169L209.928 218ZM263.504 218H283.548L282.245 204.169C281.644 197.956 281.343 191.742 281.243 185.528L282.245 183.724C288.559 172.599 295.575 158.568 303.593 147.945H283.248C280.742 156.263 277.134 166.987 273.526 173.802C270.018 166.987 266.21 156.564 263.804 147.945H243.459C251.577 158.568 258.593 172.599 264.907 183.724L265.909 185.528C265.809 191.742 265.508 197.956 264.907 204.169L263.504 218Z" fill="#0F0D98"/>
<path d="M96.5258 259H103.126L102.736 257.17C102.196 254.62 101.866 252.01 101.746 249.43C102.796 249.4 105.496 249.61 105.526 252.97C105.526 255.01 105.316 257.02 104.926 259H111.526C111.106 256.99 110.926 254.98 110.926 252.94V252.73C110.926 249.85 109.336 248.8 107.446 248.44C109.636 247.36 110.926 245.14 110.926 243.1C110.926 240.28 108.406 238 105.316 238H96.5258C97.3058 243.58 97.4558 249.25 96.9158 254.86L96.5258 259ZM101.716 246.37C101.716 245.65 101.716 244.99 101.746 244.39C101.806 243.25 101.896 242.11 102.046 240.97C103.786 240.79 105.556 241.45 105.556 243.67C105.556 247.15 101.716 246.37 101.716 246.37ZM113.914 259H127.114V251.8L126.364 252.28C124.984 253.12 123.424 253.57 121.864 253.57C121.054 253.57 120.244 253.45 119.464 253.21C119.314 252.01 119.194 250.81 119.134 249.58C119.794 249.46 120.454 249.43 121.114 249.43C122.344 249.43 123.544 249.61 124.714 250V245.8C123.544 246.19 122.344 246.37 121.114 246.37C120.424 246.37 119.764 246.31 119.074 246.19C119.104 244.69 119.194 243.19 119.374 241.69C120.094 241.42 120.874 241.27 121.654 241.27C123.154 241.27 124.654 241.81 125.854 242.89L127.114 244V238H113.914C114.394 241.33 114.634 244.72 114.634 248.08C114.634 250.33 114.514 252.61 114.304 254.86L113.914 259ZM137.601 259C142.791 259 144.921 254.8 144.921 252.13C144.921 250 144.531 249.01 144.531 245.77C144.531 241.3 145.101 238 145.101 238H139.071C139.071 238 140.451 243.04 140.451 250.57C140.451 253.06 138.441 253.63 137.601 253.63C136.761 253.63 134.751 253.06 134.751 250.57C134.751 243.04 136.131 238 136.131 238H130.101C130.101 238 130.671 241.3 130.671 245.77C130.671 249.01 130.281 250 130.281 252.13C130.281 254.8 132.411 259 137.601 259ZM147.812 259H154.412L154.022 257.17C153.332 253.84 152.972 250.45 152.972 247.06C152.972 246.34 153.002 245.62 153.032 244.9C155.252 249.37 156.932 254.11 158.012 259H164.612L164.222 254.86C164.012 252.61 163.892 250.33 163.892 248.08C163.892 244.72 164.132 241.33 164.612 238H158.612C159.182 241 159.452 244 159.452 247.03C159.452 248.5 159.392 250 159.242 251.47C157.862 248.83 156.692 246.13 155.702 243.31L153.812 238H147.812C148.292 241.33 148.532 244.72 148.532 248.08C148.532 250.33 148.412 252.61 148.202 254.86L147.812 259ZM167.8 259H173.8L173.41 254.86C173.2 252.61 173.08 250.33 173.08 248.08C173.08 244.72 173.32 241.33 173.8 238H167.8C168.28 241.33 168.52 244.72 168.52 248.08C168.52 250.33 168.4 252.61 168.19 254.86L167.8 259ZM184.595 259.3C189.785 259.3 193.295 254.5 193.295 249.1C193.295 241.3 189.005 237.7 184.595 237.7C180.155 237.7 175.895 241.3 175.895 249.1C175.895 254.5 178.775 259.3 184.595 259.3ZM184.595 253.9C182.375 253.9 181.235 251.23 181.235 248.17C181.235 244.6 182.285 241.51 184.475 241.3H184.715C186.875 241.51 187.955 244.6 187.955 248.17C187.955 251.47 186.815 253.9 184.595 253.9ZM195.113 259H201.713L201.323 257.17C200.633 253.84 200.273 250.45 200.273 247.06C200.273 246.34 200.303 245.62 200.333 244.9C202.553 249.37 204.233 254.11 205.313 259H211.913L211.523 254.86C211.313 252.61 211.193 250.33 211.193 248.08C211.193 244.72 211.433 241.33 211.913 238H205.913C206.483 241 206.753 244 206.753 247.03C206.753 248.5 206.693 250 206.543 251.47C205.163 248.83 203.993 246.13 203.003 243.31L201.113 238H195.113C195.593 241.33 195.833 244.72 195.833 248.08C195.833 250.33 195.713 252.61 195.503 254.86L195.113 259Z" fill="#0F0D98"/>
<g clip-path="url(#clip0_68_5)">
<path d="M0.675263 292.397C1.99393 291.598 3.23619 290.654 4.38055 289.583L4.51428 289.447C4.93314 290.177 5.41075 290.894 5.9151 291.558C6.41946 292.221 6.98304 292.875 7.57288 293.473C6.84357 293.892 6.14722 294.353 5.48334 294.857C6.29003 295.696 6.97539 295.176 6.97539 295.176L7.88619 296.375C6.55844 297.384 5.1151 297.129 3.81363 296.26C3.51656 296.047 3.22426 295.796 2.93244 295.545C2.62916 295.235 2.2934 294.882 2.01686 294.518L0.488037 292.505L0.675263 292.397ZM5.87976 288.445C7.21993 287.63 8.46218 286.687 9.58504 285.63L9.74026 285.48C10.1591 286.208 10.6367 286.926 11.1411 287.59C11.6454 288.254 12.2085 288.906 12.7989 289.505C12.0695 289.923 11.3732 290.385 10.7093 290.889C11.516 291.729 12.1799 291.224 12.1799 291.224L13.0907 292.423C11.7844 293.415 10.3196 293.176 9.03961 292.292C8.74254 292.078 8.42875 291.844 8.15842 291.577C7.83365 291.283 7.51938 290.914 7.24284 290.549L5.71354 288.537L5.87976 288.445Z" fill="#0F0D98"/>
<path d="M16.6486 292.711C13.8746 286.826 15.8204 281.808 19.348 280.146C22.7056 278.565 25.5904 279.703 27.4807 281.695L24.4618 284.247C23.7224 283.436 22.4267 282.262 20.9427 282.961C18.9478 283.901 19.2625 286.903 20.6724 289.895C21.8187 292.327 23.7864 294.105 25.5378 293.279C27.2897 292.454 27.2099 290.709 26.5222 289.25C26.3961 288.982 26.2227 288.678 26.0493 288.373C25.4027 288.766 24.7545 289.22 24.1766 289.761L22.5719 286.355C23.7425 286.19 24.8931 285.856 25.9638 285.352C27.0342 284.847 28.0242 284.173 28.8973 283.376L29.3214 284.781C29.6653 286.015 30.1429 287.218 30.7046 288.409C31.7591 290.647 33.1184 292.711 34.6563 294.335L34.0239 294.633C32.8562 295.183 31.5461 294.611 31.0532 293.565C30.9501 293.346 30.8956 293.104 30.8655 292.851C30.5861 295.033 29.4747 296.775 27.6011 297.658C22.9057 299.869 18.7119 297.09 16.6486 292.711Z" fill="#0F0D98"/>
<path d="M34.1549 290.565C33.8335 288.565 33.4275 286.56 32.9236 284.607C32.1714 281.69 31.2042 278.802 30.0417 276.019L35.2505 274.676C35.4277 277.408 35.8647 280.072 36.543 282.702C37.0067 284.498 37.5741 286.267 38.2652 287.978C38.9959 288.011 39.7262 287.935 40.4292 287.753C41.7837 287.404 43.0375 286.665 44.0471 285.627L44.5911 285.042L46.203 291.29L34.7433 294.245L34.1549 290.565Z" fill="#0F0D98"/>
<path d="M46.4823 287.94C47.9429 282.812 48.4033 277.437 47.845 272.143L54.3175 271.46C54.8758 276.754 56.4481 281.915 58.946 286.626L60.5713 289.726L54.9279 290.321L54.4192 287.293C53.8461 287.245 53.2816 287.278 52.7199 287.337C52.1583 287.396 51.5994 287.482 51.0492 287.648L51.1834 290.716L45.54 291.31L46.4823 287.94ZM53.8146 284.382C53.2271 282.146 52.4792 279.928 51.7102 277.765C51.4093 280.04 51.1409 282.367 51.033 284.676C51.4934 284.681 51.9777 284.657 52.4324 284.61C52.8871 284.561 53.3656 284.484 53.8146 284.382Z" fill="#0F0D98"/>
<path d="M60.4471 286.123C61.0733 281.109 61.1096 276.024 60.5245 271.03L60.525 271.002L66.9798 271.185C70.7677 271.454 74.3895 274.731 74.2099 281.076C74.0728 285.916 71.3691 290.145 66.1512 289.997L59.9924 289.824L60.4471 286.123ZM65.2117 285.154C66.4392 285.539 67.7454 285.037 68.395 283.953C69.0163 282.921 69.3526 281.504 69.3922 280.106C69.4586 277.767 68.9686 276.058 68.245 274.988C67.6256 274.056 66.5075 273.62 65.4247 273.831C64.8339 277.582 64.7537 281.374 65.1587 285.126L65.2117 285.154Z" fill="#0F0D98"/>
<path d="M84.9437 288.323C85.4576 286.729 85.8927 285.117 86.2752 283.493L86.1162 282.963C85.0979 279.684 84.0625 275.604 82.5427 272.353L87.8781 273.519C88.0147 275.917 88.4159 278.868 88.9451 280.856C90.2824 279.275 91.8432 276.671 92.977 274.634L98.3129 275.8C95.601 278.126 92.9565 281.402 90.663 283.956L90.2967 284.372C89.9667 286.007 89.6892 287.653 89.491 289.317L89.0396 293.018L83.7831 291.869L84.9437 288.323Z" fill="#0F0D98"/>
<path d="M95.0578 285.254C97.2233 278.605 101.855 276.718 105.641 277.951C109.402 279.174 112.061 283.434 109.895 290.083C108.396 294.686 104.071 297.804 99.6447 296.364C94.6819 294.749 93.5586 289.858 95.0578 285.254ZM105.6 287.809C106.591 284.765 106.528 281.831 104.744 281.053L104.54 280.986C102.614 280.557 100.861 282.9 99.8697 285.944C99.02 288.552 99.2507 291.144 101.144 291.76C103.037 292.377 104.683 290.622 105.6 287.809Z" fill="#0F0D98"/>
<path d="M109.6 292.994C110.258 291.202 110.892 290.489 111.893 287.763C113.274 284 113.814 281.048 113.814 281.048L118.89 282.91C118.89 282.91 116.171 286.725 113.845 293.062C113.076 295.158 114.591 296.258 115.298 296.518C116.005 296.776 117.874 296.918 118.643 294.823C120.969 288.486 121.365 283.818 121.365 283.818L126.44 285.68C126.44 285.68 124.941 288.281 123.56 292.043C122.559 294.77 122.582 295.723 121.924 297.516C121.099 299.763 118.008 302.64 113.639 301.036C109.27 299.433 108.775 295.241 109.6 292.994Z" fill="#0F0D98"/>
<path d="M128.74 297.21C130.25 290.881 134.905 288.175 138.698 289.08C142.309 289.94 143.852 292.63 144.084 295.367L140.132 295.475C140.061 294.381 139.781 292.655 138.185 292.275C136.04 291.763 134.41 294.305 133.643 297.522C133.019 300.138 133.446 302.755 135.329 303.204C137.213 303.653 138.242 302.24 138.616 300.671C138.684 300.382 138.739 300.037 138.794 299.69C138.043 299.593 137.253 299.544 136.465 299.605L137.338 295.943C138.356 296.544 139.463 297.002 140.614 297.277C141.766 297.551 142.96 297.643 144.141 297.564L143.594 298.927C143.092 300.106 142.714 301.343 142.408 302.624C141.834 305.031 141.606 307.493 141.794 309.721L141.114 309.558C139.858 309.259 139.192 307.995 139.46 306.87C139.516 306.634 139.624 306.412 139.759 306.195C138.178 307.726 136.221 308.392 134.206 307.912C129.157 306.709 127.617 301.919 128.74 297.21Z" fill="#0F0D98"/>
<path d="M145.606 306.073C145.856 304.064 146.027 302.025 146.09 300.009C146.184 297 146.063 293.957 145.726 290.96L157.553 291.328L157.386 296.702L156.288 295.673C155.243 294.672 153.914 294.147 152.57 294.105C151.871 294.083 151.168 294.195 150.515 294.418C150.312 295.756 150.19 297.097 150.121 298.44C150.736 298.567 151.326 298.639 151.944 298.658C153.046 298.692 154.126 298.564 155.185 298.248L155.068 302.009C154.031 301.627 152.961 301.434 151.859 301.399C151.267 301.38 150.675 301.389 150.08 301.479C150.1 302.581 150.174 303.66 150.275 304.739C150.967 304.975 151.69 305.105 152.415 305.128C153.813 305.171 155.224 304.812 156.484 304.098L157.169 303.689L156.968 310.138L145.141 309.771L145.606 306.073Z" fill="#0F0D98"/>
<path d="M164.265 305.554C164.135 303.533 163.922 301.498 163.606 299.506C163.286 297.487 162.856 295.459 162.349 293.47C160.78 294.045 159.314 294.932 158.061 296.137L157.303 291.356L171.118 289.168L171.876 293.949C170.312 293.189 168.643 292.8 166.973 292.738C167.106 294.785 167.324 296.848 167.644 298.866C167.959 300.858 168.385 302.859 168.888 304.823L169.813 308.432L164.501 309.275L164.265 305.554Z" fill="#0F0D98"/>
<path d="M184.526 300.73C184.079 298.755 183.547 296.779 182.922 294.862C182.288 292.919 181.542 290.985 180.73 289.101C179.27 289.916 177.961 291.022 176.915 292.41L175.414 287.809L188.709 283.471L190.21 288.072C188.546 287.569 186.838 287.447 185.178 287.649C185.634 289.65 186.173 291.651 186.808 293.595C187.433 295.511 188.17 297.42 188.974 299.278L190.458 302.698L185.344 304.365L184.526 300.73Z" fill="#0F0D98"/>
<path d="M191.604 292.896C189.295 286.297 191.834 281.99 195.592 280.677C199.324 279.372 204.02 281.148 206.329 287.747C207.928 292.315 206.378 297.414 201.986 298.951C197.061 300.673 193.203 297.464 191.604 292.896ZM201.534 288.54C200.478 285.52 198.65 283.225 196.759 283.687L196.556 283.758C194.765 284.584 194.791 287.509 195.848 290.529C196.753 293.118 198.509 295.039 200.387 294.382C202.266 293.725 202.511 291.332 201.534 288.54Z" fill="#0F0D98"/>
<path d="M214.451 294.104L212.973 288.375C212.973 288.375 214.681 289.074 216.973 288.483C218.587 288.066 219.328 286.848 219.04 285.729C218.395 283.229 212.944 285.246 211.634 280.168C210.915 277.382 212.699 275.145 215.824 274.339C218.377 273.681 220.517 273.907 220.517 273.907L221.673 278.385C221.673 278.385 219.963 276.604 217.489 277.242C216.37 277.531 215.841 278.389 216.13 279.508C216.942 282.659 223.432 281.541 224.573 285.968C225.548 289.743 222.913 292.56 219.813 293.36C216.689 294.166 214.451 294.104 214.451 294.104Z" fill="#0F0D98"/>
<path d="M225.978 287.687C225.903 285.663 225.744 283.622 225.482 281.623C225.091 278.637 224.483 275.651 223.668 272.748L235.404 271.212L236.103 276.544L234.853 275.704C233.66 274.884 232.264 274.579 230.93 274.753C230.237 274.845 229.561 275.068 228.952 275.392C228.967 276.746 229.062 278.089 229.21 279.426C229.836 279.453 230.43 279.429 231.044 279.349C232.137 279.206 233.183 278.906 234.178 278.424L234.667 282.156C233.582 281.945 232.494 281.925 231.4 282.069C230.813 282.145 230.23 282.249 229.658 282.432C229.853 283.518 230.1 284.571 230.373 285.62C231.094 285.743 231.829 285.756 232.549 285.661C233.936 285.48 235.271 284.898 236.4 283.991L237.01 283.477L237.849 289.876L226.113 291.413L225.978 287.687Z" fill="#0F0D98"/>
<path d="M239.11 286.114C239.368 284.105 239.545 282.067 239.614 280.051C239.718 277.041 239.607 273.998 239.281 271L251.107 271.407L250.923 276.781L249.828 275.748C248.786 274.743 247.458 274.213 246.114 274.167C245.416 274.144 244.712 274.253 244.059 274.473C243.851 275.812 243.724 277.153 243.651 278.495C244.266 278.624 244.855 278.698 245.473 278.719C246.576 278.757 247.656 278.633 248.716 278.32L248.587 282.082C247.551 281.696 246.481 281.498 245.379 281.46C244.787 281.439 244.195 281.446 243.6 281.534C243.616 282.637 243.686 283.716 243.784 284.795C244.475 285.035 245.197 285.166 245.923 285.191C247.321 285.24 248.733 284.885 249.995 284.175L250.682 283.768L250.46 290.217L238.632 289.81L239.11 286.114Z" fill="#0F0D98"/>
<path d="M257.184 287.39C257.875 285.486 258.494 283.536 259.002 281.584C259.762 278.67 260.318 275.675 260.655 272.679L265.861 274.033C265.149 276.766 265.069 279.634 265.681 282.406L266.024 284.079L267.139 282.785C269.025 280.664 270.355 278.12 271.067 275.388L276.273 276.743C275.103 279.523 274.13 282.41 273.371 285.324C272.862 287.275 272.452 289.28 272.126 291.279L271.529 294.958L265.802 293.468L266.554 291.968C267.905 289.236 268.977 286.403 269.735 283.489L264.804 288.763L263.071 281.754C262.313 284.669 261.866 287.665 261.712 290.709L261.638 292.384L255.911 290.894L257.184 287.39Z" fill="#0F0D98"/>
<path d="M274.071 292.099C275 290.299 275.863 288.443 276.616 286.572C277.741 283.778 278.676 280.879 279.392 277.948L290.372 282.367L288.363 287.356L287.687 286.012C287.051 284.712 285.984 283.761 284.735 283.258C284.087 282.998 283.388 282.861 282.699 282.845C282.046 284.032 281.47 285.249 280.942 286.486C281.476 286.817 282.005 287.088 282.579 287.319C283.603 287.73 284.661 287.982 285.764 288.05L284.358 291.542C283.516 290.826 282.578 290.275 281.555 289.864C281.005 289.642 280.446 289.446 279.857 289.325C279.495 290.369 279.193 291.407 278.916 292.454C279.485 292.916 280.119 293.286 280.792 293.557C282.089 294.08 283.539 294.228 284.968 293.991L285.752 293.843L283.342 299.83L272.361 295.412L274.071 292.099Z" fill="#0F0D98"/>
<path d="M286.361 295.835C287.695 296.66 289.099 297.341 290.573 297.876L290.754 297.934C289.833 299.34 289.094 300.864 288.56 302.459C287.118 301.551 285.616 300.823 284.01 300.254C284.93 298.848 285.67 297.323 286.203 295.729L286.361 295.835ZM287.412 294.222C289.281 290.735 290.848 287.071 292.064 283.267L296.906 285.612C294.674 288.924 292.768 292.424 291.188 296.052L287.412 294.222Z" fill="#0F0D98"/>
<path d="M302.279 288.458L301.04 290.661C300.817 291.06 300.556 291.469 300.274 291.804C300.043 292.106 299.765 292.382 299.499 292.633C298.352 293.685 296.935 294.123 295.504 293.319L296.242 292.007C296.242 292.007 296.969 292.414 297.653 291.473C296.926 291.064 296.173 290.702 295.393 290.388C295.895 289.714 296.364 288.99 296.773 288.263C297.181 287.537 297.556 286.76 297.871 285.981L298.045 286.11C299.303 287.002 300.663 287.766 302.101 288.389L302.279 288.458ZM308 291.672L306.762 293.876C306.537 294.275 306.254 294.67 305.996 295.018C305.741 295.308 305.486 295.596 305.221 295.848C304.05 296.887 302.655 297.337 301.201 296.521L301.94 295.208C301.94 295.208 302.69 295.63 303.374 294.687C302.648 294.278 301.894 293.917 301.115 293.602C301.617 292.929 302.085 292.205 302.494 291.478C302.903 290.752 303.277 289.975 303.592 289.196L303.743 289.312C305.024 290.216 306.384 290.98 307.799 291.591L308 291.672Z" fill="#0F0D98"/>
</g>
<defs>
<clipPath id="clip0_68_5">
<rect width="307.512" height="39.1378" fill="white" transform="translate(0.488281 271)"/>
</clipPath>
</defs>
</svg>
