<svg width="1250" height="613" viewBox="0 0 1250 613" fill="none" xmlns="http://www.w3.org/2000/svg">
<path d="M386.555 121H405.251L404.035 108.1C403.381 101.089 403.007 93.9851 403.007 86.9744C403.007 79.8701 403.381 72.6724 404.035 65.5681C409.737 66.6899 415.253 68.9333 420.207 72.3919V55.5661H371.599V72.3919C376.553 68.9333 382.068 66.6899 387.77 65.5681C388.425 72.6724 388.799 79.8701 388.799 86.9744C388.799 93.9851 388.425 101.089 387.77 108.1L386.555 121ZM426.783 121H447.348L446.133 115.298C444.544 107.446 443.515 99.5938 443.048 91.6482C445.105 91.3678 447.161 91.1808 449.218 91.1808C451.928 91.1808 454.546 91.4613 457.257 92.0221C456.789 99.8742 455.761 107.633 454.172 115.298L452.957 121H473.522L472.306 108.1C471.652 101.089 471.278 93.9851 471.278 86.9744C471.278 76.5049 472.026 65.942 473.522 55.5661H454.826C456.415 63.8855 457.257 72.2985 457.444 80.7114C454.733 81.3657 451.928 81.6462 449.218 81.6462C447.068 81.6462 445.011 81.4592 442.861 81.0853C443.048 72.5789 443.889 63.979 445.478 55.5661H426.783C428.279 65.942 429.027 76.5049 429.027 86.9744C429.027 93.9851 428.653 101.089 427.998 108.1L426.783 121ZM482.88 121H524.01V98.5655L521.673 100.061C517.373 102.679 512.512 104.081 507.652 104.081C505.128 104.081 502.604 103.707 500.174 102.959C499.706 99.2199 499.332 95.4808 499.145 91.6482C501.202 91.2743 503.258 91.1808 505.315 91.1808C509.147 91.1808 512.886 91.7417 516.532 92.9569V79.8701C512.886 81.0853 509.147 81.6462 505.315 81.6462C503.165 81.6462 501.108 81.4592 498.958 81.0853C499.052 76.4115 499.332 71.7376 499.893 67.0638C502.137 66.2225 504.567 65.7551 506.997 65.7551C511.671 65.7551 516.345 67.4377 520.084 70.8028L524.01 74.2615V55.5661H482.88C484.376 65.942 485.124 76.5049 485.124 86.9744C485.124 93.9851 484.75 101.089 484.095 108.1L482.88 121ZM552.013 121H571.737L572.391 110.344C574.354 109.97 576.317 109.876 578.28 109.876C580.243 109.876 582.206 109.97 584.169 110.344L584.824 121H604.547L600.06 109.689C593.143 92.4895 589.591 74.0745 589.591 55.5661H566.969C566.969 74.0745 563.417 92.4895 556.5 109.689L552.013 121ZM578.28 100.342C576.691 100.342 575.008 100.248 573.419 100.061C574.635 92.1156 576.411 84.1701 578.28 76.4115C580.15 84.1701 581.926 92.1156 583.141 100.061C581.552 100.248 579.869 100.342 578.28 100.342ZM608.724 121H629.289L628.073 115.298C625.923 104.922 624.802 94.359 624.802 83.7961C624.802 81.5527 624.895 79.3093 624.989 77.0658C631.906 90.9939 637.141 105.763 640.506 121H661.071L659.856 108.1C659.201 101.089 658.827 93.9851 658.827 86.9744C658.827 76.5049 659.575 65.942 661.071 55.5661H642.375C644.151 64.9138 644.993 74.2615 644.993 83.7027C644.993 88.283 644.806 92.9569 644.338 97.5373C640.038 89.3113 636.393 80.8984 633.308 72.1115L627.419 55.5661H608.724C610.219 65.942 610.967 76.5049 610.967 86.9744C610.967 93.9851 610.593 101.089 609.939 108.1L608.724 121ZM671.485 121H692.05L690.834 115.298C688.684 104.922 687.563 94.359 687.563 83.7961C687.563 81.5527 687.656 79.3093 687.75 77.0658C694.667 90.9939 699.902 105.763 703.267 121H723.832L722.617 108.1C721.962 101.089 721.588 93.9851 721.588 86.9744C721.588 76.5049 722.336 65.942 723.832 55.5661H705.136C706.913 64.9138 707.754 74.2615 707.754 83.7027C707.754 88.283 707.567 92.9569 707.099 97.5373C702.8 89.3113 699.154 80.8984 696.069 72.1115L690.18 55.5661H671.485C672.98 65.942 673.728 76.5049 673.728 86.9744C673.728 93.9851 673.354 101.089 672.7 108.1L671.485 121ZM756.702 121C772.874 121 779.511 107.913 779.511 99.5938C779.511 92.9569 778.295 89.8722 778.295 79.7766C778.295 65.8486 780.071 55.5661 780.071 55.5661H761.283C761.283 55.5661 765.582 71.2702 765.582 94.733C765.582 102.492 759.32 104.268 756.702 104.268C754.085 104.268 747.822 102.492 747.822 94.733C747.822 71.2702 752.122 55.5661 752.122 55.5661H733.333C733.333 55.5661 735.109 65.8486 735.109 79.7766C735.109 89.8722 733.894 92.9569 733.894 99.5938C733.894 107.913 740.531 121 756.702 121ZM781.057 121H800.781L801.435 110.344C803.398 109.97 805.361 109.876 807.324 109.876C809.287 109.876 811.25 109.97 813.213 110.344L813.868 121H833.591L829.105 109.689C822.187 92.4895 818.635 74.0745 818.635 55.5661H796.014C796.014 74.0745 792.462 92.4895 785.544 109.689L781.057 121ZM807.324 100.342C805.735 100.342 804.053 100.248 802.464 100.061C803.679 92.1156 805.455 84.1701 807.324 76.4115C809.194 84.1701 810.97 92.1156 812.185 100.061C810.596 100.248 808.913 100.342 807.324 100.342ZM837.312 121H878.441V98.5655L876.104 100.061C871.805 102.679 866.944 104.081 862.083 104.081C859.559 104.081 857.035 103.707 854.605 102.959C853.763 96.6025 853.39 90.1526 853.39 83.7027C853.39 74.2615 854.231 64.9138 856.007 55.5661H837.312C838.807 65.942 839.555 76.5049 839.555 86.9744C839.555 93.9851 839.181 101.089 838.527 108.1L837.312 121Z" fill="#0F0D98"/>
<path d="M12.5633 318H56.5633C102.363 318 116.363 298.6 116.363 274.4C116.363 252.6 99.9633 243.4 92.9633 240.6C102.963 235.2 108.563 225.8 108.563 212C108.563 193.2 91.9633 178 71.1633 178H12.5633C17.9633 215.2 18.7633 253 15.1633 290.4L12.5633 318ZM47.1633 232.6C47.1633 229.4 47.1633 226.2 47.3633 223.4C47.7633 214.8 48.3633 206.4 49.5633 197.8C61.1633 196.6 72.7633 201 72.7633 215.8C72.7633 239 47.1633 232.6 47.1633 232.6ZM60.5633 283.8C55.7633 283.8 52.3633 283.4 49.9633 283C48.7633 273.8 47.9633 264.4 47.3633 255.2C50.7633 254.6 55.1633 254.2 60.3633 254.2C72.7633 254.2 80.5633 260 80.5633 268.6C80.5633 279.8 72.3633 283.8 60.5633 283.8ZM182.387 318C216.987 318 231.187 290 231.187 272.2C231.187 258 228.587 251.4 228.587 229.8C228.587 200 232.387 178 232.387 178H192.187C192.187 178 201.387 211.6 201.387 261.8C201.387 278.4 187.987 282.2 182.387 282.2C176.787 282.2 163.387 278.4 163.387 261.8C163.387 211.6 172.587 178 172.587 178H132.387C132.387 178 136.187 200 136.187 229.8C136.187 251.4 133.587 258 133.587 272.2C133.587 290 147.787 318 182.387 318ZM252.41 318H296.41L293.81 305.8C290.21 288.8 288.01 271.4 287.21 254.2C294.21 254 312.21 255.4 312.41 277.8C312.41 291.4 311.01 304.8 308.41 318H352.41C349.61 304.6 348.41 291.2 348.41 277.6V276.2C348.41 257 337.81 250 325.21 247.6C339.81 240.4 348.41 225.6 348.41 212C348.41 193.2 331.61 178 311.01 178H252.41C257.61 215.2 258.61 253 255.01 290.4L252.41 318ZM287.01 233.8C287.01 229 287.01 224.6 287.21 220.6C287.61 213 288.21 205.4 289.21 197.8C300.81 196.6 312.61 201 312.61 215.8C312.61 239 287.01 233.8 287.01 233.8ZM420.379 320C447.379 320 468.179 299.8 475.579 273.4L440.779 261C437.979 274.2 430.979 284 420.379 284C405.979 284 398.379 265.8 398.379 245.8C398.379 222 405.379 201.4 419.579 200H421.179C429.779 201 435.579 208.6 438.979 219.8L470.579 210.8C459.979 187.2 440.179 176 420.379 176C391.379 176 362.379 200 362.379 252C362.379 288 382.379 320 420.379 320ZM483.668 318H527.668L525.068 305.8C521.668 289 519.468 272.2 518.468 255.2C522.868 254.6 527.268 254.2 531.668 254.2C537.468 254.2 543.068 254.8 548.868 256C547.868 272.8 545.668 289.4 542.268 305.8L539.668 318H583.668L581.068 290.4C579.668 275.4 578.868 260.2 578.868 245.2C578.868 222.8 580.468 200.2 583.668 178H543.668C547.068 195.8 548.868 213.8 549.268 231.8C543.468 233.2 537.468 233.8 531.668 233.8C527.068 233.8 522.668 233.4 518.068 232.6C518.468 214.4 520.268 196 523.668 178H483.668C486.868 200.2 488.468 222.8 488.468 245.2C488.468 260.2 487.668 275.4 486.268 290.4L483.668 318ZM649.691 318H693.691L691.091 305.8C687.691 289 685.491 272.2 684.491 255.2C688.891 254.4 693.291 254.2 697.691 254.2C705.891 254.2 713.891 255.4 721.691 258V230C713.891 232.6 705.891 233.8 697.691 233.8C693.091 233.8 688.691 233.4 684.091 232.6C684.291 222.6 684.891 212.6 686.091 202.6C690.891 200.8 696.091 199.8 701.291 199.8C711.291 199.8 721.291 203.4 729.291 210.6L737.691 218V178H649.691C652.891 200.2 654.491 222.8 654.491 245.2C654.491 260.2 653.691 275.4 652.291 290.4L649.691 318ZM733.637 318H775.837L777.237 295.2C781.437 294.4 785.637 294.2 789.837 294.2C794.037 294.2 798.237 294.4 802.437 295.2L803.837 318H846.037L836.437 293.8C821.637 257 814.037 217.6 814.037 178H765.637C765.637 217.6 758.037 257 743.237 293.8L733.637 318ZM789.837 273.8C786.437 273.8 782.837 273.6 779.437 273.2C782.037 256.2 785.837 239.2 789.837 222.6C793.837 239.2 797.637 256.2 800.237 273.2C796.837 273.6 793.237 273.8 789.837 273.8ZM854.973 318H898.973L896.373 305.8C891.773 283.6 889.373 261.2 889.373 238.8L914.973 286L940.573 238.8C940.573 261.2 938.173 283.6 933.573 305.8L930.973 318H974.973L972.373 290.4C970.973 275.4 970.173 260.2 970.173 245.2C970.173 222.8 971.773 200.2 974.973 178H934.973C934.973 199 930.173 219.8 920.573 238.6L914.973 250L909.373 238.6C899.773 219.8 894.973 199 894.973 178H854.973C858.173 200.2 859.773 222.8 859.773 245.2C859.773 260.2 858.973 275.4 857.573 290.4L854.973 318ZM996.824 318H1036.82L1034.22 290.4C1032.82 275.4 1032.02 260.2 1032.02 245.2C1032.02 222.8 1033.62 200.2 1036.82 178H996.824C1000.02 200.2 1001.62 222.8 1001.62 245.2C1001.62 260.2 1000.82 275.4 999.424 290.4L996.824 318ZM1054.79 318H1142.79V270L1137.79 273.2C1128.59 278.8 1118.19 281.8 1107.79 281.8C1102.39 281.8 1096.99 281 1091.79 279.4C1089.99 265.8 1089.19 252 1089.19 238.2C1089.19 218 1090.99 198 1094.79 178H1054.79C1057.99 200.2 1059.59 222.8 1059.59 245.2C1059.59 260.2 1058.79 275.4 1057.39 290.4L1054.79 318ZM1161.7 318H1201.7L1199.1 290.4C1197.9 278 1197.3 265.6 1197.1 253.2L1199.1 249.6C1211.7 227.4 1225.7 199.4 1241.7 178.2H1201.1C1196.1 194.8 1188.9 216.2 1181.7 229.8C1174.7 216.2 1167.1 195.4 1162.3 178.2H1121.7C1137.9 199.4 1151.9 227.4 1164.5 249.6L1166.5 253.2C1166.3 265.6 1165.7 278 1164.5 290.4L1161.7 318Z" fill="#0F0D98"/>
<path d="M445.155 439H465.72L464.505 433.298C462.822 425.352 461.794 417.22 461.42 409.181C464.692 409.087 473.105 409.742 473.198 420.211C473.198 426.568 472.544 432.831 471.329 439H491.894C490.585 432.737 490.024 426.474 490.024 420.118V419.463C490.024 410.49 485.07 407.218 479.181 406.096C486.005 402.731 490.024 395.814 490.024 389.457C490.024 380.67 482.172 373.566 472.544 373.566H445.155C447.586 390.953 448.053 408.62 446.371 426.1L445.155 439ZM461.327 399.646C461.327 397.403 461.327 395.346 461.42 393.477C461.607 389.925 461.888 386.372 462.355 382.82C467.777 382.259 473.292 384.316 473.292 391.233C473.292 402.077 461.327 399.646 461.327 399.646ZM499.335 439H540.465V416.566L538.128 418.061C533.829 420.679 528.968 422.081 524.107 422.081C521.583 422.081 519.059 421.707 516.629 420.959C516.161 417.22 515.787 413.481 515.6 409.648C517.657 409.274 519.713 409.181 521.77 409.181C525.603 409.181 529.342 409.742 532.987 410.957V397.87C529.342 399.085 525.603 399.646 521.77 399.646C519.62 399.646 517.564 399.459 515.414 399.085C515.507 394.411 515.787 389.738 516.348 385.064C518.592 384.222 521.022 383.755 523.453 383.755C528.126 383.755 532.8 385.438 536.539 388.803L540.465 392.261V373.566H499.335C500.831 383.942 501.579 394.505 501.579 404.974C501.579 411.985 501.205 419.089 500.551 426.1L499.335 439ZM573.142 439C589.314 439 595.951 425.913 595.951 417.594C595.951 410.957 594.735 407.872 594.735 397.777C594.735 383.849 596.511 373.566 596.511 373.566H577.723C577.723 373.566 582.022 389.27 582.022 412.733C582.022 420.492 575.76 422.268 573.142 422.268C570.525 422.268 564.262 420.492 564.262 412.733C564.262 389.27 568.562 373.566 568.562 373.566H549.773C549.773 373.566 551.549 383.849 551.549 397.777C551.549 407.872 550.334 410.957 550.334 417.594C550.334 425.913 556.971 439 573.142 439ZM604.957 439H625.522L624.307 433.298C622.157 422.922 621.035 412.359 621.035 401.796C621.035 399.553 621.129 397.309 621.222 395.066C628.14 408.994 633.374 423.763 636.739 439H657.304L656.089 426.1C655.435 419.089 655.061 411.985 655.061 404.974C655.061 394.505 655.809 383.942 657.304 373.566H638.609C640.385 382.914 641.226 392.261 641.226 401.703C641.226 406.283 641.039 410.957 640.572 415.537C636.272 407.311 632.626 398.898 629.542 390.112L623.653 373.566H604.957C606.453 383.942 607.201 394.505 607.201 404.974C607.201 411.985 606.827 419.089 606.172 426.1L604.957 439ZM667.24 439H685.935L684.72 426.1C684.066 419.089 683.692 411.985 683.692 404.974C683.692 394.505 684.44 383.942 685.935 373.566H667.24C668.736 383.942 669.483 394.505 669.483 404.974C669.483 411.985 669.109 419.089 668.455 426.1L667.24 439ZM719.569 439.935C735.74 439.935 746.677 424.978 746.677 408.153C746.677 383.849 733.31 372.631 719.569 372.631C705.734 372.631 692.46 383.849 692.46 408.153C692.46 424.978 701.434 439.935 719.569 439.935ZM719.569 423.109C712.652 423.109 709.099 414.789 709.099 405.255C709.099 394.131 712.371 384.503 719.195 383.849H719.943C726.673 384.503 730.038 394.131 730.038 405.255C730.038 415.537 726.486 423.109 719.569 423.109ZM752.344 439H772.909L771.694 433.298C769.544 422.922 768.422 412.359 768.422 401.796C768.422 399.553 768.516 397.309 768.609 395.066C775.526 408.994 780.761 423.763 784.126 439H804.691L803.476 426.1C802.822 419.089 802.448 411.985 802.448 404.974C802.448 394.505 803.196 383.942 804.691 373.566H785.996C787.772 382.914 788.613 392.261 788.613 401.703C788.613 406.283 788.426 410.957 787.959 415.537C783.659 407.311 780.013 398.898 776.929 390.112L771.04 373.566H752.344C753.84 383.942 754.588 394.505 754.588 404.974C754.588 411.985 754.214 419.089 753.559 426.1L752.344 439Z" fill="#0F0D98"/>
<g clip-path="url(#clip0_52_7401)">
<path d="M48.203 546.367C53.1558 543.365 57.8217 539.821 62.1199 535.797L62.6221 535.287C64.1954 538.028 65.9892 540.721 67.8836 543.214C69.7779 545.707 71.8947 548.16 74.1101 550.409C71.3708 551.98 68.7554 553.712 66.2619 555.606C69.2918 558.759 71.866 556.804 71.866 556.804L75.2869 561.309C70.2999 565.096 64.8788 564.139 59.9905 560.875C58.8747 560.075 57.7769 559.132 56.6808 558.188C55.5417 557.026 54.2806 555.699 53.242 554.333L47.4998 546.772L48.203 546.367ZM67.7508 531.521C72.7844 528.462 77.4503 524.918 81.6677 520.952L82.2507 520.385C83.8239 523.121 85.6178 525.819 87.5121 528.311C89.4065 530.804 91.5214 533.254 93.7387 535.503C90.9994 537.074 88.3839 538.81 85.8905 540.703C88.9203 543.856 91.4138 541.962 91.4138 541.962L94.8347 546.464C89.9285 550.19 84.4266 549.293 79.6191 545.972C78.5033 545.169 77.3247 544.29 76.3094 543.286C75.0896 542.181 73.9092 540.797 72.8705 539.426L67.1265 531.869L67.7508 531.521Z" fill="#0F0D98"/>
<path d="M108.197 547.547C97.7784 525.442 105.087 506.594 118.336 500.353C130.947 494.414 141.782 498.689 148.882 506.171L137.543 515.754C134.766 512.709 129.899 508.301 124.326 510.927C116.833 514.456 118.015 525.733 123.311 536.97C127.616 546.105 135.007 552.78 141.585 549.681C148.165 546.582 147.865 540.025 145.282 534.545C144.808 533.541 144.157 532.397 143.506 531.252C141.077 532.73 138.643 534.434 136.472 536.464L130.445 523.674C134.842 523.053 139.163 521.798 143.185 519.904C147.205 518.01 150.924 515.478 154.203 512.483L155.796 517.759C157.087 522.397 158.881 526.913 160.991 531.389C164.952 539.792 170.057 547.547 175.833 553.644L173.458 554.763C169.072 556.829 164.152 554.681 162.3 550.753C161.913 549.932 161.708 549.021 161.595 548.07C160.546 556.266 156.372 562.812 149.334 566.126C131.699 574.433 115.947 563.992 108.197 547.547Z" fill="#0F0D98"/>
<path d="M173.952 539.484C172.745 531.973 171.22 524.441 169.327 517.107C166.502 506.153 162.869 495.303 158.503 484.852L178.067 479.809C178.732 490.067 180.374 500.073 182.921 509.951C184.663 516.698 186.794 523.344 189.39 529.768C192.134 529.893 194.877 529.606 197.518 528.925C202.605 527.612 207.314 524.836 211.106 520.937L213.15 518.742L219.204 542.21L176.162 553.307L173.952 539.484Z" fill="#0F0D98"/>
<path d="M220.252 529.628C225.737 510.364 227.467 490.178 225.37 470.293L249.68 467.729C251.777 487.613 257.683 506.996 267.065 524.689L273.169 536.335L251.973 538.569L250.062 527.196C247.91 527.017 245.789 527.139 243.68 527.361C241.57 527.583 239.471 527.906 237.405 528.53L237.909 540.051L216.712 542.285L220.252 529.628ZM247.791 516.264C245.585 507.864 242.776 499.532 239.887 491.408C238.757 499.955 237.749 508.692 237.344 517.365C239.073 517.386 240.892 517.297 242.6 517.117C244.307 516.934 246.105 516.644 247.791 516.264Z" fill="#0F0D98"/>
<path d="M272.703 522.802C275.055 503.969 275.191 484.87 272.994 466.111L272.995 466.007L297.24 466.696C311.467 467.704 325.07 480.013 324.395 503.847C323.88 522.024 313.725 537.909 294.127 537.353L270.995 536.701L272.703 522.802ZM290.599 519.162C295.209 520.607 300.115 518.724 302.555 514.65C304.889 510.776 306.151 505.453 306.3 500.203C306.55 491.415 304.709 484.999 301.991 480.978C299.665 477.477 295.465 475.842 291.399 476.634C289.18 490.723 288.878 504.966 290.399 519.058L290.599 519.162Z" fill="#0F0D98"/>
<path d="M364.711 531.066C366.641 525.076 368.275 519.022 369.712 512.925L369.115 510.934C365.29 498.617 361.401 483.291 355.693 471.082L375.732 475.462C376.245 484.468 377.752 495.551 379.74 503.018C384.763 497.082 390.625 487.301 394.884 479.647L414.925 484.03C404.739 492.764 394.807 505.07 386.192 514.664L384.816 516.224C383.577 522.365 382.535 528.548 381.79 534.8L380.095 548.698L360.352 544.383L364.711 531.066Z" fill="#0F0D98"/>
<path d="M402.7 519.538C410.833 494.564 428.23 487.477 442.45 492.107C456.575 496.702 466.561 512.702 458.428 537.676C452.797 554.964 436.552 566.674 419.928 561.266C401.288 555.201 397.069 536.83 402.7 519.538ZM442.296 529.133C446.018 517.702 445.779 506.68 439.081 503.757L438.313 503.506C431.079 501.895 424.495 510.697 420.773 522.128C417.581 531.923 418.448 541.661 425.559 543.974C432.67 546.291 438.853 539.699 442.296 529.133Z" fill="#0F0D98"/>
<path d="M457.319 548.608C459.791 541.876 462.172 539.201 465.932 528.961C471.12 514.829 473.147 503.739 473.147 503.739L492.212 510.733C492.212 510.733 481.999 525.062 473.261 548.863C470.373 556.736 476.065 560.868 478.722 561.843C481.377 562.815 488.395 563.346 491.284 555.477C500.022 531.676 501.508 514.144 501.508 514.144L520.571 521.138C520.571 521.138 514.94 530.908 509.754 545.036C505.994 555.28 506.079 558.859 503.607 565.591C500.509 574.031 488.9 584.837 472.49 578.815C456.081 572.793 454.221 557.048 457.319 548.608Z" fill="#0F0D98"/>
<path d="M529.209 564.444C534.879 540.671 552.362 530.51 566.611 533.907C580.172 537.138 585.967 547.242 586.839 557.521L571.994 557.927C571.729 553.816 570.677 547.335 564.684 545.908C556.626 543.985 550.505 553.533 547.623 565.616C545.28 575.44 546.882 585.271 553.957 586.957C561.034 588.643 564.896 583.335 566.302 577.442C566.559 576.359 566.765 575.06 566.971 573.758C564.15 573.396 561.183 573.209 558.221 573.439L561.502 559.684C565.325 561.944 569.485 563.662 573.808 564.695C578.131 565.724 582.619 566.068 587.052 565.774L585 570.892C583.113 575.322 581.694 579.967 580.546 584.78C578.389 593.818 577.534 603.065 578.239 611.433L575.682 610.823C570.966 609.7 568.464 604.952 569.472 600.726C569.682 599.841 570.089 599.005 570.595 598.191C564.655 603.94 557.306 606.444 549.739 604.639C530.773 600.12 524.991 582.129 529.209 564.444Z" fill="#0F0D98"/>
<path d="M592.554 597.732C593.496 590.185 594.138 582.528 594.375 574.956C594.726 563.655 594.273 552.224 593.006 540.969L637.43 542.35L636.802 562.535L632.678 558.669C628.751 554.91 623.76 552.938 618.712 552.78C616.086 552.697 613.446 553.12 610.995 553.956C610.233 558.981 609.772 564.02 609.513 569.063C611.824 569.54 614.039 569.809 616.361 569.881C620.501 570.01 624.557 569.529 628.536 568.342L628.096 582.47C624.2 581.036 620.18 580.307 616.041 580.178C613.819 580.107 611.594 580.139 609.361 580.476C609.434 584.619 609.712 588.668 610.093 592.721C612.692 593.61 615.406 594.098 618.131 594.184C623.382 594.346 628.679 592.997 633.411 590.314L635.986 588.779L635.232 613L590.809 611.623L592.554 597.732Z" fill="#0F0D98"/>
<path d="M662.637 595.784C662.149 588.191 661.349 580.548 660.162 573.066C658.963 565.484 657.345 557.866 655.444 550.398C649.549 552.557 644.042 555.886 639.338 560.412L636.491 542.457L688.379 534.24L691.224 552.195C685.351 549.34 679.083 547.88 672.808 547.647C673.311 555.337 674.129 563.084 675.331 570.663C676.515 578.145 678.115 585.662 680.002 593.037L683.478 606.594L663.523 609.758L662.637 595.784Z" fill="#0F0D98"/>
<path d="M738.737 577.664C737.058 570.247 735.063 562.826 732.713 555.624C730.331 548.329 727.532 541.062 724.479 533.985C718.997 537.048 714.082 541.202 710.153 546.413L704.513 529.133L754.447 512.842L760.087 530.123C753.838 528.232 747.423 527.773 741.187 528.534C742.898 536.048 744.926 543.565 747.308 550.864C749.658 558.063 752.424 565.233 755.445 572.212L761.02 585.056L741.811 591.319L738.737 577.664Z" fill="#0F0D98"/>
<path d="M765.322 548.239C756.651 523.455 766.187 507.279 780.301 502.347C794.318 497.444 811.956 504.116 820.627 528.9C826.633 546.058 820.814 565.211 804.317 570.982C785.819 577.449 771.328 565.398 765.322 548.239ZM802.62 531.88C798.652 520.535 791.785 511.917 784.685 513.653L783.921 513.918C777.194 517.021 777.294 528.007 781.263 539.351C784.664 549.075 791.258 556.291 798.311 553.823C805.369 551.356 806.291 542.368 802.62 531.88Z" fill="#0F0D98"/>
<path d="M851.134 552.776L845.584 531.26C845.584 531.26 851.999 533.885 860.606 531.665C866.669 530.101 869.453 525.524 868.37 521.321C865.948 511.931 845.473 519.506 840.554 500.436C837.852 489.97 844.554 481.57 856.293 478.543C865.88 476.071 873.92 476.918 873.92 476.918L878.261 493.739C878.261 493.739 871.839 487.05 862.547 489.446C858.342 490.529 856.354 493.754 857.441 497.957C860.491 509.79 884.866 505.593 889.153 522.218C892.813 536.399 882.918 546.98 871.276 549.982C859.54 553.009 851.134 552.776 851.134 552.776Z" fill="#0F0D98"/>
<path d="M894.431 528.677C894.147 521.073 893.552 513.409 892.569 505.898C891.098 494.683 888.816 483.471 885.755 472.564L929.834 466.796L932.457 486.824L927.764 483.668C923.283 480.587 918.038 479.443 913.029 480.096C910.425 480.44 907.888 481.279 905.599 482.495C905.657 487.581 906.012 492.627 906.568 497.649C908.921 497.749 911.153 497.66 913.456 497.358C917.564 496.82 921.493 495.694 925.228 493.883L927.065 507.903C922.989 507.11 918.903 507.035 914.795 507.573C912.592 507.86 910.4 508.251 908.251 508.94C908.986 513.018 909.912 516.974 910.938 520.912C913.647 521.375 916.406 521.421 919.111 521.066C924.32 520.385 929.332 518.201 933.573 514.793L935.866 512.864L939.016 536.898L894.936 542.669L894.431 528.677Z" fill="#0F0D98"/>
<path d="M943.751 522.766C944.72 515.224 945.387 507.566 945.646 499.994C946.037 488.689 945.621 477.259 944.394 466L988.814 467.528L988.121 487.714L984.01 483.833C980.095 480.06 975.108 478.069 970.06 477.897C967.438 477.807 964.794 478.22 962.34 479.045C961.561 484.073 961.084 489.109 960.808 494.152C963.118 494.636 965.332 494.912 967.653 494.991C971.793 495.135 975.851 494.668 979.833 493.492L979.349 507.623C975.456 506.174 971.438 505.428 967.298 505.288C965.077 505.21 962.853 505.235 960.617 505.565C960.678 509.707 960.94 513.76 961.306 517.813C963.904 518.713 966.616 519.208 969.343 519.302C974.592 519.485 979.894 518.15 984.637 515.485L987.217 513.957L986.381 538.178L941.958 536.65L943.751 522.766Z" fill="#0F0D98"/>
<path d="M1011.64 527.562C1014.23 520.41 1016.56 513.086 1018.47 505.755C1021.32 494.808 1023.41 483.56 1024.67 472.305L1044.23 477.391C1041.55 487.656 1041.25 498.431 1043.55 508.839L1044.84 515.123L1049.03 510.263C1056.11 502.297 1061.11 492.742 1063.78 482.481L1083.33 487.57C1078.94 498.011 1075.29 508.854 1072.43 519.8C1070.52 527.128 1068.98 534.66 1067.76 542.167L1065.52 555.986L1044.01 550.387L1046.83 544.756C1051.9 534.495 1055.93 523.853 1058.78 512.907L1040.26 532.716L1033.75 506.393C1030.9 517.34 1029.22 528.591 1028.64 540.026L1028.36 546.317L1006.86 540.721L1011.64 527.562Z" fill="#0F0D98"/>
<path d="M1075.07 545.248C1078.55 538.487 1081.8 531.514 1084.62 524.488C1088.85 513.993 1092.36 503.104 1095.05 492.097L1136.29 508.692L1128.75 527.433L1126.21 522.383C1123.82 517.501 1119.81 513.929 1115.12 512.042C1112.68 511.063 1110.06 510.55 1107.47 510.489C1105.02 514.947 1102.85 519.52 1100.87 524.165C1102.88 525.41 1104.87 526.425 1107.02 527.293C1110.87 528.839 1114.84 529.785 1118.98 530.04L1113.7 543.157C1110.54 540.467 1107.02 538.397 1103.17 536.851C1101.11 536.019 1099.01 535.284 1096.8 534.828C1095.44 538.749 1094.3 542.647 1093.26 546.582C1095.4 548.314 1097.78 549.706 1100.31 550.725C1105.18 552.686 1110.62 553.242 1115.99 552.353L1118.94 551.797L1109.89 574.285L1068.64 557.69L1075.07 545.248Z" fill="#0F0D98"/>
<path d="M1121.23 559.279C1126.24 562.378 1131.51 564.935 1137.04 566.943L1137.73 567.162C1134.27 572.445 1131.49 578.17 1129.49 584.16C1124.07 580.749 1118.43 578.016 1112.39 575.878C1115.85 570.595 1118.63 564.867 1120.63 558.881L1121.23 559.279ZM1125.17 553.221C1132.19 540.122 1138.08 526.36 1142.65 512.074L1160.83 520.883C1152.45 533.322 1145.29 546.467 1139.36 560.093L1125.17 553.221Z" fill="#0F0D98"/>
<path d="M1181.01 531.572L1176.36 539.846C1175.52 541.345 1174.54 542.88 1173.48 544.139C1172.61 545.273 1171.57 546.309 1170.57 547.253C1166.26 551.205 1160.94 552.848 1155.56 549.828L1158.34 544.9C1158.34 544.9 1161.07 546.431 1163.64 542.895C1160.91 541.36 1158.08 540 1155.15 538.82C1157.04 536.288 1158.8 533.569 1160.33 530.84C1161.86 528.111 1163.27 525.195 1164.46 522.268L1165.11 522.752C1169.83 526.102 1174.94 528.971 1180.35 531.313L1181.01 531.572ZM1202.5 543.644L1197.85 551.922C1197.01 553.418 1195.94 554.903 1194.97 556.212C1194.01 557.299 1193.06 558.382 1192.06 559.329C1187.66 563.231 1182.43 564.921 1176.97 561.854L1179.74 556.922C1179.74 556.922 1182.56 558.508 1185.12 554.968C1182.4 553.432 1179.57 552.077 1176.64 550.893C1178.53 548.364 1180.28 545.646 1181.82 542.916C1183.36 540.187 1184.76 537.271 1185.95 534.344L1186.51 534.778C1191.32 538.175 1196.43 541.044 1201.75 543.34L1202.5 543.644Z" fill="#0F0D98"/>
</g>
<defs>
<clipPath id="clip0_52_7401">
<rect width="1155" height="147" fill="white" transform="translate(47.5 466)"/>
</clipPath>
</defs>
</svg>
