<svg width="308" height="311" viewBox="0 0 308 311" fill="none" xmlns="http://www.w3.org/2000/svg">
<path d="M77.9626 38.97V31.86C77.9626 31.86 76.3126 33.81 71.7526 33.81C70.2526 33.81 70.2826 33.63 70.2826 33.63C70.2826 28.89 77.7226 29.88 77.7226 23.31C77.7226 20.16 75.0226 17.67 70.8826 17.67C67.2226 17.67 65.5426 18.24 65.5426 18.24V24.18C65.5426 24.18 67.8826 21.81 70.6726 21.81C71.9326 21.81 72.7426 22.59 72.7426 23.85C72.7426 27.42 64.9426 28.32 64.9426 35.4C64.9426 37.17 65.5426 38.97 65.5426 38.97H77.9626ZM89.0539 39.3C94.2439 39.3 97.7539 34.5 97.7539 29.1C97.7539 21.3 93.4939 17.7 89.0539 17.7C84.6139 17.7 80.3539 21.3 80.3539 29.1C80.3539 34.5 83.2339 39.3 89.0539 39.3ZM89.0539 33.9C86.8339 33.9 85.6939 31.23 85.6939 28.17C85.6939 24.6 86.7439 21.51 88.9339 21.3H89.1739C91.3339 21.51 92.4139 24.6 92.4139 28.17C92.4139 31.47 91.2739 33.9 89.0539 33.9ZM113.179 38.97V31.86C113.179 31.86 111.529 33.81 106.969 33.81C105.469 33.81 105.499 33.63 105.499 33.63C105.499 28.89 112.939 29.88 112.939 23.31C112.939 20.16 110.239 17.67 106.099 17.67C102.439 17.67 100.759 18.24 100.759 18.24V24.18C100.759 24.18 103.099 21.81 105.889 21.81C107.149 21.81 107.959 22.59 107.959 23.85C107.959 27.42 100.159 28.32 100.159 35.4C100.159 37.17 100.759 38.97 100.759 38.97H113.179ZM122.95 39.27C128.26 39.27 130.21 35.97 130.21 32.64C130.21 29.31 127.21 27.45 125.44 27L129.64 23.28V17.97H116.56V23.85C116.56 23.85 118.75 21.63 122.41 21.63C124 21.63 124.9 21.99 124.9 21.99C124.9 21.99 123.04 23.97 119.26 26.85L121.84 29.64C121.84 29.64 122.32 29.4 122.95 29.4C124.3 29.4 125.47 30.03 125.47 31.41C125.47 32.97 124.12 33.54 122.8 33.54C121.51 33.54 120.31 32.97 119.44 31.74L115.93 35.16C115.93 35.16 117.67 39.27 122.95 39.27ZM138.796 39H145.126L145.336 35.58C145.966 35.46 146.596 35.43 147.226 35.43C147.856 35.43 148.486 35.46 149.116 35.58L149.326 39H155.656L154.216 35.37C151.996 29.85 150.856 23.94 150.856 18H143.596C143.596 23.94 142.456 29.85 140.236 35.37L138.796 39ZM147.226 32.37C146.716 32.37 146.176 32.34 145.666 32.28C146.056 29.73 146.626 27.18 147.226 24.69C147.826 27.18 148.396 29.73 148.786 32.28C148.276 32.34 147.736 32.37 147.226 32.37ZM156.997 39H163.597L163.207 37.17C162.517 33.84 162.157 30.45 162.157 27.06C162.157 26.34 162.187 25.62 162.217 24.9C164.437 29.37 166.117 34.11 167.197 39H173.797L173.407 34.86C173.197 32.61 173.077 30.33 173.077 28.08C173.077 24.72 173.317 21.33 173.797 18H167.797C168.367 21 168.637 24 168.637 27.03C168.637 28.5 168.577 30 168.427 31.47C167.047 28.83 165.877 26.13 164.887 23.31L162.997 18H156.997C157.477 21.33 157.717 24.72 157.717 28.08C157.717 30.33 157.597 32.61 157.387 34.86L156.997 39ZM177.139 39H183.739L183.349 37.17C182.659 33.84 182.299 30.45 182.299 27.06C182.299 26.34 182.329 25.62 182.359 24.9C184.579 29.37 186.259 34.11 187.339 39H193.939L193.549 34.86C193.339 32.61 193.219 30.33 193.219 28.08C193.219 24.72 193.459 21.33 193.939 18H187.939C188.509 21 188.779 24 188.779 27.03C188.779 28.5 188.719 30 188.569 31.47C187.189 28.83 186.019 26.13 185.029 23.31L183.139 18H177.139C177.619 21.33 177.859 24.72 177.859 28.08C177.859 30.33 177.739 32.61 177.529 34.86L177.139 39ZM204.488 39C209.678 39 211.808 34.8 211.808 32.13C211.808 30 211.418 29.01 211.418 25.77C211.418 21.3 211.988 18 211.988 18H205.958C205.958 18 207.338 23.04 207.338 30.57C207.338 33.06 205.328 33.63 204.488 33.63C203.648 33.63 201.638 33.06 201.638 30.57C201.638 23.04 203.018 18 203.018 18H196.988C196.988 18 197.558 21.3 197.558 25.77C197.558 29.01 197.168 30 197.168 32.13C197.168 34.8 199.298 39 204.488 39ZM212.305 39H218.635L218.845 35.58C219.475 35.46 220.105 35.43 220.735 35.43C221.365 35.43 221.995 35.46 222.625 35.58L222.835 39H229.165L227.725 35.37C225.505 29.85 224.365 23.94 224.365 18H217.105C217.105 23.94 215.965 29.85 213.745 35.37L212.305 39ZM220.735 32.37C220.225 32.37 219.685 32.34 219.175 32.28C219.565 29.73 220.135 27.18 220.735 24.69C221.335 27.18 221.905 29.73 222.295 32.28C221.785 32.34 221.245 32.37 220.735 32.37ZM230.359 39H243.559V31.8L242.809 32.28C241.429 33.12 239.869 33.57 238.309 33.57C237.499 33.57 236.689 33.45 235.909 33.21C235.639 31.17 235.519 29.1 235.519 27.03C235.519 24 235.789 21 236.359 18H230.359C230.839 21.33 231.079 24.72 231.079 28.08C231.079 30.33 230.959 32.61 230.749 34.86L230.359 39Z" fill="#ECA1FF"/>
<path d="M11.1952 128H33.244C56.1949 128 63.2104 118.278 63.2104 106.152C63.2104 95.2274 54.9922 90.6172 51.4844 89.2141C56.4955 86.5081 59.3017 81.7976 59.3017 74.8823C59.3017 65.4614 50.9833 57.8445 40.5602 57.8445H11.1952C13.9011 76.4859 14.302 95.4278 12.498 114.169L11.1952 128ZM28.5336 85.2052C28.5336 83.6016 28.5336 81.9981 28.6338 80.595C28.8342 76.2854 29.1349 72.0761 29.7362 67.7665C35.5491 67.1652 41.362 69.3701 41.362 76.7865C41.362 88.4123 28.5336 85.2052 28.5336 85.2052ZM35.2484 110.862C32.8431 110.862 31.1393 110.662 29.9367 110.461C29.3353 105.851 28.9345 101.14 28.6338 96.5303C30.3376 96.2296 32.5425 96.0292 35.1482 96.0292C41.362 96.0292 45.2707 98.9356 45.2707 103.245C45.2707 108.858 41.1616 110.862 35.2484 110.862ZM96.2954 128C113.634 128 120.75 113.969 120.75 105.049C120.75 97.9334 119.447 94.6261 119.447 83.8021C119.447 68.869 121.351 57.8445 121.351 57.8445H101.206C101.206 57.8445 105.817 74.6819 105.817 99.8376C105.817 108.156 99.1017 110.06 96.2954 110.06C93.4892 110.06 86.7743 108.156 86.7743 99.8376C86.7743 74.6819 91.3846 57.8445 91.3846 57.8445H71.2399C71.2399 57.8445 73.1441 68.869 73.1441 83.8021C73.1441 94.6261 71.8412 97.9334 71.8412 105.049C71.8412 113.969 78.957 128 96.2954 128ZM131.385 128H153.434L152.131 121.886C150.327 113.368 149.224 104.648 148.824 96.0292C152.331 95.9289 161.351 96.6305 161.452 107.855C161.452 114.67 160.75 121.385 159.447 128H181.496C180.093 121.285 179.492 114.57 179.492 107.755V107.054C179.492 97.4323 174.18 93.9245 167.866 92.7218C175.182 89.1138 179.492 81.6974 179.492 74.8823C179.492 65.4614 171.073 57.8445 160.75 57.8445H131.385C133.991 76.4859 134.492 95.4278 132.688 114.169L131.385 128ZM148.723 85.8065C148.723 83.4012 148.723 81.1963 148.824 79.1919C149.024 75.3834 149.325 71.575 149.826 67.7665C155.639 67.1652 161.552 69.3701 161.552 76.7865C161.552 88.4123 148.723 85.8065 148.723 85.8065ZM215.556 129.002C229.086 129.002 239.509 118.88 243.217 105.65L225.778 99.4367C224.375 106.051 220.868 110.962 215.556 110.962C208.34 110.962 204.531 101.842 204.531 91.8198C204.531 79.8934 208.039 69.5705 215.155 68.869H215.957C220.266 69.3701 223.173 73.1785 224.876 78.791L240.712 74.281C235.4 62.4548 225.478 56.8423 215.556 56.8423C201.024 56.8423 186.491 68.869 186.491 94.9267C186.491 112.967 196.514 129.002 215.556 129.002ZM247.271 128H269.319L268.017 121.886C266.313 113.468 265.21 105.049 264.709 96.5303C266.914 96.2296 269.119 96.0292 271.324 96.0292C274.23 96.0292 277.037 96.3298 279.943 96.9312C279.442 105.35 278.339 113.668 276.636 121.886L275.333 128H297.382L296.079 114.169C295.377 106.653 294.976 99.0358 294.976 91.5192C294.976 80.2943 295.778 68.9692 297.382 57.8445H277.337C279.041 66.7643 279.943 75.7843 280.143 84.8043C277.237 85.5058 274.23 85.8065 271.324 85.8065C269.019 85.8065 266.814 85.6061 264.509 85.2052C264.709 76.085 265.611 66.8645 267.315 57.8445H247.271C248.874 68.9692 249.676 80.2943 249.676 91.5192C249.676 99.0358 249.275 106.653 248.573 114.169L247.271 128ZM6.9314 218H28.9803L27.6774 211.886C25.9736 203.468 24.8712 195.049 24.37 186.53C26.5749 186.129 28.7798 186.029 30.9847 186.029C35.0938 186.029 39.1027 186.63 43.0113 187.933V173.902C39.1027 175.205 35.0938 175.807 30.9847 175.807C28.6796 175.807 26.4747 175.606 24.1696 175.205C24.2698 170.194 24.5705 165.183 25.1718 160.172C27.5771 159.27 30.1829 158.769 32.7887 158.769C37.7998 158.769 42.8109 160.573 46.8198 164.181L51.0291 167.889V147.845H6.9314C8.53495 158.969 9.33673 170.294 9.33673 181.519C9.33673 189.036 8.93584 196.653 8.23429 204.169L6.9314 218ZM48.9973 218H70.1441L70.8457 206.575C72.9503 206.174 75.055 206.074 77.1597 206.074C79.2643 206.074 81.369 206.174 83.4737 206.575L84.1752 218H105.322L100.511 205.873C93.095 187.432 89.2865 167.689 89.2865 147.845H65.0328C65.0328 167.689 61.2244 187.432 53.8079 205.873L48.9973 218ZM77.1597 195.851C75.4559 195.851 73.6519 195.751 71.9481 195.55C73.251 187.031 75.1552 178.513 77.1597 170.194C79.1641 178.513 81.0683 187.031 82.3712 195.55C80.6674 195.751 78.8634 195.851 77.1597 195.851ZM109.8 218H131.849L130.546 211.886C128.241 200.762 127.038 189.537 127.038 178.312L139.867 201.964L152.695 178.312C152.695 189.537 151.492 200.762 149.187 211.886L147.884 218H169.933L168.63 204.169C167.929 196.653 167.528 189.036 167.528 181.519C167.528 170.294 168.33 158.969 169.933 147.845H149.889C149.889 158.368 147.483 168.791 142.673 178.212L139.867 183.924L137.06 178.212C132.25 168.791 129.844 158.368 129.844 147.845H109.8C111.404 158.969 112.205 170.294 112.205 181.519C112.205 189.036 111.804 196.653 111.103 204.169L109.8 218ZM180.883 218H200.928L199.625 204.169C198.923 196.653 198.522 189.036 198.522 181.519C198.522 170.294 199.324 158.969 200.928 147.845H180.883C182.487 158.969 183.289 170.294 183.289 181.519C183.289 189.036 182.888 196.653 182.186 204.169L180.883 218ZM209.928 218H254.026V193.947L251.52 195.55C246.91 198.356 241.698 199.86 236.487 199.86C233.781 199.86 231.075 199.459 228.469 198.657C227.567 191.842 227.166 184.927 227.166 178.011C227.166 167.889 228.068 157.867 229.972 147.845H209.928C211.532 158.969 212.333 170.294 212.333 181.519C212.333 189.036 211.933 196.653 211.231 204.169L209.928 218ZM263.504 218H283.548L282.245 204.169C281.644 197.956 281.343 191.742 281.243 185.528L282.245 183.724C288.559 172.599 295.575 158.568 303.593 147.945H283.248C280.742 156.263 277.134 166.987 273.526 173.802C270.018 166.987 266.21 156.564 263.804 147.945H243.459C251.577 158.568 258.593 172.599 264.907 183.724L265.909 185.528C265.809 191.742 265.508 197.956 264.907 204.169L263.504 218Z" fill="#ECA1FF"/>
<path d="M96.5258 259H103.126L102.736 257.17C102.196 254.62 101.866 252.01 101.746 249.43C102.796 249.4 105.496 249.61 105.526 252.97C105.526 255.01 105.316 257.02 104.926 259H111.526C111.106 256.99 110.926 254.98 110.926 252.94V252.73C110.926 249.85 109.336 248.8 107.446 248.44C109.636 247.36 110.926 245.14 110.926 243.1C110.926 240.28 108.406 238 105.316 238H96.5258C97.3058 243.58 97.4558 249.25 96.9158 254.86L96.5258 259ZM101.716 246.37C101.716 245.65 101.716 244.99 101.746 244.39C101.806 243.25 101.896 242.11 102.046 240.97C103.786 240.79 105.556 241.45 105.556 243.67C105.556 247.15 101.716 246.37 101.716 246.37ZM113.914 259H127.114V251.8L126.364 252.28C124.984 253.12 123.424 253.57 121.864 253.57C121.054 253.57 120.244 253.45 119.464 253.21C119.314 252.01 119.194 250.81 119.134 249.58C119.794 249.46 120.454 249.43 121.114 249.43C122.344 249.43 123.544 249.61 124.714 250V245.8C123.544 246.19 122.344 246.37 121.114 246.37C120.424 246.37 119.764 246.31 119.074 246.19C119.104 244.69 119.194 243.19 119.374 241.69C120.094 241.42 120.874 241.27 121.654 241.27C123.154 241.27 124.654 241.81 125.854 242.89L127.114 244V238H113.914C114.394 241.33 114.634 244.72 114.634 248.08C114.634 250.33 114.514 252.61 114.304 254.86L113.914 259ZM137.601 259C142.791 259 144.921 254.8 144.921 252.13C144.921 250 144.531 249.01 144.531 245.77C144.531 241.3 145.101 238 145.101 238H139.071C139.071 238 140.451 243.04 140.451 250.57C140.451 253.06 138.441 253.63 137.601 253.63C136.761 253.63 134.751 253.06 134.751 250.57C134.751 243.04 136.131 238 136.131 238H130.101C130.101 238 130.671 241.3 130.671 245.77C130.671 249.01 130.281 250 130.281 252.13C130.281 254.8 132.411 259 137.601 259ZM147.812 259H154.412L154.022 257.17C153.332 253.84 152.972 250.45 152.972 247.06C152.972 246.34 153.002 245.62 153.032 244.9C155.252 249.37 156.932 254.11 158.012 259H164.612L164.222 254.86C164.012 252.61 163.892 250.33 163.892 248.08C163.892 244.72 164.132 241.33 164.612 238H158.612C159.182 241 159.452 244 159.452 247.03C159.452 248.5 159.392 250 159.242 251.47C157.862 248.83 156.692 246.13 155.702 243.31L153.812 238H147.812C148.292 241.33 148.532 244.72 148.532 248.08C148.532 250.33 148.412 252.61 148.202 254.86L147.812 259ZM167.8 259H173.8L173.41 254.86C173.2 252.61 173.08 250.33 173.08 248.08C173.08 244.72 173.32 241.33 173.8 238H167.8C168.28 241.33 168.52 244.72 168.52 248.08C168.52 250.33 168.4 252.61 168.19 254.86L167.8 259ZM184.595 259.3C189.785 259.3 193.295 254.5 193.295 249.1C193.295 241.3 189.005 237.7 184.595 237.7C180.155 237.7 175.895 241.3 175.895 249.1C175.895 254.5 178.775 259.3 184.595 259.3ZM184.595 253.9C182.375 253.9 181.235 251.23 181.235 248.17C181.235 244.6 182.285 241.51 184.475 241.3H184.715C186.875 241.51 187.955 244.6 187.955 248.17C187.955 251.47 186.815 253.9 184.595 253.9ZM195.113 259H201.713L201.323 257.17C200.633 253.84 200.273 250.45 200.273 247.06C200.273 246.34 200.303 245.62 200.333 244.9C202.553 249.37 204.233 254.11 205.313 259H211.913L211.523 254.86C211.313 252.61 211.193 250.33 211.193 248.08C211.193 244.72 211.433 241.33 211.913 238H205.913C206.483 241 206.753 244 206.753 247.03C206.753 248.5 206.693 250 206.543 251.47C205.163 248.83 203.993 246.13 203.003 243.31L201.113 238H195.113C195.593 241.33 195.833 244.72 195.833 248.08C195.833 250.33 195.713 252.61 195.503 254.86L195.113 259Z" fill="#ECA1FF"/>
<g clip-path="url(#clip0_101_10849)">
<path d="M0.675507 292.397C1.99418 291.598 3.23644 290.654 4.38079 289.583L4.51452 289.447C4.93338 290.177 5.41099 290.894 5.91535 291.558C6.41971 292.221 6.98328 292.875 7.57312 293.473C6.84381 293.892 6.14746 294.353 5.48359 294.857C6.29027 295.696 6.97563 295.176 6.97563 295.176L7.88643 296.375C6.55868 297.384 5.11535 297.129 3.81387 296.26C3.5168 296.047 3.2245 295.796 2.93268 295.545C2.6294 295.235 2.29365 294.882 2.01711 294.518L0.488281 292.505L0.675507 292.397ZM5.88 288.445C7.22017 287.63 8.46243 286.687 9.58528 285.63L9.74051 285.48C10.1594 286.208 10.637 286.926 11.1413 287.59C11.6457 288.254 12.2088 288.906 12.7991 289.505C12.0698 289.923 11.3734 290.385 10.7096 290.889C11.5163 291.729 12.1801 291.224 12.1801 291.224L13.0909 292.423C11.7847 293.415 10.3198 293.176 9.03985 292.292C8.74278 292.078 8.429 291.844 8.15867 291.577C7.83389 291.283 7.51963 290.914 7.24309 290.549L5.71378 288.537L5.88 288.445Z" fill="#ECA1FF"/>
<path d="M16.6491 292.711C13.8751 286.826 15.8209 281.808 19.3485 280.146C22.7061 278.565 25.5909 279.703 27.4812 281.695L24.4623 284.247C23.7229 283.436 22.4272 282.262 20.9432 282.961C18.9483 283.901 19.263 286.903 20.6729 289.895C21.8192 292.327 23.7869 294.105 25.5383 293.279C27.2902 292.454 27.2104 290.709 26.5227 289.25C26.3966 288.982 26.2232 288.678 26.0498 288.373C25.4031 288.766 24.755 289.22 24.1771 289.761L22.5724 286.355C23.743 286.19 24.8935 285.856 25.9643 285.352C27.0346 284.847 28.0247 284.173 28.8978 283.376L29.3219 284.781C29.6658 286.015 30.1434 287.218 30.7051 288.409C31.7596 290.647 33.1189 292.711 34.6568 294.335L34.0244 294.633C32.8567 295.183 31.5466 294.611 31.0537 293.565C30.9505 293.346 30.8961 293.104 30.866 292.851C30.5866 295.033 29.4752 296.775 27.6016 297.658C22.9062 299.869 18.7123 297.09 16.6491 292.711Z" fill="#ECA1FF"/>
<path d="M34.1552 290.565C33.8337 288.565 33.4278 286.56 32.9239 284.607C32.1717 281.69 31.2045 278.802 30.042 276.019L35.2508 274.676C35.428 277.408 35.865 280.072 36.5432 282.702C37.007 284.498 37.5744 286.267 38.2654 287.978C38.9962 288.011 39.7264 287.935 40.4295 287.753C41.784 287.404 43.0377 286.665 44.0474 285.627L44.5914 285.042L46.2033 291.29L34.7436 294.245L34.1552 290.565Z" fill="#ECA1FF"/>
<path d="M46.4823 287.94C47.9429 282.812 48.4033 277.437 47.845 272.143L54.3175 271.46C54.8758 276.754 56.4481 281.915 58.946 286.626L60.5713 289.726L54.9279 290.321L54.4192 287.293C53.8461 287.245 53.2816 287.278 52.7199 287.337C52.1583 287.396 51.5994 287.482 51.0492 287.648L51.1834 290.716L45.54 291.31L46.4823 287.94ZM53.8146 284.382C53.2271 282.146 52.4792 279.928 51.7102 277.765C51.4093 280.04 51.1409 282.367 51.033 284.676C51.4934 284.681 51.9777 284.657 52.4324 284.61C52.8871 284.561 53.3656 284.484 53.8146 284.382Z" fill="#ECA1FF"/>
<path d="M60.4469 286.123C61.073 281.109 61.1093 276.024 60.5242 271.03L60.5247 271.002L66.9796 271.185C70.7675 271.454 74.3892 274.731 74.2096 281.076C74.0725 285.916 71.3688 290.145 66.1509 289.997L59.9922 289.824L60.4469 286.123ZM65.2115 285.154C66.4389 285.539 67.7452 285.037 68.3947 283.953C69.0161 282.921 69.3523 281.504 69.392 280.106C69.4584 277.767 68.9683 276.058 68.2448 274.988C67.6253 274.056 66.5072 273.62 65.4245 273.831C64.8337 277.582 64.7535 281.374 65.1585 285.126L65.2115 285.154Z" fill="#ECA1FF"/>
<path d="M84.9439 288.323C85.4578 286.729 85.8929 285.117 86.2755 283.493L86.1164 282.963C85.0982 279.684 84.0627 275.604 82.543 272.353L87.8783 273.519C88.0149 275.917 88.4161 278.868 88.9453 280.856C90.2826 279.275 91.8434 276.671 92.9773 274.634L98.3131 275.8C95.6012 278.126 92.9567 281.402 90.6633 283.956L90.2969 284.372C89.9669 286.007 89.6894 287.653 89.4912 289.317L89.0399 293.018L83.7833 291.869L84.9439 288.323Z" fill="#ECA1FF"/>
<path d="M95.0583 285.254C97.2238 278.605 101.856 276.718 105.642 277.951C109.402 279.174 112.061 283.434 109.896 290.083C108.396 294.686 104.071 297.804 99.6452 296.364C94.6824 294.749 93.5591 289.858 95.0583 285.254ZM105.601 287.809C106.592 284.765 106.528 281.831 104.745 281.053L104.54 280.986C102.614 280.557 100.861 282.9 99.8702 285.944C99.0205 288.552 99.2512 291.144 101.144 291.76C103.038 292.377 104.684 290.622 105.601 287.809Z" fill="#ECA1FF"/>
<path d="M109.6 292.994C110.258 291.202 110.892 290.489 111.893 287.763C113.274 284 113.814 281.048 113.814 281.048L118.89 282.91C118.89 282.91 116.171 286.725 113.844 293.062C113.075 295.158 114.591 296.258 115.298 296.518C116.005 296.776 117.873 296.918 118.643 294.823C120.969 288.486 121.365 283.818 121.365 283.818L126.44 285.68C126.44 285.68 124.941 288.281 123.56 292.043C122.559 294.77 122.582 295.723 121.923 297.516C121.099 299.763 118.008 302.64 113.639 301.036C109.27 299.433 108.775 295.241 109.6 292.994Z" fill="#ECA1FF"/>
<path d="M128.74 297.21C130.25 290.881 134.905 288.175 138.698 289.08C142.309 289.94 143.852 292.63 144.084 295.367L140.132 295.475C140.061 294.381 139.781 292.655 138.185 292.275C136.04 291.763 134.41 294.305 133.643 297.522C133.019 300.138 133.446 302.755 135.329 303.204C137.213 303.653 138.242 302.24 138.616 300.671C138.684 300.382 138.739 300.037 138.794 299.69C138.043 299.593 137.253 299.544 136.465 299.605L137.338 295.943C138.356 296.544 139.463 297.002 140.614 297.277C141.766 297.551 142.96 297.643 144.141 297.564L143.594 298.927C143.092 300.106 142.714 301.343 142.408 302.624C141.834 305.031 141.606 307.493 141.794 309.721L141.114 309.558C139.858 309.259 139.192 307.995 139.46 306.87C139.516 306.634 139.624 306.412 139.759 306.195C138.178 307.726 136.221 308.392 134.206 307.912C129.157 306.709 127.617 301.919 128.74 297.21Z" fill="#ECA1FF"/>
<path d="M145.605 306.073C145.856 304.064 146.027 302.025 146.09 300.009C146.184 297 146.063 293.957 145.726 290.96L157.553 291.328L157.386 296.702L156.288 295.673C155.243 294.672 153.914 294.147 152.57 294.105C151.871 294.083 151.168 294.195 150.515 294.418C150.312 295.756 150.189 297.097 150.121 298.44C150.736 298.567 151.326 298.639 151.944 298.658C153.046 298.692 154.126 298.564 155.185 298.248L155.068 302.009C154.031 301.627 152.96 301.434 151.859 301.399C151.267 301.38 150.675 301.389 150.08 301.479C150.1 302.581 150.174 303.66 150.275 304.739C150.967 304.975 151.69 305.105 152.415 305.128C153.813 305.171 155.223 304.812 156.483 304.098L157.169 303.689L156.968 310.138L145.141 309.771L145.605 306.073Z" fill="#ECA1FF"/>
<path d="M164.265 305.554C164.135 303.533 163.922 301.498 163.606 299.506C163.287 297.487 162.856 295.459 162.35 293.47C160.78 294.045 159.314 294.932 158.062 296.137L157.304 291.356L171.119 289.168L171.876 293.949C170.312 293.189 168.644 292.8 166.973 292.738C167.107 294.785 167.324 296.848 167.644 298.866C167.96 300.858 168.386 302.859 168.888 304.823L169.814 308.432L164.501 309.275L164.265 305.554Z" fill="#ECA1FF"/>
<path d="M184.526 300.73C184.079 298.755 183.548 296.779 182.922 294.862C182.288 292.919 181.543 290.985 180.73 289.101C179.27 289.916 177.962 291.022 176.916 292.41L175.414 287.809L188.709 283.471L190.21 288.072C188.546 287.569 186.838 287.447 185.178 287.649C185.634 289.65 186.174 291.651 186.808 293.595C187.434 295.511 188.17 297.42 188.974 299.278L190.459 302.698L185.344 304.365L184.526 300.73Z" fill="#ECA1FF"/>
<path d="M191.604 292.896C189.296 286.297 191.835 281.99 195.592 280.677C199.324 279.372 204.02 281.148 206.329 287.747C207.928 292.315 206.379 297.414 201.987 298.951C197.062 300.673 193.203 297.464 191.604 292.896ZM201.535 288.54C200.478 285.52 198.65 283.225 196.76 283.687L196.556 283.758C194.765 284.584 194.792 287.509 195.848 290.529C196.754 293.118 198.51 295.039 200.388 294.382C202.266 293.725 202.512 291.332 201.535 288.54Z" fill="#ECA1FF"/>
<path d="M214.451 294.104L212.973 288.375C212.973 288.375 214.681 289.074 216.973 288.483C218.587 288.066 219.328 286.848 219.04 285.729C218.395 283.229 212.944 285.246 211.634 280.168C210.915 277.382 212.699 275.145 215.825 274.339C218.377 273.681 220.518 273.907 220.518 273.907L221.674 278.385C221.674 278.385 219.964 276.604 217.49 277.242C216.37 277.531 215.841 278.389 216.13 279.508C216.942 282.659 223.432 281.541 224.574 285.968C225.548 289.743 222.913 292.56 219.814 293.36C216.689 294.166 214.451 294.104 214.451 294.104Z" fill="#ECA1FF"/>
<path d="M225.979 287.687C225.903 285.663 225.745 283.622 225.483 281.623C225.091 278.637 224.484 275.651 223.669 272.748L235.405 271.212L236.103 276.544L234.854 275.704C233.661 274.884 232.264 274.579 230.931 274.753C230.237 274.845 229.562 275.068 228.952 275.392C228.968 276.746 229.062 278.089 229.21 279.426C229.837 279.453 230.431 279.429 231.044 279.349C232.138 279.206 233.184 278.906 234.178 278.424L234.667 282.156C233.582 281.945 232.494 281.925 231.4 282.069C230.814 282.145 230.23 282.249 229.658 282.432C229.854 283.518 230.1 284.571 230.374 285.62C231.095 285.743 231.829 285.756 232.55 285.661C233.937 285.48 235.271 284.898 236.4 283.991L237.01 283.477L237.849 289.876L226.113 291.413L225.979 287.687Z" fill="#ECA1FF"/>
<path d="M239.109 286.114C239.367 284.105 239.545 282.067 239.614 280.051C239.718 277.041 239.607 273.998 239.28 271L251.107 271.407L250.923 276.781L249.828 275.748C248.786 274.743 247.458 274.213 246.114 274.167C245.416 274.144 244.712 274.253 244.058 274.473C243.851 275.812 243.724 277.153 243.651 278.495C244.266 278.624 244.855 278.698 245.473 278.719C246.575 278.757 247.656 278.633 248.716 278.32L248.587 282.082C247.551 281.696 246.481 281.498 245.379 281.46C244.787 281.439 244.195 281.446 243.6 281.534C243.616 282.637 243.686 283.716 243.783 284.795C244.475 285.035 245.197 285.166 245.923 285.191C247.32 285.24 248.732 284.885 249.995 284.175L250.682 283.768L250.459 290.217L238.632 289.81L239.109 286.114Z" fill="#ECA1FF"/>
<path d="M257.184 287.39C257.875 285.486 258.494 283.536 259.002 281.584C259.762 278.67 260.318 275.675 260.655 272.679L265.861 274.033C265.149 276.766 265.069 279.634 265.681 282.406L266.024 284.079L267.139 282.785C269.025 280.664 270.355 278.12 271.067 275.388L276.273 276.743C275.103 279.523 274.13 282.41 273.371 285.324C272.862 287.275 272.452 289.28 272.126 291.279L271.529 294.958L265.802 293.468L266.554 291.968C267.905 289.236 268.977 286.403 269.735 283.489L264.804 288.763L263.071 281.754C262.313 284.669 261.866 287.665 261.712 290.709L261.638 292.384L255.911 290.894L257.184 287.39Z" fill="#ECA1FF"/>
<path d="M274.071 292.099C275 290.299 275.863 288.443 276.616 286.572C277.741 283.778 278.676 280.879 279.392 277.948L290.372 282.367L288.363 287.356L287.687 286.012C287.051 284.712 285.984 283.761 284.735 283.258C284.087 282.998 283.387 282.861 282.699 282.845C282.046 284.032 281.469 285.249 280.942 286.486C281.476 286.817 282.005 287.088 282.579 287.319C283.602 287.73 284.661 287.982 285.764 288.05L284.358 291.542C283.515 290.826 282.577 290.275 281.554 289.864C281.005 289.642 280.446 289.446 279.857 289.325C279.495 290.369 279.193 291.407 278.916 292.454C279.484 292.916 280.119 293.286 280.792 293.557C282.089 294.08 283.538 294.228 284.967 293.991L285.752 293.843L283.342 299.83L272.36 295.412L274.071 292.099Z" fill="#ECA1FF"/>
<path d="M286.362 295.835C287.695 296.66 289.099 297.341 290.573 297.876L290.755 297.934C289.834 299.34 289.094 300.864 288.56 302.459C287.118 301.551 285.616 300.823 284.01 300.254C284.931 298.848 285.67 297.323 286.203 295.729L286.362 295.835ZM287.412 294.222C289.282 290.735 290.848 287.071 292.064 283.267L296.906 285.612C294.674 288.924 292.768 292.424 291.188 296.052L287.412 294.222Z" fill="#ECA1FF"/>
<path d="M302.279 288.458L301.04 290.661C300.816 291.06 300.556 291.469 300.274 291.804C300.043 292.106 299.765 292.382 299.499 292.633C298.352 293.685 296.934 294.123 295.503 293.319L296.242 292.007C296.242 292.007 296.969 292.414 297.653 291.473C296.926 291.064 296.173 290.702 295.393 290.388C295.895 289.714 296.364 288.99 296.773 288.263C297.181 287.537 297.556 286.76 297.87 285.981L298.045 286.11C299.302 287.002 300.663 287.766 302.101 288.389L302.279 288.458ZM308 291.672L306.762 293.876C306.537 294.275 306.253 294.67 305.995 295.018C305.74 295.308 305.485 295.596 305.221 295.848C304.05 296.887 302.655 297.337 301.201 296.521L301.94 295.208C301.94 295.208 302.689 295.63 303.373 294.687C302.647 294.278 301.894 293.917 301.114 293.602C301.617 292.929 302.085 292.205 302.494 291.478C302.902 290.752 303.277 289.975 303.592 289.196L303.743 289.312C305.024 290.216 306.383 290.98 307.799 291.591L308 291.672Z" fill="#ECA1FF"/>
</g>
<defs>
<clipPath id="clip0_101_10849">
<rect width="307.512" height="39.1378" fill="white" transform="translate(0.488281 271)"/>
</clipPath>
</defs>
</svg>
