<svg width="345" height="200" viewBox="0 0 345 200" fill="none" xmlns="http://www.w3.org/2000/svg">
<g clip-path="url(#clip0_96_7214)">
<path d="M172.904 7.4966L183.701 0L192.797 8.22462L205.124 1.57429L212.377 10.3972L226.04 4.69803L231.334 13.9802L246.117 9.32197L249.37 18.9169L265.04 15.3732L266.2 25.1296L282.51 22.7563L281.558 32.5203L298.251 31.3547L295.203 40.9724L312.015 41.033L306.919 50.3526L323.586 51.6384L316.522 60.513L332.78 63.0038L323.86 71.2934L339.453 74.9499L328.817 82.5238L343.499 87.2882L331.315 94.0269L344.855 99.8242L331.315 105.622L343.499 112.36L328.817 117.125L339.453 124.699L323.86 128.355L332.78 136.645L316.522 139.135L323.586 148.01L306.919 149.296L312.015 158.615L295.203 158.676L298.251 168.294L281.558 167.128L282.51 176.892L266.2 174.519L265.04 184.275L249.37 180.732L246.117 190.326L231.334 185.668L226.04 194.95L212.377 189.251L205.124 198.074L192.797 191.424L183.701 199.648L172.904 192.152L162.107 199.648L153.01 191.424L140.683 198.074L133.431 189.251L119.768 194.95L114.473 185.668L99.6903 190.326L96.4376 180.732L80.7675 184.275L79.6078 174.519L63.2977 176.892L64.2493 167.128L47.5564 168.294L50.6044 158.676L33.792 158.615L38.8882 149.296L22.2214 148.01L29.2855 139.135L13.0272 136.645L21.9477 128.355L6.35434 124.699L16.9906 117.125L2.30803 112.36L14.4924 105.622L0.952148 99.8242L14.4924 94.0269L2.30803 87.2882L16.9906 82.5238L6.35434 74.9499L21.9477 71.2934L13.0272 63.0038L29.2855 60.513L22.2214 51.6384L38.8882 50.3526L33.792 41.033L50.6044 40.9724L47.5564 31.3547L64.2493 32.5203L63.2977 22.7563L79.6078 25.1296L80.7675 15.3732L96.4376 18.9169L99.6903 9.32197L114.473 13.9802L119.768 4.69803L133.431 10.3972L140.683 1.57429L153.01 8.22462L162.107 0L172.904 7.4966Z" fill="#ECA1FF"/>
<path d="M172.904 178.635C252.372 178.635 316.794 143.35 316.794 99.8242C316.794 56.2981 252.372 21.0132 172.904 21.0132C93.4355 21.0132 29.0137 56.2981 29.0137 99.8242C29.0137 143.35 93.4355 178.635 172.904 178.635Z" fill="#0D0B6B"/>
<path d="M64.4917 117.55V82.7265H73.9458V109.933H88.0249V117.55H64.4917ZM124.226 100.138C124.226 104.015 123.472 107.286 121.965 109.95C120.457 112.602 118.422 114.614 115.86 115.986C113.298 117.346 110.442 118.026 107.29 118.026C104.116 118.026 101.248 117.341 98.6863 115.969C96.1357 114.586 94.1066 112.568 92.599 109.916C91.1026 107.252 90.3544 103.993 90.3544 100.138C90.3544 96.2616 91.1026 92.9968 92.599 90.3442C94.1066 87.6803 96.1357 85.6682 98.6863 84.3079C101.248 82.9362 104.116 82.2504 107.29 82.2504C110.442 82.2504 113.298 82.9362 115.86 84.3079C118.422 85.6682 120.457 87.6803 121.965 90.3442C123.472 92.9968 124.226 96.2616 124.226 100.138ZM114.5 100.138C114.5 98.0526 114.222 96.2956 113.667 94.8673C113.123 93.4276 112.312 92.3393 111.235 91.6025C110.17 90.8544 108.855 90.4803 107.29 90.4803C105.726 90.4803 104.405 90.8544 103.328 91.6025C102.263 92.3393 101.452 93.4276 100.897 94.8673C100.353 96.2956 100.081 98.0526 100.081 100.138C100.081 102.224 100.353 103.987 100.897 105.427C101.452 106.855 102.263 107.943 103.328 108.691C104.405 109.428 105.726 109.797 107.29 109.797C108.855 109.797 110.17 109.428 111.235 108.691C112.312 107.943 113.123 106.855 113.667 105.427C114.222 103.987 114.5 102.224 114.5 100.138ZM141.999 117.55H128.6V82.7265H141.863C145.445 82.7265 148.54 83.4237 151.147 84.818C153.766 86.201 155.784 88.1961 157.201 90.8033C158.629 93.3993 159.343 96.511 159.343 100.138C159.343 103.766 158.635 106.883 157.218 109.491C155.801 112.086 153.794 114.082 151.198 115.476C148.602 116.859 145.536 117.55 141.999 117.55ZM138.054 109.525H141.659C143.382 109.525 144.85 109.247 146.063 108.691C147.287 108.136 148.217 107.178 148.852 105.818C149.498 104.457 149.821 102.564 149.821 100.138C149.821 97.7126 149.492 95.8195 148.835 94.4592C148.189 93.0989 147.236 92.141 145.978 91.5855C144.731 91.0301 143.201 90.7523 141.387 90.7523H138.054V109.525ZM186.332 94.2211C186.185 93.6203 185.953 93.0932 185.635 92.6398C185.318 92.175 184.921 91.7839 184.445 91.4665C183.98 91.1377 183.436 90.894 182.813 90.7353C182.2 90.5653 181.526 90.4803 180.789 90.4803C179.202 90.4803 177.848 90.86 176.725 91.6195C175.614 92.379 174.764 93.4729 174.175 94.9013C173.597 96.3296 173.308 98.0526 173.308 100.07C173.308 102.111 173.585 103.857 174.141 105.308C174.696 106.759 175.524 107.869 176.623 108.64C177.723 109.411 179.089 109.797 180.721 109.797C182.161 109.797 183.357 109.587 184.309 109.167C185.273 108.748 185.992 108.153 186.468 107.382C186.945 106.611 187.183 105.704 187.183 104.661L188.815 104.831H180.857V98.098H196.297V102.927C196.297 106.101 195.622 108.816 194.273 111.072C192.936 113.316 191.088 115.039 188.73 116.241C186.383 117.431 183.691 118.026 180.653 118.026C177.264 118.026 174.288 117.307 171.726 115.867C169.164 114.427 167.163 112.375 165.724 109.712C164.295 107.048 163.581 103.879 163.581 100.206C163.581 97.3271 164.018 94.7766 164.891 92.5547C165.775 90.3329 166.999 88.4568 168.563 86.9265C170.128 85.3848 171.936 84.2229 173.988 83.4407C176.039 82.6472 178.239 82.2504 180.585 82.2504C182.648 82.2504 184.564 82.5452 186.332 83.1346C188.112 83.7128 189.682 84.5403 191.042 85.6172C192.414 86.6828 193.519 87.9467 194.358 89.409C195.197 90.8714 195.707 92.4754 195.889 94.2211H186.332ZM210.159 82.7265V117.55H200.705V82.7265H210.159ZM244.77 82.7265V117.55H236.88L224.298 99.2542H224.094V117.55H214.639V82.7265H222.665L235.044 100.955H235.316V82.7265H244.77ZM271.857 94.2211C271.71 93.6203 271.478 93.0932 271.16 92.6398C270.843 92.175 270.446 91.7839 269.97 91.4665C269.505 91.1377 268.961 90.894 268.337 90.7353C267.725 90.5653 267.051 90.4803 266.314 90.4803C264.727 90.4803 263.372 90.86 262.25 91.6195C261.139 92.379 260.289 93.4729 259.7 94.9013C259.121 96.3296 258.832 98.0526 258.832 100.07C258.832 102.111 259.11 103.857 259.666 105.308C260.221 106.759 261.049 107.869 262.148 108.64C263.248 109.411 264.614 109.797 266.246 109.797C267.686 109.797 268.882 109.587 269.834 109.167C270.797 108.748 271.517 108.153 271.993 107.382C272.469 106.611 272.707 105.704 272.707 104.661L274.34 104.831H266.382V98.098H281.822V102.927C281.822 106.101 281.147 108.816 279.798 111.072C278.46 113.316 276.613 115.039 274.255 116.241C271.908 117.431 269.216 118.026 266.178 118.026C262.789 118.026 259.813 117.307 257.251 115.867C254.689 114.427 252.688 112.375 251.249 109.712C249.82 107.048 249.106 103.879 249.106 100.206C249.106 97.3271 249.543 94.7766 250.415 92.5547C251.3 90.3329 252.524 88.4568 254.088 86.9265C255.653 85.3848 257.461 84.2229 259.513 83.4407C261.564 82.6472 263.763 82.2504 266.11 82.2504C268.173 82.2504 270.089 82.5452 271.857 83.1346C273.637 83.7128 275.207 84.5403 276.567 85.6172C277.939 86.6828 279.044 87.9467 279.883 89.409C280.722 90.8714 281.232 92.4754 281.413 94.2211H271.857Z" fill="#ECA1FF"/>
</g>
<defs>
<clipPath id="clip0_96_7214">
<rect width="343.903" height="199.648" fill="white" transform="translate(0.952148)"/>
</clipPath>
</defs>
</svg>
