<svg width="344" height="200" viewBox="0 0 344 200" fill="none" xmlns="http://www.w3.org/2000/svg">
<g clip-path="url(#clip0_96_7210)">
<path d="M172 7.4966L182.797 0L191.894 8.22462L204.221 1.57429L211.474 10.3972L225.136 4.69803L230.431 13.9802L245.214 9.32197L248.467 18.9169L264.137 15.3732L265.296 25.1296L281.606 22.7563L280.655 32.5203L297.348 31.3547L294.3 40.9724L311.112 41.033L306.016 50.3526L322.683 51.6384L315.619 60.513L331.877 63.0038L322.956 71.2934L338.55 74.9499L327.913 82.5238L342.596 87.2882L330.412 94.0269L343.952 99.8242L330.412 105.622L342.596 112.36L327.913 117.125L338.55 124.699L322.956 128.355L331.877 136.645L315.619 139.135L322.683 148.01L306.016 149.296L311.112 158.615L294.3 158.676L297.348 168.294L280.655 167.128L281.606 176.892L265.296 174.519L264.137 184.275L248.467 180.732L245.214 190.326L230.431 185.668L225.136 194.95L211.474 189.251L204.221 198.074L191.894 191.424L182.797 199.648L172 192.152L161.203 199.648L152.107 191.424L139.78 198.074L132.527 189.251L118.864 194.95L113.57 185.668L98.787 190.326L95.5343 180.732L79.8641 184.275L78.7045 174.519L62.3943 176.892L63.346 167.128L46.6531 168.294L49.701 158.676L32.8887 158.615L37.9848 149.296L21.3181 148.01L28.3821 139.135L12.1239 136.645L21.0444 128.355L5.45102 124.699L16.0873 117.125L1.40471 112.36L13.5891 105.622L0.0488281 99.8242L13.5891 94.0269L1.40471 87.2882L16.0873 82.5238L5.45102 74.9499L21.0444 71.2934L12.1239 63.0038L28.3821 60.513L21.3181 51.6384L37.9848 50.3526L32.8887 41.033L49.701 40.9724L46.6531 31.3547L63.346 32.5203L62.3943 22.7563L78.7045 25.1296L79.8641 15.3732L95.5343 18.9169L98.787 9.32197L113.57 13.9802L118.864 4.69803L132.527 10.3972L139.78 1.57429L152.107 8.22462L161.203 0L172 7.4966Z" fill="#ECA1FF"/>
<path d="M172 178.635C251.469 178.635 315.891 143.35 315.891 99.8242C315.891 56.2981 251.469 21.0132 172 21.0132C92.5322 21.0132 28.1104 56.2981 28.1104 99.8242C28.1104 143.35 92.5322 178.635 172 178.635Z" fill="#0D0B6B"/>
<path d="M60.0843 76.0508H74.7385L87.1696 106.363H87.7433L100.174 76.0508H114.829V125.01H103.306V94.9364H102.9L91.1379 124.699H83.7749L72.0133 94.769H71.6069V125.01H60.0843V76.0508ZM122.21 125.01V76.0508H156.347V85.6609H134.043V95.7014H154.602V105.335H134.043V115.4H156.347V125.01H122.21ZM174.348 125.01H161.63L178.149 76.0508H193.903L210.422 125.01H197.704L186.205 88.3862H185.823L174.348 125.01ZM172.651 105.742H199.234V114.73H172.651V105.742ZM215.693 125.01V76.0508H227.527V115.4H247.894V125.01H215.693ZM280.484 90.7289C280.325 88.9758 279.616 87.6132 278.357 86.641C277.113 85.6529 275.336 85.1589 273.026 85.1589C271.496 85.1589 270.221 85.3581 269.201 85.7565C268.181 86.155 267.416 86.7048 266.906 87.406C266.396 88.0913 266.133 88.8802 266.117 89.7727C266.085 90.5058 266.228 91.1513 266.547 91.7091C266.882 92.2669 267.36 92.7609 267.981 93.1912C268.619 93.6056 269.384 93.9722 270.276 94.2909C271.169 94.6097 272.173 94.8886 273.288 95.1276L277.496 96.0839C279.918 96.6098 282.054 97.311 283.903 98.1876C285.767 99.0641 287.329 100.108 288.588 101.319C289.863 102.53 290.827 103.925 291.481 105.503C292.134 107.081 292.469 108.85 292.485 110.81C292.469 113.902 291.688 116.555 290.142 118.77C288.596 120.986 286.373 122.683 283.472 123.862C280.588 125.042 277.105 125.631 273.026 125.631C268.93 125.631 265.36 125.018 262.316 123.791C259.272 122.564 256.905 120.699 255.216 118.197C253.526 115.695 252.658 112.531 252.61 108.706H263.941C264.037 110.284 264.459 111.599 265.208 112.651C265.957 113.702 266.985 114.499 268.292 115.041C269.615 115.583 271.145 115.854 272.882 115.854C274.476 115.854 275.83 115.639 276.946 115.209C278.078 114.778 278.946 114.181 279.552 113.416C280.157 112.651 280.468 111.774 280.484 110.786C280.468 109.862 280.181 109.073 279.624 108.419C279.066 107.75 278.205 107.176 277.042 106.698C275.894 106.204 274.428 105.75 272.643 105.335L267.527 104.14C263.288 103.168 259.949 101.598 257.511 99.4307C255.072 97.2473 253.861 94.2989 253.877 90.5855C253.861 87.5574 254.674 84.9039 256.315 82.6249C257.957 80.3458 260.228 78.5688 263.129 77.2939C266.029 76.0189 269.336 75.3814 273.049 75.3814C276.842 75.3814 280.134 76.0269 282.923 77.3178C285.727 78.5927 287.903 80.3857 289.449 82.6966C290.995 85.0075 291.784 87.6849 291.816 90.7289H280.484Z" fill="#ECA1FF"/>
</g>
<defs>
<clipPath id="clip0_96_7210">
<rect width="343.903" height="199.648" fill="white" transform="translate(0.0488281)"/>
</clipPath>
</defs>
</svg>
