<svg width="345" height="200" viewBox="0 0 345 200" fill="none" xmlns="http://www.w3.org/2000/svg">
<g clip-path="url(#clip0_28_40)">
<path d="M172.948 7.4966L183.745 0L192.842 8.22462L205.169 1.57429L212.422 10.3972L226.084 4.69803L231.379 13.9802L246.162 9.32197L249.415 18.9169L265.085 15.3732L266.244 25.1296L282.554 22.7563L281.603 32.5203L298.296 31.3547L295.248 40.9724L312.06 41.033L306.964 50.3526L323.631 51.6384L316.567 60.513L332.825 63.0038L323.904 71.2934L339.498 74.9499L328.861 82.5238L343.544 87.2882L331.36 94.0269L344.9 99.8242L331.36 105.622L343.544 112.36L328.861 117.125L339.498 124.699L323.904 128.355L332.825 136.645L316.567 139.135L323.631 148.01L306.964 149.296L312.06 158.615L295.248 158.676L298.296 168.294L281.603 167.128L282.554 176.892L266.244 174.519L265.085 184.275L249.415 180.732L246.162 190.326L231.379 185.668L226.084 194.95L212.422 189.251L205.169 198.074L192.842 191.424L183.745 199.648L172.948 192.152L162.151 199.648L153.055 191.424L140.728 198.074L133.475 189.251L119.812 194.95L114.518 185.668L99.735 190.326L96.4823 180.732L80.8121 184.275L79.6525 174.519L63.3423 176.892L64.294 167.128L47.6011 168.294L50.649 158.676L33.8367 158.615L38.9328 149.296L22.2661 148.01L29.3301 139.135L13.0719 136.645L21.9924 128.355L6.39901 124.699L17.0353 117.125L2.3527 112.36L14.5371 105.622L0.996826 99.8242L14.5371 94.0269L2.3527 87.2882L17.0353 82.5238L6.39901 74.9499L21.9924 71.2934L13.0719 63.0038L29.3301 60.513L22.2661 51.6384L38.9328 50.3526L33.8367 41.033L50.649 40.9724L47.6011 31.3547L64.294 32.5203L63.3423 22.7563L79.6525 25.1296L80.8121 15.3732L96.4823 18.9169L99.735 9.32197L114.518 13.9802L119.812 4.69803L133.475 10.3972L140.728 1.57429L153.055 8.22462L162.151 0L172.948 7.4966Z" fill="#0F0D98"/>
<path d="M172.948 178.635C252.417 178.635 316.839 143.35 316.839 99.8242C316.839 56.2981 252.417 21.0132 172.948 21.0132C93.4802 21.0132 29.0583 56.2981 29.0583 99.8242C29.0583 143.35 93.4802 178.635 172.948 178.635Z" fill="white"/>
<path d="M64.5361 117.55V82.7265H73.9902V109.933H88.0694V117.55H64.5361ZM124.27 100.138C124.27 104.015 123.517 107.286 122.009 109.95C120.501 112.602 118.466 114.614 115.905 115.986C113.343 117.346 110.486 118.026 107.335 118.026C104.161 118.026 101.293 117.341 98.7307 115.969C96.1802 114.586 94.1511 112.568 92.6434 109.916C91.1471 107.252 90.3989 103.993 90.3989 100.138C90.3989 96.2616 91.1471 92.9968 92.6434 90.3442C94.1511 87.6803 96.1802 85.6682 98.7307 84.3079C101.293 82.9362 104.161 82.2504 107.335 82.2504C110.486 82.2504 113.343 82.9362 115.905 84.3079C118.466 85.6682 120.501 87.6803 122.009 90.3442C123.517 92.9968 124.27 96.2616 124.27 100.138ZM114.544 100.138C114.544 98.0526 114.267 96.2956 113.711 94.8673C113.167 93.4276 112.356 92.3393 111.28 91.6025C110.214 90.8544 108.899 90.4803 107.335 90.4803C105.77 90.4803 104.45 90.8544 103.373 91.6025C102.307 92.3393 101.497 93.4276 100.941 94.8673C100.397 96.2956 100.125 98.0526 100.125 100.138C100.125 102.224 100.397 103.987 100.941 105.427C101.497 106.855 102.307 107.943 103.373 108.691C104.45 109.428 105.77 109.797 107.335 109.797C108.899 109.797 110.214 109.428 111.28 108.691C112.356 107.943 113.167 106.855 113.711 105.427C114.267 103.987 114.544 102.224 114.544 100.138ZM142.044 117.55H128.645V82.7265H141.908C145.49 82.7265 148.584 83.4237 151.192 84.818C153.81 86.201 155.828 88.1961 157.245 90.8033C158.673 93.3993 159.388 96.511 159.388 100.138C159.388 103.766 158.679 106.883 157.262 109.491C155.845 112.086 153.839 114.082 151.243 115.476C148.647 116.859 145.58 117.55 142.044 117.55ZM138.099 109.525H141.704C143.427 109.525 144.895 109.247 146.108 108.691C147.332 108.136 148.261 107.178 148.896 105.818C149.542 104.457 149.865 102.564 149.865 100.138C149.865 97.7126 149.537 95.8195 148.879 94.4592C148.233 93.0989 147.281 92.141 146.023 91.5855C144.776 91.0301 143.245 90.7523 141.432 90.7523H138.099V109.525ZM186.377 94.2211C186.229 93.6203 185.997 93.0932 185.68 92.6398C185.362 92.175 184.966 91.7839 184.489 91.4665C184.025 91.1377 183.481 90.894 182.857 90.7353C182.245 90.5653 181.57 90.4803 180.834 90.4803C179.247 90.4803 177.892 90.86 176.77 91.6195C175.659 92.379 174.809 93.4729 174.219 94.9013C173.641 96.3296 173.352 98.0526 173.352 100.07C173.352 102.111 173.63 103.857 174.185 105.308C174.741 106.759 175.568 107.869 176.668 108.64C177.767 109.411 179.133 109.797 180.766 109.797C182.205 109.797 183.401 109.587 184.353 109.167C185.317 108.748 186.037 108.153 186.513 107.382C186.989 106.611 187.227 105.704 187.227 104.661L188.859 104.831H180.902V98.098H196.341V102.927C196.341 106.101 195.667 108.816 194.318 111.072C192.98 113.316 191.132 115.039 188.774 116.241C186.428 117.431 183.736 118.026 180.698 118.026C177.308 118.026 174.332 117.307 171.771 115.867C169.209 114.427 167.208 112.375 165.768 109.712C164.34 107.048 163.626 103.879 163.626 100.206C163.626 97.3271 164.062 94.7766 164.935 92.5547C165.819 90.3329 167.044 88.4568 168.608 86.9265C170.172 85.3848 171.98 84.2229 174.032 83.4407C176.084 82.6472 178.283 82.2504 180.63 82.2504C182.693 82.2504 184.608 82.5452 186.377 83.1346C188.157 83.7128 189.727 84.5403 191.087 85.6172C192.459 86.6828 193.564 87.9467 194.403 89.409C195.241 90.8714 195.752 92.4754 195.933 94.2211H186.377ZM210.203 82.7265V117.55H200.749V82.7265H210.203ZM244.815 82.7265V117.55H236.925L224.342 99.2542H224.138V117.55H214.684V82.7265H222.71L235.088 100.955H235.361V82.7265H244.815ZM271.902 94.2211C271.754 93.6203 271.522 93.0932 271.205 92.6398C270.887 92.175 270.49 91.7839 270.014 91.4665C269.55 91.1377 269.005 90.894 268.382 90.7353C267.77 90.5653 267.095 90.4803 266.358 90.4803C264.771 90.4803 263.417 90.86 262.295 91.6195C261.184 92.379 260.333 93.4729 259.744 94.9013C259.166 96.3296 258.877 98.0526 258.877 100.07C258.877 102.111 259.155 103.857 259.71 105.308C260.265 106.759 261.093 107.869 262.193 108.64C263.292 109.411 264.658 109.797 266.29 109.797C267.73 109.797 268.926 109.587 269.878 109.167C270.842 108.748 271.562 108.153 272.038 107.382C272.514 106.611 272.752 105.704 272.752 104.661L274.384 104.831H266.426V98.098H281.866V102.927C281.866 106.101 281.191 108.816 279.842 111.072C278.505 113.316 276.657 115.039 274.299 116.241C271.953 117.431 269.26 118.026 266.222 118.026C262.833 118.026 259.857 117.307 257.295 115.867C254.734 114.427 252.733 112.375 251.293 109.712C249.865 107.048 249.151 103.879 249.151 100.206C249.151 97.3271 249.587 94.7766 250.46 92.5547C251.344 90.3329 252.568 88.4568 254.133 86.9265C255.697 85.3848 257.505 84.2229 259.557 83.4407C261.609 82.6472 263.808 82.2504 266.154 82.2504C268.218 82.2504 270.133 82.5452 271.902 83.1346C273.681 83.7128 275.251 84.5403 276.612 85.6172C277.983 86.6828 279.089 87.9467 279.928 89.409C280.766 90.8714 281.276 92.4754 281.458 94.2211H271.902Z" fill="#0F0D98"/>
</g>
<defs>
<clipPath id="clip0_28_40">
<rect width="343.903" height="199.648" fill="white" transform="translate(0.996826)"/>
</clipPath>
</defs>
</svg>
