<svg width="345" height="200" viewBox="0 0 345 200" fill="none" xmlns="http://www.w3.org/2000/svg">
<g clip-path="url(#clip0_28_37)">
<path d="M172.142 7.4966L182.939 0L192.036 8.22462L204.363 1.57429L211.615 10.3972L225.278 4.69803L230.573 13.9802L245.356 9.32197L248.608 18.9169L264.279 15.3732L265.438 25.1296L281.748 22.7563L280.797 32.5203L297.49 31.3547L294.442 40.9724L311.254 41.033L306.158 50.3526L322.825 51.6384L315.76 60.513L332.019 63.0038L323.098 71.2934L338.692 74.9499L328.055 82.5238L342.738 87.2882L330.554 94.0269L344.094 99.8242L330.554 105.622L342.738 112.36L328.055 117.125L338.692 124.699L323.098 128.355L332.019 136.645L315.76 139.135L322.825 148.01L306.158 149.296L311.254 158.615L294.442 158.676L297.49 168.294L280.797 167.128L281.748 176.892L265.438 174.519L264.279 184.275L248.608 180.732L245.356 190.326L230.573 185.668L225.278 194.95L211.615 189.251L204.363 198.074L192.036 191.424L182.939 199.648L172.142 192.152L161.345 199.648L152.249 191.424L139.922 198.074L132.669 189.251L119.006 194.95L113.712 185.668L98.9288 190.326L95.6761 180.732L80.006 184.275L78.8463 174.519L62.5362 176.892L63.4878 167.128L46.795 168.294L49.8429 158.676L33.0305 158.615L38.1267 149.296L21.4599 148.01L28.524 139.135L12.2657 136.645L21.1862 128.355L5.59286 124.699L16.2292 117.125L1.54655 112.36L13.7309 105.622L0.190674 99.8242L13.7309 94.0269L1.54655 87.2882L16.2292 82.5238L5.59286 74.9499L21.1862 71.2934L12.2657 63.0038L28.524 60.513L21.4599 51.6384L38.1267 50.3526L33.0305 41.033L49.8429 40.9724L46.795 31.3547L63.4878 32.5203L62.5362 22.7563L78.8463 25.1296L80.006 15.3732L95.6761 18.9169L98.9288 9.32197L113.712 13.9802L119.006 4.69803L132.669 10.3972L139.922 1.57429L152.249 8.22462L161.345 0L172.142 7.4966Z" fill="#0F0D98"/>
<path d="M172.142 178.635C251.611 178.635 316.032 143.35 316.032 99.8242C316.032 56.2981 251.611 21.0132 172.142 21.0132C92.674 21.0132 28.2522 56.2981 28.2522 99.8242C28.2522 143.35 92.674 178.635 172.142 178.635Z" fill="white"/>
<path d="M62.8644 93.7303C62.7738 92.5967 62.3487 91.7125 61.5892 91.0777C60.841 90.4429 59.7017 90.1255 58.1714 90.1255C57.1965 90.1255 56.3973 90.2445 55.7739 90.4826C55.1617 90.7093 54.7083 91.021 54.4136 91.4178C54.1188 91.8145 53.9658 92.268 53.9545 92.7781C53.9318 93.1975 54.0055 93.5773 54.1755 93.9173C54.3569 94.2461 54.6403 94.5465 55.0257 94.8185C55.4111 95.0793 55.9042 95.3173 56.505 95.5327C57.1058 95.7481 57.82 95.9408 58.6475 96.1108L61.5041 96.723C63.4312 97.1311 65.0806 97.6695 66.4523 98.3383C67.8239 99.0072 68.9461 99.795 69.819 100.702C70.6919 101.597 71.3323 102.606 71.7404 103.729C72.1599 104.851 72.3752 106.075 72.3866 107.401C72.3752 109.691 71.8028 111.63 70.6692 113.217C69.5356 114.804 67.9146 116.011 65.8061 116.838C63.709 117.666 61.1867 118.08 58.2394 118.08C55.2127 118.08 52.5715 117.632 50.3156 116.736C48.0711 115.841 46.3254 114.464 45.0785 112.605C43.8429 110.734 43.2194 108.342 43.2081 105.429H52.1861C52.2427 106.494 52.5091 107.39 52.9852 108.116C53.4613 108.841 54.1302 109.391 54.9917 109.765C55.8645 110.139 56.9018 110.326 58.1034 110.326C59.1123 110.326 59.9568 110.201 60.637 109.952C61.3171 109.703 61.8329 109.357 62.1843 108.915C62.5357 108.473 62.7171 107.968 62.7284 107.401C62.7171 106.869 62.5414 106.404 62.2013 106.007C61.8726 105.599 61.3284 105.236 60.5689 104.919C59.8094 104.59 58.7835 104.284 57.4912 104.001L54.0225 103.252C50.9391 102.584 48.5076 101.467 46.7278 99.9027C44.9594 98.327 44.0809 96.1789 44.0922 93.4582C44.0809 91.2478 44.6704 89.315 45.8606 87.6599C47.0622 85.9936 48.723 84.6956 50.8428 83.7661C52.9739 82.8365 55.4168 82.3718 58.1714 82.3718C60.9827 82.3718 63.4142 82.8422 65.466 83.7831C67.5178 84.724 69.0992 86.0503 70.2101 87.762C71.3323 89.4624 71.8991 91.4518 71.9105 93.7303H62.8644ZM108.494 95.9068H98.904C98.836 95.1133 98.6546 94.3935 98.3599 93.7473C98.0765 93.1012 97.6797 92.5457 97.1696 92.0809C96.6708 91.6048 96.0644 91.2421 95.3502 90.9927C94.6361 90.732 93.8255 90.6016 92.9187 90.6016C91.3316 90.6016 89.9883 90.987 88.8888 91.7579C87.8005 92.5287 86.973 93.634 86.4062 95.0736C85.8508 96.5133 85.573 98.242 85.573 100.26C85.573 102.391 85.8564 104.176 86.4232 105.616C87.0013 107.044 87.8345 108.121 88.9228 108.847C90.011 109.561 91.3203 109.918 92.8507 109.918C93.7235 109.918 94.5057 109.81 95.1972 109.595C95.8887 109.368 96.4895 109.045 96.9996 108.626C97.5097 108.206 97.9235 107.702 98.2409 107.112C98.5696 106.511 98.7907 105.837 98.904 105.089L108.494 105.157C108.381 106.631 107.967 108.133 107.253 109.663C106.539 111.182 105.524 112.588 104.209 113.88C102.906 115.161 101.29 116.192 99.3631 116.975C97.436 117.757 95.1972 118.148 92.6466 118.148C89.4499 118.148 86.5819 117.462 84.0427 116.09C81.5148 114.719 79.514 112.701 78.0403 110.037C76.578 107.373 75.8469 104.114 75.8469 100.26C75.8469 96.3829 76.595 93.1182 78.0914 90.4656C79.5877 87.8016 81.6055 85.7895 84.1447 84.4292C86.6839 83.0576 89.5179 82.3718 92.6466 82.3718C94.8458 82.3718 96.8692 82.6722 98.717 83.273C100.565 83.8738 102.186 84.7523 103.58 85.9086C104.974 87.0535 106.097 88.4648 106.947 90.1425C107.797 91.8202 108.313 93.7416 108.494 95.9068ZM112.783 117.672V82.8479H122.237V96.4509H134.752V82.8479H144.206V117.672H134.752V104.069H122.237V117.672H112.783ZM148.695 117.672V82.8479H173.793V90.4656H158.15V96.4509H172.501V104.069H158.15V110.054H173.725V117.672H148.695ZM191.881 117.672H178.482V82.8479H191.745C195.327 82.8479 198.422 83.545 201.029 84.9393C203.647 86.3223 205.665 88.3174 207.082 90.9247C208.511 93.5206 209.225 96.6323 209.225 100.26C209.225 103.887 208.516 107.005 207.099 109.612C205.682 112.208 203.676 114.203 201.08 115.597C198.484 116.98 195.418 117.672 191.881 117.672ZM187.936 109.646H191.541C193.264 109.646 194.732 109.368 195.945 108.813C197.169 108.257 198.099 107.299 198.733 105.939C199.379 104.579 199.703 102.686 199.703 100.26C199.703 97.8339 199.374 95.9408 198.716 94.5805C198.07 93.2202 197.118 92.2623 195.86 91.7069C194.613 91.1514 193.082 90.8737 191.269 90.8737H187.936V109.646ZM234.208 82.8479H243.662V105.157C243.662 107.809 243.027 110.105 241.757 112.043C240.499 113.971 238.742 115.461 236.486 116.515C234.23 117.558 231.612 118.08 228.63 118.08C225.626 118.08 222.996 117.558 220.741 116.515C218.485 115.461 216.728 113.971 215.469 112.043C214.222 110.105 213.599 107.809 213.599 105.157V82.8479H223.053V104.341C223.053 105.418 223.291 106.381 223.767 107.231C224.243 108.07 224.901 108.728 225.74 109.204C226.59 109.68 227.553 109.918 228.63 109.918C229.719 109.918 230.682 109.68 231.521 109.204C232.36 108.728 233.017 108.07 233.493 107.231C233.969 106.381 234.208 105.418 234.208 104.341V82.8479ZM248.155 117.672V82.8479H257.609V110.054H271.688V117.672H248.155ZM275.51 117.672V82.8479H300.607V90.4656H284.964V96.4509H299.315V104.069H284.964V110.054H300.539V117.672H275.51Z" fill="#0F0D98"/>
</g>
<defs>
<clipPath id="clip0_28_37">
<rect width="343.903" height="199.648" fill="white" transform="translate(0.190674)"/>
</clipPath>
</defs>
</svg>
