<svg width="344" height="200" viewBox="0 0 344 200" fill="none" xmlns="http://www.w3.org/2000/svg">
<g clip-path="url(#clip0_28_32)">
<path d="M172.045 7.4966L182.842 0L191.939 8.22462L204.266 1.57429L211.519 10.3972L225.181 4.69803L230.476 13.9802L245.259 9.32197L248.511 18.9169L264.182 15.3732L265.341 25.1296L281.651 22.7563L280.7 32.5203L297.393 31.3547L294.345 40.9724L311.157 41.033L306.061 50.3526L322.728 51.6384L315.664 60.513L331.922 63.0038L323.001 71.2934L338.595 74.9499L327.958 82.5238L342.641 87.2882L330.457 94.0269L343.997 99.8242L330.457 105.622L342.641 112.36L327.958 117.125L338.595 124.699L323.001 128.355L331.922 136.645L315.664 139.135L322.728 148.01L306.061 149.296L311.157 158.615L294.345 158.676L297.393 168.294L280.7 167.128L281.651 176.892L265.341 174.519L264.182 184.275L248.511 180.732L245.259 190.326L230.476 185.668L225.181 194.95L211.519 189.251L204.266 198.074L191.939 191.424L182.842 199.648L172.045 192.152L161.248 199.648L152.152 191.424L139.825 198.074L132.572 189.251L118.909 194.95L113.615 185.668L98.8319 190.326L95.5792 180.732L79.9091 184.275L78.7494 174.519L62.4393 176.892L63.3909 167.128L46.698 168.294L49.746 158.676L32.9336 158.615L38.0298 149.296L21.363 148.01L28.4271 139.135L12.1688 136.645L21.0893 128.355L5.49594 124.699L16.1322 117.125L1.44963 112.36L13.634 105.622L0.09375 99.8242L13.634 94.0269L1.44963 87.2882L16.1322 82.5238L5.49594 74.9499L21.0893 71.2934L12.1688 63.0038L28.4271 60.513L21.363 51.6384L38.0298 50.3526L32.9336 41.033L49.746 40.9724L46.698 31.3547L63.3909 32.5203L62.4393 22.7563L78.7494 25.1296L79.9091 15.3732L95.5792 18.9169L98.8319 9.32197L113.615 13.9802L118.909 4.69803L132.572 10.3972L139.825 1.57429L152.152 8.22462L161.248 0L172.045 7.4966Z" fill="#0F0D98"/>
<path d="M172.045 178.635C251.514 178.635 315.935 143.35 315.935 99.8242C315.935 56.2981 251.514 21.0132 172.045 21.0132C92.5771 21.0132 28.1553 56.2981 28.1553 99.8242C28.1553 143.35 92.5771 178.635 172.045 178.635Z" fill="white"/>
<path d="M60.1294 76.0508H74.7837L87.2147 106.363H87.7885L100.22 76.0508H114.874V125.01H103.351V94.9364H102.945L91.1831 124.699H83.8201L72.0584 94.769H71.652V125.01H60.1294V76.0508ZM122.255 125.01V76.0508H156.392V85.6609H134.088V95.7014H154.647V105.335H134.088V115.4H156.392V125.01H122.255ZM174.393 125.01H161.675L178.194 76.0508H193.948L210.467 125.01H197.749L186.251 88.3862H185.868L174.393 125.01ZM172.696 105.742H199.279V114.73H172.696V105.742ZM215.738 125.01V76.0508H227.572V115.4H247.94V125.01H215.738ZM280.529 90.7289C280.37 88.9758 279.661 87.6132 278.402 86.641C277.159 85.6529 275.382 85.1589 273.071 85.1589C271.541 85.1589 270.266 85.3581 269.246 85.7565C268.226 86.155 267.461 86.7048 266.951 87.406C266.441 88.0913 266.178 88.8802 266.162 89.7727C266.13 90.5058 266.273 91.1513 266.592 91.7091C266.927 92.2669 267.405 92.7609 268.027 93.1912C268.664 93.6056 269.429 93.9722 270.322 94.2909C271.214 94.6097 272.218 94.8886 273.334 95.1276L277.541 96.0839C279.964 96.6098 282.099 97.311 283.948 98.1876C285.812 99.0641 287.374 100.108 288.633 101.319C289.908 102.53 290.873 103.925 291.526 105.503C292.179 107.081 292.514 108.85 292.53 110.81C292.514 113.902 291.733 116.555 290.187 118.77C288.641 120.986 286.418 122.683 283.518 123.862C280.633 125.042 277.151 125.631 273.071 125.631C268.975 125.631 265.405 125.018 262.361 123.791C259.317 122.564 256.95 120.699 255.261 118.197C253.571 115.695 252.703 112.531 252.655 108.706H263.986C264.082 110.284 264.504 111.599 265.253 112.651C266.003 113.702 267.03 114.499 268.337 115.041C269.66 115.583 271.19 115.854 272.927 115.854C274.521 115.854 275.876 115.639 276.991 115.209C278.123 114.778 278.991 114.181 279.597 113.416C280.203 112.651 280.513 111.774 280.529 110.786C280.513 109.862 280.226 109.073 279.669 108.419C279.111 107.75 278.25 107.176 277.087 106.698C275.939 106.204 274.473 105.75 272.688 105.335L267.572 104.14C263.333 103.168 259.994 101.598 257.556 99.4307C255.117 97.2473 253.906 94.2989 253.922 90.5855C253.906 87.5574 254.719 84.9039 256.361 82.6249C258.002 80.3458 260.273 78.5688 263.174 77.2939C266.074 76.0189 269.381 75.3814 273.095 75.3814C276.888 75.3814 280.179 76.0269 282.968 77.3178C285.773 78.5927 287.948 80.3857 289.494 82.6966C291.04 85.0075 291.829 87.6849 291.861 90.7289H280.529Z" fill="#0F0D98"/>
</g>
<defs>
<clipPath id="clip0_28_32">
<rect width="343.903" height="199.648" fill="white" transform="translate(0.09375)"/>
</clipPath>
</defs>
</svg>
