<svg width="345" height="200" viewBox="0 0 345 200" fill="none" xmlns="http://www.w3.org/2000/svg">
<g clip-path="url(#clip0_96_7206)">
<path d="M172.097 7.4966L182.894 0L191.991 8.22462L204.318 1.57429L211.57 10.3972L225.233 4.69803L230.527 13.9802L245.31 9.32197L248.563 18.9169L264.233 15.3732L265.393 25.1296L281.703 22.7563L280.751 32.5203L297.444 31.3547L294.396 40.9724L311.209 41.033L306.113 50.3526L322.779 51.6384L315.715 60.513L331.974 63.0038L323.053 71.2934L338.646 74.9499L328.01 82.5238L342.693 87.2882L330.508 94.0269L344.049 99.8242L330.508 105.622L342.693 112.36L328.01 117.125L338.646 124.699L323.053 128.355L331.974 136.645L315.715 139.135L322.779 148.01L306.113 149.296L311.209 158.615L294.396 158.676L297.444 168.294L280.751 167.128L281.703 176.892L265.393 174.519L264.233 184.275L248.563 180.732L245.31 190.326L230.527 185.668L225.233 194.95L211.57 189.251L204.318 198.074L191.991 191.424L182.894 199.648L172.097 192.152L161.3 199.648L152.204 191.424L139.877 198.074L132.624 189.251L118.961 194.95L113.667 185.668L98.8837 190.326L95.6309 180.732L79.9608 184.275L78.8012 174.519L62.491 176.892L63.4427 167.128L46.7498 168.294L49.7977 158.676L32.9853 158.615L38.0815 149.296L21.4148 148.01L28.4788 139.135L12.2206 136.645L21.1411 128.355L5.54769 124.699L16.184 117.125L1.50139 112.36L13.6858 105.622L0.145508 99.8242L13.6858 94.0269L1.50139 87.2882L16.184 82.5238L5.54769 74.9499L21.1411 71.2934L12.2206 63.0038L28.4788 60.513L21.4148 51.6384L38.0815 50.3526L32.9853 41.033L49.7977 40.9724L46.7498 31.3547L63.4427 32.5203L62.491 22.7563L78.8012 25.1296L79.9608 15.3732L95.6309 18.9169L98.8837 9.32197L113.667 13.9802L118.961 4.69803L132.624 10.3972L139.877 1.57429L152.204 8.22462L161.3 0L172.097 7.4966Z" fill="#ECA1FF"/>
<path d="M172.097 178.635C251.565 178.635 315.987 143.35 315.987 99.8242C315.987 56.2981 251.565 21.0132 172.097 21.0132C92.6288 21.0132 28.207 56.2981 28.207 99.8242C28.207 143.35 92.6288 178.635 172.097 178.635Z" fill="#0D0B6B"/>
<path d="M62.819 93.7303C62.7284 92.5967 62.3033 91.7125 61.5438 91.0777C60.7956 90.4429 59.6563 90.1255 58.126 90.1255C57.1511 90.1255 56.3519 90.2445 55.7285 90.4826C55.1163 90.7093 54.6629 91.021 54.3681 91.4178C54.0734 91.8145 53.9204 92.268 53.909 92.7781C53.8864 93.1975 53.9601 93.5773 54.1301 93.9173C54.3115 94.2461 54.5949 94.5465 54.9803 94.8185C55.3657 95.0793 55.8588 95.3173 56.4596 95.5327C57.0604 95.7481 57.7746 95.9408 58.6021 96.1108L61.4587 96.723C63.3858 97.1311 65.0352 97.6695 66.4068 98.3383C67.7785 99.0072 68.9007 99.795 69.7736 100.702C70.6465 101.597 71.2869 102.606 71.695 103.729C72.1145 104.851 72.3298 106.075 72.3412 107.401C72.3298 109.691 71.7574 111.63 70.6238 113.217C69.4902 114.804 67.8692 116.011 65.7607 116.838C63.6636 117.666 61.1413 118.08 58.194 118.08C55.1673 118.08 52.5261 117.632 50.2702 116.736C48.0257 115.841 46.28 114.464 45.0331 112.605C43.7975 110.734 43.174 108.342 43.1626 105.429H52.1407C52.1973 106.494 52.4637 107.39 52.9398 108.116C53.4159 108.841 54.0848 109.391 54.9463 109.765C55.8191 110.139 56.8564 110.326 58.058 110.326C59.0669 110.326 59.9114 110.201 60.5915 109.952C61.2717 109.703 61.7875 109.357 62.1389 108.915C62.4903 108.473 62.6717 107.968 62.683 107.401C62.6717 106.869 62.496 106.404 62.1559 106.007C61.8272 105.599 61.283 105.236 60.5235 104.919C59.764 104.59 58.7381 104.284 57.4458 104.001L53.9771 103.252C50.8937 102.584 48.4622 101.467 46.6824 99.9027C44.914 98.327 44.0355 96.1789 44.0468 93.4582C44.0355 91.2478 44.625 89.315 45.8152 87.6599C47.0168 85.9936 48.6775 84.6956 50.7974 83.7661C52.9285 82.8365 55.3714 82.3718 58.126 82.3718C60.9373 82.3718 63.3688 82.8422 65.4206 83.7831C67.4724 84.724 69.0538 86.0503 70.1647 87.762C71.2869 89.4624 71.8537 91.4518 71.8651 93.7303H62.819ZM108.449 95.9068H98.8586C98.7906 95.1133 98.6092 94.3935 98.3145 93.7473C98.0311 93.1012 97.6343 92.5457 97.1242 92.0809C96.6254 91.6048 96.019 91.2421 95.3048 90.9927C94.5906 90.732 93.7801 90.6016 92.8733 90.6016C91.2862 90.6016 89.9429 90.987 88.8434 91.7579C87.7551 92.5287 86.9276 93.634 86.3608 95.0736C85.8053 96.5133 85.5276 98.242 85.5276 100.26C85.5276 102.391 85.811 104.176 86.3778 105.616C86.9559 107.044 87.7891 108.121 88.8774 108.847C89.9656 109.561 91.2749 109.918 92.8052 109.918C93.6781 109.918 94.4603 109.81 95.1518 109.595C95.8433 109.368 96.4441 109.045 96.9542 108.626C97.4643 108.206 97.878 107.702 98.1955 107.112C98.5242 106.511 98.7452 105.837 98.8586 105.089L108.449 105.157C108.335 106.631 107.922 108.133 107.207 109.663C106.493 111.182 105.479 112.588 104.164 113.88C102.86 115.161 101.245 116.192 99.3177 116.975C97.3906 117.757 95.1518 118.148 92.6012 118.148C89.4045 118.148 86.5365 117.462 83.9973 116.09C81.4694 114.719 79.4686 112.701 77.9949 110.037C76.5326 107.373 75.8014 104.114 75.8014 100.26C75.8014 96.3829 76.5496 93.1182 78.0459 90.4656C79.5423 87.8016 81.5601 85.7895 84.0993 84.4292C86.6385 83.0576 89.4725 82.3718 92.6012 82.3718C94.8004 82.3718 96.8238 82.6722 98.6716 83.273C100.519 83.8738 102.14 84.7523 103.535 85.9086C104.929 87.0535 106.051 88.4648 106.901 90.1425C107.752 91.8202 108.267 93.7416 108.449 95.9068ZM112.738 117.672V82.8479H122.192V96.4509H134.707V82.8479H144.161V117.672H134.707V104.069H122.192V117.672H112.738ZM148.65 117.672V82.8479H173.748V90.4656H158.104V96.4509H172.455V104.069H158.104V110.054H173.68V117.672H148.65ZM191.835 117.672H178.436V82.8479H191.699C195.281 82.8479 198.376 83.545 200.983 84.9393C203.602 86.3223 205.62 88.3174 207.037 90.9247C208.465 93.5206 209.179 96.6323 209.179 100.26C209.179 103.887 208.471 107.005 207.054 109.612C205.637 112.208 203.63 114.203 201.034 115.597C198.439 116.98 195.372 117.672 191.835 117.672ZM187.891 109.646H191.495C193.218 109.646 194.686 109.368 195.899 108.813C197.124 108.257 198.053 107.299 198.688 105.939C199.334 104.579 199.657 102.686 199.657 100.26C199.657 97.8339 199.328 95.9408 198.671 94.5805C198.025 93.2202 197.073 92.2623 195.814 91.7069C194.567 91.1514 193.037 90.8737 191.223 90.8737H187.891V109.646ZM234.162 82.8479H243.616V105.157C243.616 107.809 242.981 110.105 241.712 112.043C240.454 113.971 238.696 115.461 236.441 116.515C234.185 117.558 231.566 118.08 228.585 118.08C225.581 118.08 222.951 117.558 220.695 116.515C218.439 115.461 216.682 113.971 215.424 112.043C214.177 110.105 213.553 107.809 213.553 105.157V82.8479H223.008V104.341C223.008 105.418 223.246 106.381 223.722 107.231C224.198 108.07 224.855 108.728 225.694 109.204C226.544 109.68 227.508 109.918 228.585 109.918C229.673 109.918 230.637 109.68 231.476 109.204C232.314 108.728 232.972 108.07 233.448 107.231C233.924 106.381 234.162 105.418 234.162 104.341V82.8479ZM248.109 117.672V82.8479H257.564V110.054H271.643V117.672H248.109ZM275.464 117.672V82.8479H300.562V90.4656H284.918V96.4509H299.27V104.069H284.918V110.054H300.494V117.672H275.464Z" fill="#ECA1FF"/>
</g>
<defs>
<clipPath id="clip0_96_7206">
<rect width="343.903" height="199.648" fill="white" transform="translate(0.145508)"/>
</clipPath>
</defs>
</svg>
